<?xml version="1.0" encoding="utf-8" standalone="no"?>
<!DOCTYPE svg PUBLIC "-//W3C//DTD SVG 1.1//EN"
  "http://www.w3.org/Graphics/SVG/1.1/DTD/svg11.dtd">
<!-- Created with matplotlib (https://matplotlib.org/) -->
<svg height="252pt" version="1.1" viewBox="0 0 252 252" width="252pt" xmlns="http://www.w3.org/2000/svg" xmlns:xlink="http://www.w3.org/1999/xlink">
 <defs>
  <style type="text/css">
*{stroke-linecap:butt;stroke-linejoin:round;}
  </style>
 </defs>
 <g id="figure_1">
  <g id="patch_1">
   <path d="M 0 252 
L 252 252 
L 252 0 
L 0 0 
z
" style="fill:#ffffff;"/>
  </g>
  <g id="axes_1">
   <g id="patch_2">
    <path d="M 66.175 202.2 
L 208.295714 202.2 
L 208.295714 46.511429 
L 66.175 46.511429 
z
" style="fill:#ffffff;"/>
   </g>
   <g id="PathCollection_1">
    <defs>
     <path d="M 0 3 
C 0.795609 3 1.55874 2.683901 2.12132 2.12132 
C 2.683901 1.55874 3 0.795609 3 0 
C 3 -0.795609 2.683901 -1.55874 2.12132 -2.12132 
C 1.55874 -2.683901 0.795609 -3 0 -3 
C -0.795609 -3 -1.55874 -2.683901 -2.12132 -2.12132 
C -2.683901 -1.55874 -3 -0.795609 -3 0 
C -3 0.795609 -2.683901 1.55874 -2.12132 2.12132 
C -1.55874 2.683901 -0.795609 3 0 3 
z
" id="m868856674f" style="stroke:#1f77b4;stroke-opacity:0.8;"/>
    </defs>
    <g clip-path="url(#pcd41272eca)">
     <use style="fill:#1f77b4;fill-opacity:0.8;stroke:#1f77b4;stroke-opacity:0.8;" x="71.859829" xlink:href="#m868856674f" y="121.241943"/>
     <use style="fill:#1f77b4;fill-opacity:0.8;stroke:#1f77b4;stroke-opacity:0.8;" x="107.390007" xlink:href="#m868856674f" y="124.355714"/>
     <use style="fill:#1f77b4;fill-opacity:0.8;stroke:#1f77b4;stroke-opacity:0.8;" x="111.653629" xlink:href="#m868856674f" y="126.301821"/>
     <use style="fill:#1f77b4;fill-opacity:0.8;stroke:#1f77b4;stroke-opacity:0.8;" x="111.653629" xlink:href="#m868856674f" y="173.008393"/>
     <use style="fill:#1f77b4;fill-opacity:0.8;stroke:#1f77b4;stroke-opacity:0.8;" x="115.91725" xlink:href="#m868856674f" y="124.744936"/>
     <use style="fill:#1f77b4;fill-opacity:0.8;stroke:#1f77b4;stroke-opacity:0.8;" x="115.91725" xlink:href="#m868856674f" y="121.241943"/>
     <use style="fill:#1f77b4;fill-opacity:0.8;stroke:#1f77b4;stroke-opacity:0.8;" x="118.759664" xlink:href="#m868856674f" y="125.523379"/>
     <use style="fill:#1f77b4;fill-opacity:0.8;stroke:#1f77b4;stroke-opacity:0.8;" x="120.180871" xlink:href="#m868856674f" y="124.744936"/>
     <use style="fill:#1f77b4;fill-opacity:0.8;stroke:#1f77b4;stroke-opacity:0.8;" x="120.180871" xlink:href="#m868856674f" y="125.523379"/>
     <use style="fill:#1f77b4;fill-opacity:0.8;stroke:#1f77b4;stroke-opacity:0.8;" x="120.180871" xlink:href="#m868856674f" y="124.355714"/>
     <use style="fill:#1f77b4;fill-opacity:0.8;stroke:#1f77b4;stroke-opacity:0.8;" x="123.023286" xlink:href="#m868856674f" y="123.577271"/>
     <use style="fill:#1f77b4;fill-opacity:0.8;stroke:#1f77b4;stroke-opacity:0.8;" x="123.023286" xlink:href="#m868856674f" y="124.744936"/>
     <use style="fill:#1f77b4;fill-opacity:0.8;stroke:#1f77b4;stroke-opacity:0.8;" x="124.444493" xlink:href="#m868856674f" y="121.241943"/>
     <use style="fill:#1f77b4;fill-opacity:0.8;stroke:#1f77b4;stroke-opacity:0.8;" x="124.444493" xlink:href="#m868856674f" y="122.798829"/>
     <use style="fill:#1f77b4;fill-opacity:0.8;stroke:#1f77b4;stroke-opacity:0.8;" x="124.444493" xlink:href="#m868856674f" y="124.744936"/>
     <use style="fill:#1f77b4;fill-opacity:0.8;stroke:#1f77b4;stroke-opacity:0.8;" x="124.444493" xlink:href="#m868856674f" y="124.744936"/>
     <use style="fill:#1f77b4;fill-opacity:0.8;stroke:#1f77b4;stroke-opacity:0.8;" x="124.444493" xlink:href="#m868856674f" y="124.744936"/>
     <use style="fill:#1f77b4;fill-opacity:0.8;stroke:#1f77b4;stroke-opacity:0.8;" x="124.444493" xlink:href="#m868856674f" y="125.523379"/>
     <use style="fill:#1f77b4;fill-opacity:0.8;stroke:#1f77b4;stroke-opacity:0.8;" x="125.8657" xlink:href="#m868856674f" y="122.020386"/>
     <use style="fill:#1f77b4;fill-opacity:0.8;stroke:#1f77b4;stroke-opacity:0.8;" x="125.8657" xlink:href="#m868856674f" y="122.020386"/>
     <use style="fill:#1f77b4;fill-opacity:0.8;stroke:#1f77b4;stroke-opacity:0.8;" x="125.8657" xlink:href="#m868856674f" y="125.523379"/>
     <use style="fill:#1f77b4;fill-opacity:0.8;stroke:#1f77b4;stroke-opacity:0.8;" x="125.8657" xlink:href="#m868856674f" y="122.798829"/>
     <use style="fill:#1f77b4;fill-opacity:0.8;stroke:#1f77b4;stroke-opacity:0.8;" x="125.8657" xlink:href="#m868856674f" y="130.194036"/>
     <use style="fill:#1f77b4;fill-opacity:0.8;stroke:#1f77b4;stroke-opacity:0.8;" x="125.8657" xlink:href="#m868856674f" y="122.020386"/>
     <use style="fill:#1f77b4;fill-opacity:0.8;stroke:#1f77b4;stroke-opacity:0.8;" x="125.8657" xlink:href="#m868856674f" y="125.523379"/>
     <use style="fill:#1f77b4;fill-opacity:0.8;stroke:#1f77b4;stroke-opacity:0.8;" x="127.286907" xlink:href="#m868856674f" y="125.523379"/>
     <use style="fill:#1f77b4;fill-opacity:0.8;stroke:#1f77b4;stroke-opacity:0.8;" x="127.286907" xlink:href="#m868856674f" y="123.966493"/>
     <use style="fill:#1f77b4;fill-opacity:0.8;stroke:#1f77b4;stroke-opacity:0.8;" x="128.708114" xlink:href="#m868856674f" y="125.523379"/>
     <use style="fill:#1f77b4;fill-opacity:0.8;stroke:#1f77b4;stroke-opacity:0.8;" x="128.708114" xlink:href="#m868856674f" y="121.631164"/>
     <use style="fill:#1f77b4;fill-opacity:0.8;stroke:#1f77b4;stroke-opacity:0.8;" x="128.708114" xlink:href="#m868856674f" y="125.523379"/>
     <use style="fill:#1f77b4;fill-opacity:0.8;stroke:#1f77b4;stroke-opacity:0.8;" x="128.708114" xlink:href="#m868856674f" y="122.020386"/>
     <use style="fill:#1f77b4;fill-opacity:0.8;stroke:#1f77b4;stroke-opacity:0.8;" x="128.708114" xlink:href="#m868856674f" y="121.241943"/>
     <use style="fill:#1f77b4;fill-opacity:0.8;stroke:#1f77b4;stroke-opacity:0.8;" x="130.129321" xlink:href="#m868856674f" y="174.565279"/>
     <use style="fill:#1f77b4;fill-opacity:0.8;stroke:#1f77b4;stroke-opacity:0.8;" x="130.129321" xlink:href="#m868856674f" y="124.744936"/>
     <use style="fill:#1f77b4;fill-opacity:0.8;stroke:#1f77b4;stroke-opacity:0.8;" x="130.129321" xlink:href="#m868856674f" y="124.744936"/>
     <use style="fill:#1f77b4;fill-opacity:0.8;stroke:#1f77b4;stroke-opacity:0.8;" x="131.550529" xlink:href="#m868856674f" y="123.577271"/>
     <use style="fill:#1f77b4;fill-opacity:0.8;stroke:#1f77b4;stroke-opacity:0.8;" x="131.550529" xlink:href="#m868856674f" y="124.355714"/>
     <use style="fill:#1f77b4;fill-opacity:0.8;stroke:#1f77b4;stroke-opacity:0.8;" x="131.550529" xlink:href="#m868856674f" y="124.744936"/>
     <use style="fill:#1f77b4;fill-opacity:0.8;stroke:#1f77b4;stroke-opacity:0.8;" x="131.550529" xlink:href="#m868856674f" y="122.020386"/>
     <use style="fill:#1f77b4;fill-opacity:0.8;stroke:#1f77b4;stroke-opacity:0.8;" x="131.550529" xlink:href="#m868856674f" y="76.092257"/>
     <use style="fill:#1f77b4;fill-opacity:0.8;stroke:#1f77b4;stroke-opacity:0.8;" x="131.550529" xlink:href="#m868856674f" y="121.631164"/>
     <use style="fill:#1f77b4;fill-opacity:0.8;stroke:#1f77b4;stroke-opacity:0.8;" x="132.971736" xlink:href="#m868856674f" y="124.744936"/>
     <use style="fill:#1f77b4;fill-opacity:0.8;stroke:#1f77b4;stroke-opacity:0.8;" x="132.971736" xlink:href="#m868856674f" y="124.744936"/>
     <use style="fill:#1f77b4;fill-opacity:0.8;stroke:#1f77b4;stroke-opacity:0.8;" x="132.971736" xlink:href="#m868856674f" y="125.523379"/>
     <use style="fill:#1f77b4;fill-opacity:0.8;stroke:#1f77b4;stroke-opacity:0.8;" x="132.971736" xlink:href="#m868856674f" y="124.744936"/>
     <use style="fill:#1f77b4;fill-opacity:0.8;stroke:#1f77b4;stroke-opacity:0.8;" x="132.971736" xlink:href="#m868856674f" y="121.241943"/>
     <use style="fill:#1f77b4;fill-opacity:0.8;stroke:#1f77b4;stroke-opacity:0.8;" x="134.392943" xlink:href="#m868856674f" y="122.020386"/>
     <use style="fill:#1f77b4;fill-opacity:0.8;stroke:#1f77b4;stroke-opacity:0.8;" x="134.392943" xlink:href="#m868856674f" y="123.577271"/>
     <use style="fill:#1f77b4;fill-opacity:0.8;stroke:#1f77b4;stroke-opacity:0.8;" x="134.392943" xlink:href="#m868856674f" y="124.744936"/>
     <use style="fill:#1f77b4;fill-opacity:0.8;stroke:#1f77b4;stroke-opacity:0.8;" x="134.392943" xlink:href="#m868856674f" y="125.523379"/>
     <use style="fill:#1f77b4;fill-opacity:0.8;stroke:#1f77b4;stroke-opacity:0.8;" x="135.81415" xlink:href="#m868856674f" y="121.631164"/>
     <use style="fill:#1f77b4;fill-opacity:0.8;stroke:#1f77b4;stroke-opacity:0.8;" x="135.81415" xlink:href="#m868856674f" y="124.744936"/>
     <use style="fill:#1f77b4;fill-opacity:0.8;stroke:#1f77b4;stroke-opacity:0.8;" x="135.81415" xlink:href="#m868856674f" y="129.026371"/>
     <use style="fill:#1f77b4;fill-opacity:0.8;stroke:#1f77b4;stroke-opacity:0.8;" x="135.81415" xlink:href="#m868856674f" y="121.241943"/>
     <use style="fill:#1f77b4;fill-opacity:0.8;stroke:#1f77b4;stroke-opacity:0.8;" x="135.81415" xlink:href="#m868856674f" y="176.900607"/>
     <use style="fill:#1f77b4;fill-opacity:0.8;stroke:#1f77b4;stroke-opacity:0.8;" x="135.81415" xlink:href="#m868856674f" y="125.134157"/>
     <use style="fill:#1f77b4;fill-opacity:0.8;stroke:#1f77b4;stroke-opacity:0.8;" x="135.81415" xlink:href="#m868856674f" y="124.355714"/>
     <use style="fill:#1f77b4;fill-opacity:0.8;stroke:#1f77b4;stroke-opacity:0.8;" x="135.81415" xlink:href="#m868856674f" y="121.241943"/>
     <use style="fill:#1f77b4;fill-opacity:0.8;stroke:#1f77b4;stroke-opacity:0.8;" x="135.81415" xlink:href="#m868856674f" y="124.744936"/>
     <use style="fill:#1f77b4;fill-opacity:0.8;stroke:#1f77b4;stroke-opacity:0.8;" x="135.81415" xlink:href="#m868856674f" y="123.577271"/>
     <use style="fill:#1f77b4;fill-opacity:0.8;stroke:#1f77b4;stroke-opacity:0.8;" x="138.656564" xlink:href="#m868856674f" y="123.966493"/>
     <use style="fill:#1f77b4;fill-opacity:0.8;stroke:#1f77b4;stroke-opacity:0.8;" x="138.656564" xlink:href="#m868856674f" y="122.020386"/>
     <use style="fill:#1f77b4;fill-opacity:0.8;stroke:#1f77b4;stroke-opacity:0.8;" x="138.656564" xlink:href="#m868856674f" y="121.241943"/>
     <use style="fill:#1f77b4;fill-opacity:0.8;stroke:#1f77b4;stroke-opacity:0.8;" x="138.656564" xlink:href="#m868856674f" y="120.074279"/>
     <use style="fill:#1f77b4;fill-opacity:0.8;stroke:#1f77b4;stroke-opacity:0.8;" x="138.656564" xlink:href="#m868856674f" y="121.241943"/>
     <use style="fill:#1f77b4;fill-opacity:0.8;stroke:#1f77b4;stroke-opacity:0.8;" x="141.498979" xlink:href="#m868856674f" y="115.403621"/>
     <use style="fill:#1f77b4;fill-opacity:0.8;stroke:#1f77b4;stroke-opacity:0.8;" x="144.341393" xlink:href="#m868856674f" y="121.241943"/>
     <use style="fill:#1f77b4;fill-opacity:0.8;stroke:#1f77b4;stroke-opacity:0.8;" x="150.026221" xlink:href="#m868856674f" y="121.241943"/>
     <use style="fill:#1f77b4;fill-opacity:0.8;stroke:#1f77b4;stroke-opacity:0.8;" x="150.026221" xlink:href="#m868856674f" y="123.966493"/>
     <use style="fill:#1f77b4;fill-opacity:0.8;stroke:#1f77b4;stroke-opacity:0.8;" x="157.132257" xlink:href="#m868856674f" y="123.966493"/>
    </g>
   </g>
   <g id="PolyCollection_1">
    <path clip-path="url(#pcd41272eca)" d="M 66.175 120.161184 
L 66.175 156.964316 
L 67.610563 156.260862 
L 69.046126 155.557299 
L 70.481688 154.851163 
L 71.917251 154.145028 
L 73.352814 153.438892 
L 74.788377 152.723498 
L 76.223939 151.957539 
L 77.659502 151.191581 
L 79.095065 150.425622 
L 80.530628 149.709996 
L 81.96619 149.060703 
L 83.401753 148.387455 
L 84.837316 147.728149 
L 86.272879 147.068207 
L 87.708442 146.40851 
L 89.144004 145.749861 
L 90.579567 145.04444 
L 92.01513 144.282028 
L 93.450693 143.578589 
L 94.886255 142.87515 
L 96.321818 142.171712 
L 97.757381 141.466435 
L 99.192944 140.760403 
L 100.628506 140.167271 
L 102.064069 139.431818 
L 103.499632 138.674008 
L 104.935195 137.948134 
L 106.370758 137.243281 
L 107.80632 136.630126 
L 109.241883 136.021718 
L 110.677446 135.48983 
L 112.113009 134.809237 
L 113.548571 134.077296 
L 114.984134 133.247469 
L 116.419697 132.653169 
L 117.85526 132.082401 
L 119.290823 131.443751 
L 120.726385 130.917756 
L 122.161948 130.375094 
L 123.597511 129.800838 
L 125.033074 129.257717 
L 126.468636 128.981445 
L 127.904199 128.686653 
L 129.339762 128.389754 
L 130.775325 128.322035 
L 132.210887 128.21184 
L 133.64645 128.152707 
L 135.082013 128.113463 
L 136.517576 128.126178 
L 137.953139 128.160352 
L 139.388701 128.20816 
L 140.824264 128.369115 
L 142.259827 128.475671 
L 143.69539 128.636823 
L 145.130952 128.786881 
L 146.566515 128.839543 
L 148.002078 128.910135 
L 149.437641 128.961124 
L 150.873203 128.993421 
L 152.308766 129.021076 
L 153.744329 129.059276 
L 155.179892 129.091013 
L 156.615455 129.213163 
L 158.051017 129.339699 
L 159.48658 129.501513 
L 160.922143 129.657603 
L 162.357706 129.813272 
L 163.793268 129.895569 
L 165.228831 130.04229 
L 166.664394 130.192709 
L 168.099957 130.34213 
L 169.535519 130.460238 
L 170.971082 130.559837 
L 172.406645 130.659437 
L 173.842208 130.759036 
L 175.277771 130.904399 
L 176.713333 131.057223 
L 178.148896 131.208077 
L 179.584459 131.31417 
L 181.020022 131.363137 
L 182.455584 131.412104 
L 183.891147 131.539609 
L 185.32671 131.68179 
L 186.762273 131.823971 
L 188.197835 131.966152 
L 189.633398 132.108307 
L 191.068961 132.248668 
L 192.504524 132.389029 
L 193.940087 132.53985 
L 195.375649 132.692228 
L 196.811212 132.83765 
L 198.246775 132.952492 
L 199.682338 133.09469 
L 201.1179 133.236888 
L 202.553463 133.379086 
L 203.989026 133.521284 
L 205.424589 133.663482 
L 206.860152 133.80568 
L 208.295714 133.952122 
L 208.295714 88.563117 
L 208.295714 88.563117 
L 206.860152 89.238756 
L 205.424589 89.923947 
L 203.989026 90.621766 
L 202.553463 91.319585 
L 201.1179 91.99689 
L 199.682338 92.648047 
L 198.246775 93.299204 
L 196.811212 93.964115 
L 195.375649 94.638558 
L 193.940087 95.313001 
L 192.504524 95.987444 
L 191.068961 96.661887 
L 189.633398 97.336329 
L 188.197835 98.010949 
L 186.762273 98.685922 
L 185.32671 99.360895 
L 183.891147 100.035868 
L 182.455584 100.710841 
L 181.020022 101.385814 
L 179.584459 102.060787 
L 178.148896 102.73576 
L 176.713333 103.410734 
L 175.277771 104.085707 
L 173.842208 104.76068 
L 172.406645 105.429301 
L 170.971082 106.009974 
L 169.535519 106.593096 
L 168.099957 107.262545 
L 166.664394 107.9347 
L 165.228831 108.607519 
L 163.793268 109.286272 
L 162.357706 109.999516 
L 160.922143 110.635011 
L 159.48658 111.302441 
L 158.051017 111.968819 
L 156.615455 112.637992 
L 155.179892 113.310632 
L 153.744329 113.982463 
L 152.308766 114.685869 
L 150.873203 115.38961 
L 149.437641 116.093352 
L 148.002078 116.709828 
L 146.566515 117.333609 
L 145.130952 118.070279 
L 143.69539 118.697069 
L 142.259827 119.35524 
L 140.824264 119.914563 
L 139.388701 120.439474 
L 137.953139 120.954509 
L 136.517576 121.272702 
L 135.082013 121.661804 
L 133.64645 121.905014 
L 132.210887 122.189784 
L 130.775325 122.380746 
L 129.339762 122.474004 
L 127.904199 122.559103 
L 126.468636 122.643488 
L 125.033074 122.788725 
L 123.597511 122.863725 
L 122.161948 122.92341 
L 120.726385 122.97624 
L 119.290823 123.004817 
L 117.85526 122.99923 
L 116.419697 123.027587 
L 114.984134 123.043996 
L 113.548571 123.001624 
L 112.113009 122.997412 
L 110.677446 122.962472 
L 109.241883 122.95173 
L 107.80632 122.885638 
L 106.370758 122.931669 
L 104.935195 122.908562 
L 103.499632 122.84069 
L 102.064069 122.682291 
L 100.628506 122.602032 
L 99.192944 122.496516 
L 97.757381 122.443599 
L 96.321818 122.422672 
L 94.886255 122.345081 
L 93.450693 122.262467 
L 92.01513 122.153454 
L 90.579567 122.022319 
L 89.144004 121.922185 
L 87.708442 121.85358 
L 86.272879 121.759299 
L 84.837316 121.67753 
L 83.401753 121.594874 
L 81.96619 121.457759 
L 80.530628 121.374465 
L 79.095065 121.274418 
L 77.659502 121.183518 
L 76.223939 121.100657 
L 74.788377 120.94932 
L 73.352814 120.771651 
L 71.917251 120.632171 
L 70.481688 120.477956 
L 69.046126 120.364747 
L 67.610563 120.262603 
L 66.175 120.161184 
z
" style="fill:#1f77b4;fill-opacity:0.15;"/>
   </g>
   <g id="matplotlib.axis_1">
    <g id="xtick_1">
     <g id="line2d_1">
      <defs>
       <path d="M 0 0 
L 0 3.5 
" id="m6ad3da33b2" style="stroke:#000000;stroke-width:0.8;"/>
      </defs>
      <g>
       <use style="stroke:#000000;stroke-width:0.8;" x="66.175" xlink:href="#m6ad3da33b2" y="202.2"/>
      </g>
     </g>
     <g id="text_1">
      <!-- −5 -->
      <defs>
       <path d="M 10.59375 35.5 
L 73.1875 35.5 
L 73.1875 27.203125 
L 10.59375 27.203125 
z
" id="DejaVuSans-8722"/>
       <path d="M 10.796875 72.90625 
L 49.515625 72.90625 
L 49.515625 64.59375 
L 19.828125 64.59375 
L 19.828125 46.734375 
Q 21.96875 47.46875 24.109375 47.828125 
Q 26.265625 48.1875 28.421875 48.1875 
Q 40.625 48.1875 47.75 41.5 
Q 54.890625 34.8125 54.890625 23.390625 
Q 54.890625 11.625 47.5625 5.09375 
Q 40.234375 -1.421875 26.90625 -1.421875 
Q 22.3125 -1.421875 17.546875 -0.640625 
Q 12.796875 0.140625 7.71875 1.703125 
L 7.71875 11.625 
Q 12.109375 9.234375 16.796875 8.0625 
Q 21.484375 6.890625 26.703125 6.890625 
Q 35.15625 6.890625 40.078125 11.328125 
Q 45.015625 15.765625 45.015625 23.390625 
Q 45.015625 31 40.078125 35.4375 
Q 35.15625 39.890625 26.703125 39.890625 
Q 22.75 39.890625 18.8125 39.015625 
Q 14.890625 38.140625 10.796875 36.28125 
z
" id="DejaVuSans-53"/>
      </defs>
      <g transform="translate(55.560625 220.14175)scale(0.144 -0.144)">
       <use xlink:href="#DejaVuSans-8722"/>
       <use x="83.789062" xlink:href="#DejaVuSans-53"/>
      </g>
     </g>
    </g>
    <g id="xtick_2">
     <g id="line2d_2">
      <g>
       <use style="stroke:#000000;stroke-width:0.8;" x="137.235357" xlink:href="#m6ad3da33b2" y="202.2"/>
      </g>
     </g>
     <g id="text_2">
      <!-- 0 -->
      <defs>
       <path d="M 31.78125 66.40625 
Q 24.171875 66.40625 20.328125 58.90625 
Q 16.5 51.421875 16.5 36.375 
Q 16.5 21.390625 20.328125 13.890625 
Q 24.171875 6.390625 31.78125 6.390625 
Q 39.453125 6.390625 43.28125 13.890625 
Q 47.125 21.390625 47.125 36.375 
Q 47.125 51.421875 43.28125 58.90625 
Q 39.453125 66.40625 31.78125 66.40625 
z
M 31.78125 74.21875 
Q 44.046875 74.21875 50.515625 64.515625 
Q 56.984375 54.828125 56.984375 36.375 
Q 56.984375 17.96875 50.515625 8.265625 
Q 44.046875 -1.421875 31.78125 -1.421875 
Q 19.53125 -1.421875 13.0625 8.265625 
Q 6.59375 17.96875 6.59375 36.375 
Q 6.59375 54.828125 13.0625 64.515625 
Q 19.53125 74.21875 31.78125 74.21875 
z
" id="DejaVuSans-48"/>
      </defs>
      <g transform="translate(132.654357 220.14175)scale(0.144 -0.144)">
       <use xlink:href="#DejaVuSans-48"/>
      </g>
     </g>
    </g>
    <g id="xtick_3">
     <g id="line2d_3">
      <g>
       <use style="stroke:#000000;stroke-width:0.8;" x="208.295714" xlink:href="#m6ad3da33b2" y="202.2"/>
      </g>
     </g>
     <g id="text_3">
      <!-- 5 -->
      <g transform="translate(203.714714 220.14175)scale(0.144 -0.144)">
       <use xlink:href="#DejaVuSans-53"/>
      </g>
     </g>
    </g>
    <g id="text_4">
     <!-- Proteomics mean FC -->
     <defs>
      <path d="M 19.671875 64.796875 
L 19.671875 37.40625 
L 32.078125 37.40625 
Q 38.96875 37.40625 42.71875 40.96875 
Q 46.484375 44.53125 46.484375 51.125 
Q 46.484375 57.671875 42.71875 61.234375 
Q 38.96875 64.796875 32.078125 64.796875 
z
M 9.8125 72.90625 
L 32.078125 72.90625 
Q 44.34375 72.90625 50.609375 67.359375 
Q 56.890625 61.8125 56.890625 51.125 
Q 56.890625 40.328125 50.609375 34.8125 
Q 44.34375 29.296875 32.078125 29.296875 
L 19.671875 29.296875 
L 19.671875 0 
L 9.8125 0 
z
" id="DejaVuSans-80"/>
      <path d="M 41.109375 46.296875 
Q 39.59375 47.171875 37.8125 47.578125 
Q 36.03125 48 33.890625 48 
Q 26.265625 48 22.1875 43.046875 
Q 18.109375 38.09375 18.109375 28.8125 
L 18.109375 0 
L 9.078125 0 
L 9.078125 54.6875 
L 18.109375 54.6875 
L 18.109375 46.1875 
Q 20.953125 51.171875 25.484375 53.578125 
Q 30.03125 56 36.53125 56 
Q 37.453125 56 38.578125 55.875 
Q 39.703125 55.765625 41.0625 55.515625 
z
" id="DejaVuSans-114"/>
      <path d="M 30.609375 48.390625 
Q 23.390625 48.390625 19.1875 42.75 
Q 14.984375 37.109375 14.984375 27.296875 
Q 14.984375 17.484375 19.15625 11.84375 
Q 23.34375 6.203125 30.609375 6.203125 
Q 37.796875 6.203125 41.984375 11.859375 
Q 46.1875 17.53125 46.1875 27.296875 
Q 46.1875 37.015625 41.984375 42.703125 
Q 37.796875 48.390625 30.609375 48.390625 
z
M 30.609375 56 
Q 42.328125 56 49.015625 48.375 
Q 55.71875 40.765625 55.71875 27.296875 
Q 55.71875 13.875 49.015625 6.21875 
Q 42.328125 -1.421875 30.609375 -1.421875 
Q 18.84375 -1.421875 12.171875 6.21875 
Q 5.515625 13.875 5.515625 27.296875 
Q 5.515625 40.765625 12.171875 48.375 
Q 18.84375 56 30.609375 56 
z
" id="DejaVuSans-111"/>
      <path d="M 18.3125 70.21875 
L 18.3125 54.6875 
L 36.8125 54.6875 
L 36.8125 47.703125 
L 18.3125 47.703125 
L 18.3125 18.015625 
Q 18.3125 11.328125 20.140625 9.421875 
Q 21.96875 7.515625 27.59375 7.515625 
L 36.8125 7.515625 
L 36.8125 0 
L 27.59375 0 
Q 17.1875 0 13.234375 3.875 
Q 9.28125 7.765625 9.28125 18.015625 
L 9.28125 47.703125 
L 2.6875 47.703125 
L 2.6875 54.6875 
L 9.28125 54.6875 
L 9.28125 70.21875 
z
" id="DejaVuSans-116"/>
      <path d="M 56.203125 29.59375 
L 56.203125 25.203125 
L 14.890625 25.203125 
Q 15.484375 15.921875 20.484375 11.0625 
Q 25.484375 6.203125 34.421875 6.203125 
Q 39.59375 6.203125 44.453125 7.46875 
Q 49.3125 8.734375 54.109375 11.28125 
L 54.109375 2.78125 
Q 49.265625 0.734375 44.1875 -0.34375 
Q 39.109375 -1.421875 33.890625 -1.421875 
Q 20.796875 -1.421875 13.15625 6.1875 
Q 5.515625 13.8125 5.515625 26.8125 
Q 5.515625 40.234375 12.765625 48.109375 
Q 20.015625 56 32.328125 56 
Q 43.359375 56 49.78125 48.890625 
Q 56.203125 41.796875 56.203125 29.59375 
z
M 47.21875 32.234375 
Q 47.125 39.59375 43.09375 43.984375 
Q 39.0625 48.390625 32.421875 48.390625 
Q 24.90625 48.390625 20.390625 44.140625 
Q 15.875 39.890625 15.1875 32.171875 
z
" id="DejaVuSans-101"/>
      <path d="M 52 44.1875 
Q 55.375 50.25 60.0625 53.125 
Q 64.75 56 71.09375 56 
Q 79.640625 56 84.28125 50.015625 
Q 88.921875 44.046875 88.921875 33.015625 
L 88.921875 0 
L 79.890625 0 
L 79.890625 32.71875 
Q 79.890625 40.578125 77.09375 44.375 
Q 74.3125 48.1875 68.609375 48.1875 
Q 61.625 48.1875 57.5625 43.546875 
Q 53.515625 38.921875 53.515625 30.90625 
L 53.515625 0 
L 44.484375 0 
L 44.484375 32.71875 
Q 44.484375 40.625 41.703125 44.40625 
Q 38.921875 48.1875 33.109375 48.1875 
Q 26.21875 48.1875 22.15625 43.53125 
Q 18.109375 38.875 18.109375 30.90625 
L 18.109375 0 
L 9.078125 0 
L 9.078125 54.6875 
L 18.109375 54.6875 
L 18.109375 46.1875 
Q 21.1875 51.21875 25.484375 53.609375 
Q 29.78125 56 35.6875 56 
Q 41.65625 56 45.828125 52.96875 
Q 50 49.953125 52 44.1875 
z
" id="DejaVuSans-109"/>
      <path d="M 9.421875 54.6875 
L 18.40625 54.6875 
L 18.40625 0 
L 9.421875 0 
z
M 9.421875 75.984375 
L 18.40625 75.984375 
L 18.40625 64.59375 
L 9.421875 64.59375 
z
" id="DejaVuSans-105"/>
      <path d="M 48.78125 52.59375 
L 48.78125 44.1875 
Q 44.96875 46.296875 41.140625 47.34375 
Q 37.3125 48.390625 33.40625 48.390625 
Q 24.65625 48.390625 19.8125 42.84375 
Q 14.984375 37.3125 14.984375 27.296875 
Q 14.984375 17.28125 19.8125 11.734375 
Q 24.65625 6.203125 33.40625 6.203125 
Q 37.3125 6.203125 41.140625 7.25 
Q 44.96875 8.296875 48.78125 10.40625 
L 48.78125 2.09375 
Q 45.015625 0.34375 40.984375 -0.53125 
Q 36.96875 -1.421875 32.421875 -1.421875 
Q 20.0625 -1.421875 12.78125 6.34375 
Q 5.515625 14.109375 5.515625 27.296875 
Q 5.515625 40.671875 12.859375 48.328125 
Q 20.21875 56 33.015625 56 
Q 37.15625 56 41.109375 55.140625 
Q 45.0625 54.296875 48.78125 52.59375 
z
" id="DejaVuSans-99"/>
      <path d="M 44.28125 53.078125 
L 44.28125 44.578125 
Q 40.484375 46.53125 36.375 47.5 
Q 32.28125 48.484375 27.875 48.484375 
Q 21.1875 48.484375 17.84375 46.4375 
Q 14.5 44.390625 14.5 40.28125 
Q 14.5 37.15625 16.890625 35.375 
Q 19.28125 33.59375 26.515625 31.984375 
L 29.59375 31.296875 
Q 39.15625 29.25 43.1875 25.515625 
Q 47.21875 21.78125 47.21875 15.09375 
Q 47.21875 7.46875 41.1875 3.015625 
Q 35.15625 -1.421875 24.609375 -1.421875 
Q 20.21875 -1.421875 15.453125 -0.5625 
Q 10.6875 0.296875 5.421875 2 
L 5.421875 11.28125 
Q 10.40625 8.6875 15.234375 7.390625 
Q 20.0625 6.109375 24.8125 6.109375 
Q 31.15625 6.109375 34.5625 8.28125 
Q 37.984375 10.453125 37.984375 14.40625 
Q 37.984375 18.0625 35.515625 20.015625 
Q 33.0625 21.96875 24.703125 23.78125 
L 21.578125 24.515625 
Q 13.234375 26.265625 9.515625 29.90625 
Q 5.8125 33.546875 5.8125 39.890625 
Q 5.8125 47.609375 11.28125 51.796875 
Q 16.75 56 26.8125 56 
Q 31.78125 56 36.171875 55.265625 
Q 40.578125 54.546875 44.28125 53.078125 
z
" id="DejaVuSans-115"/>
      <path id="DejaVuSans-32"/>
      <path d="M 34.28125 27.484375 
Q 23.390625 27.484375 19.1875 25 
Q 14.984375 22.515625 14.984375 16.5 
Q 14.984375 11.71875 18.140625 8.90625 
Q 21.296875 6.109375 26.703125 6.109375 
Q 34.1875 6.109375 38.703125 11.40625 
Q 43.21875 16.703125 43.21875 25.484375 
L 43.21875 27.484375 
z
M 52.203125 31.203125 
L 52.203125 0 
L 43.21875 0 
L 43.21875 8.296875 
Q 40.140625 3.328125 35.546875 0.953125 
Q 30.953125 -1.421875 24.3125 -1.421875 
Q 15.921875 -1.421875 10.953125 3.296875 
Q 6 8.015625 6 15.921875 
Q 6 25.140625 12.171875 29.828125 
Q 18.359375 34.515625 30.609375 34.515625 
L 43.21875 34.515625 
L 43.21875 35.40625 
Q 43.21875 41.609375 39.140625 45 
Q 35.0625 48.390625 27.6875 48.390625 
Q 23 48.390625 18.546875 47.265625 
Q 14.109375 46.140625 10.015625 43.890625 
L 10.015625 52.203125 
Q 14.9375 54.109375 19.578125 55.046875 
Q 24.21875 56 28.609375 56 
Q 40.484375 56 46.34375 49.84375 
Q 52.203125 43.703125 52.203125 31.203125 
z
" id="DejaVuSans-97"/>
      <path d="M 54.890625 33.015625 
L 54.890625 0 
L 45.90625 0 
L 45.90625 32.71875 
Q 45.90625 40.484375 42.875 44.328125 
Q 39.84375 48.1875 33.796875 48.1875 
Q 26.515625 48.1875 22.3125 43.546875 
Q 18.109375 38.921875 18.109375 30.90625 
L 18.109375 0 
L 9.078125 0 
L 9.078125 54.6875 
L 18.109375 54.6875 
L 18.109375 46.1875 
Q 21.34375 51.125 25.703125 53.5625 
Q 30.078125 56 35.796875 56 
Q 45.21875 56 50.046875 50.171875 
Q 54.890625 44.34375 54.890625 33.015625 
z
" id="DejaVuSans-110"/>
      <path d="M 9.8125 72.90625 
L 51.703125 72.90625 
L 51.703125 64.59375 
L 19.671875 64.59375 
L 19.671875 43.109375 
L 48.578125 43.109375 
L 48.578125 34.8125 
L 19.671875 34.8125 
L 19.671875 0 
L 9.8125 0 
z
" id="DejaVuSans-70"/>
      <path d="M 64.40625 67.28125 
L 64.40625 56.890625 
Q 59.421875 61.53125 53.78125 63.8125 
Q 48.140625 66.109375 41.796875 66.109375 
Q 29.296875 66.109375 22.65625 58.46875 
Q 16.015625 50.828125 16.015625 36.375 
Q 16.015625 21.96875 22.65625 14.328125 
Q 29.296875 6.6875 41.796875 6.6875 
Q 48.140625 6.6875 53.78125 8.984375 
Q 59.421875 11.28125 64.40625 15.921875 
L 64.40625 5.609375 
Q 59.234375 2.09375 53.4375 0.328125 
Q 47.65625 -1.421875 41.21875 -1.421875 
Q 24.65625 -1.421875 15.125 8.703125 
Q 5.609375 18.84375 5.609375 36.375 
Q 5.609375 53.953125 15.125 64.078125 
Q 24.65625 74.21875 41.21875 74.21875 
Q 47.75 74.21875 53.53125 72.484375 
Q 59.328125 70.75 64.40625 67.28125 
z
" id="DejaVuSans-67"/>
     </defs>
     <g transform="translate(62.986482 238.07825)scale(0.144 -0.144)">
      <use xlink:href="#DejaVuSans-80"/>
      <use x="60.287109" xlink:href="#DejaVuSans-114"/>
      <use x="101.369141" xlink:href="#DejaVuSans-111"/>
      <use x="162.550781" xlink:href="#DejaVuSans-116"/>
      <use x="201.759766" xlink:href="#DejaVuSans-101"/>
      <use x="263.283203" xlink:href="#DejaVuSans-111"/>
      <use x="324.464844" xlink:href="#DejaVuSans-109"/>
      <use x="421.876953" xlink:href="#DejaVuSans-105"/>
      <use x="449.660156" xlink:href="#DejaVuSans-99"/>
      <use x="504.640625" xlink:href="#DejaVuSans-115"/>
      <use x="556.740234" xlink:href="#DejaVuSans-32"/>
      <use x="588.527344" xlink:href="#DejaVuSans-109"/>
      <use x="685.939453" xlink:href="#DejaVuSans-101"/>
      <use x="747.462891" xlink:href="#DejaVuSans-97"/>
      <use x="808.742188" xlink:href="#DejaVuSans-110"/>
      <use x="872.121094" xlink:href="#DejaVuSans-32"/>
      <use x="903.908203" xlink:href="#DejaVuSans-70"/>
      <use x="961.427734" xlink:href="#DejaVuSans-67"/>
     </g>
    </g>
   </g>
   <g id="matplotlib.axis_2">
    <g id="ytick_1">
     <g id="line2d_4">
      <defs>
       <path d="M 0 0 
L -3.5 0 
" id="m9a1762293f" style="stroke:#000000;stroke-width:0.8;"/>
      </defs>
      <g>
       <use style="stroke:#000000;stroke-width:0.8;" x="66.175" xlink:href="#m9a1762293f" y="202.2"/>
      </g>
     </g>
     <g id="text_5">
      <!-- −20 -->
      <defs>
       <path d="M 19.1875 8.296875 
L 53.609375 8.296875 
L 53.609375 0 
L 7.328125 0 
L 7.328125 8.296875 
Q 12.9375 14.109375 22.625 23.890625 
Q 32.328125 33.6875 34.8125 36.53125 
Q 39.546875 41.84375 41.421875 45.53125 
Q 43.3125 49.21875 43.3125 52.78125 
Q 43.3125 58.59375 39.234375 62.25 
Q 35.15625 65.921875 28.609375 65.921875 
Q 23.96875 65.921875 18.8125 64.3125 
Q 13.671875 62.703125 7.8125 59.421875 
L 7.8125 69.390625 
Q 13.765625 71.78125 18.9375 73 
Q 24.125 74.21875 28.421875 74.21875 
Q 39.75 74.21875 46.484375 68.546875 
Q 53.21875 62.890625 53.21875 53.421875 
Q 53.21875 48.921875 51.53125 44.890625 
Q 49.859375 40.875 45.40625 35.40625 
Q 44.1875 33.984375 37.640625 27.21875 
Q 31.109375 20.453125 19.1875 8.296875 
z
" id="DejaVuSans-50"/>
      </defs>
      <g transform="translate(28.78425 207.670875)scale(0.144 -0.144)">
       <use xlink:href="#DejaVuSans-8722"/>
       <use x="83.789062" xlink:href="#DejaVuSans-50"/>
       <use x="147.412109" xlink:href="#DejaVuSans-48"/>
      </g>
     </g>
    </g>
    <g id="ytick_2">
     <g id="line2d_5">
      <g>
       <use style="stroke:#000000;stroke-width:0.8;" x="66.175" xlink:href="#m9a1762293f" y="163.277857"/>
      </g>
     </g>
     <g id="text_6">
      <!-- −10 -->
      <defs>
       <path d="M 12.40625 8.296875 
L 28.515625 8.296875 
L 28.515625 63.921875 
L 10.984375 60.40625 
L 10.984375 69.390625 
L 28.421875 72.90625 
L 38.28125 72.90625 
L 38.28125 8.296875 
L 54.390625 8.296875 
L 54.390625 0 
L 12.40625 0 
z
" id="DejaVuSans-49"/>
      </defs>
      <g transform="translate(28.78425 168.748732)scale(0.144 -0.144)">
       <use xlink:href="#DejaVuSans-8722"/>
       <use x="83.789062" xlink:href="#DejaVuSans-49"/>
       <use x="147.412109" xlink:href="#DejaVuSans-48"/>
      </g>
     </g>
    </g>
    <g id="ytick_3">
     <g id="line2d_6">
      <g>
       <use style="stroke:#000000;stroke-width:0.8;" x="66.175" xlink:href="#m9a1762293f" y="124.355714"/>
      </g>
     </g>
     <g id="text_7">
      <!-- 0 -->
      <g transform="translate(50.013 129.826589)scale(0.144 -0.144)">
       <use xlink:href="#DejaVuSans-48"/>
      </g>
     </g>
    </g>
    <g id="ytick_4">
     <g id="line2d_7">
      <g>
       <use style="stroke:#000000;stroke-width:0.8;" x="66.175" xlink:href="#m9a1762293f" y="85.433571"/>
      </g>
     </g>
     <g id="text_8">
      <!-- 10 -->
      <g transform="translate(40.851 90.904446)scale(0.144 -0.144)">
       <use xlink:href="#DejaVuSans-49"/>
       <use x="63.623047" xlink:href="#DejaVuSans-48"/>
      </g>
     </g>
    </g>
    <g id="ytick_5">
     <g id="line2d_8">
      <g>
       <use style="stroke:#000000;stroke-width:0.8;" x="66.175" xlink:href="#m9a1762293f" y="46.511429"/>
      </g>
     </g>
     <g id="text_9">
      <!-- 20 -->
      <g transform="translate(40.851 51.982304)scale(0.144 -0.144)">
       <use xlink:href="#DejaVuSans-50"/>
       <use x="63.623047" xlink:href="#DejaVuSans-48"/>
      </g>
     </g>
    </g>
    <g id="text_10">
     <!-- Simulated flux (FVA) FC -->
     <defs>
      <path d="M 53.515625 70.515625 
L 53.515625 60.890625 
Q 47.90625 63.578125 42.921875 64.890625 
Q 37.9375 66.21875 33.296875 66.21875 
Q 25.25 66.21875 20.875 63.09375 
Q 16.5 59.96875 16.5 54.203125 
Q 16.5 49.359375 19.40625 46.890625 
Q 22.3125 44.4375 30.421875 42.921875 
L 36.375 41.703125 
Q 47.40625 39.59375 52.65625 34.296875 
Q 57.90625 29 57.90625 20.125 
Q 57.90625 9.515625 50.796875 4.046875 
Q 43.703125 -1.421875 29.984375 -1.421875 
Q 24.8125 -1.421875 18.96875 -0.25 
Q 13.140625 0.921875 6.890625 3.21875 
L 6.890625 13.375 
Q 12.890625 10.015625 18.65625 8.296875 
Q 24.421875 6.59375 29.984375 6.59375 
Q 38.421875 6.59375 43.015625 9.90625 
Q 47.609375 13.234375 47.609375 19.390625 
Q 47.609375 24.75 44.3125 27.78125 
Q 41.015625 30.8125 33.5 32.328125 
L 27.484375 33.5 
Q 16.453125 35.6875 11.515625 40.375 
Q 6.59375 45.0625 6.59375 53.421875 
Q 6.59375 63.09375 13.40625 68.65625 
Q 20.21875 74.21875 32.171875 74.21875 
Q 37.3125 74.21875 42.625 73.28125 
Q 47.953125 72.359375 53.515625 70.515625 
z
" id="DejaVuSans-83"/>
      <path d="M 8.5 21.578125 
L 8.5 54.6875 
L 17.484375 54.6875 
L 17.484375 21.921875 
Q 17.484375 14.15625 20.5 10.265625 
Q 23.53125 6.390625 29.59375 6.390625 
Q 36.859375 6.390625 41.078125 11.03125 
Q 45.3125 15.671875 45.3125 23.6875 
L 45.3125 54.6875 
L 54.296875 54.6875 
L 54.296875 0 
L 45.3125 0 
L 45.3125 8.40625 
Q 42.046875 3.421875 37.71875 1 
Q 33.40625 -1.421875 27.6875 -1.421875 
Q 18.265625 -1.421875 13.375 4.4375 
Q 8.5 10.296875 8.5 21.578125 
z
M 31.109375 56 
z
" id="DejaVuSans-117"/>
      <path d="M 9.421875 75.984375 
L 18.40625 75.984375 
L 18.40625 0 
L 9.421875 0 
z
" id="DejaVuSans-108"/>
      <path d="M 45.40625 46.390625 
L 45.40625 75.984375 
L 54.390625 75.984375 
L 54.390625 0 
L 45.40625 0 
L 45.40625 8.203125 
Q 42.578125 3.328125 38.25 0.953125 
Q 33.9375 -1.421875 27.875 -1.421875 
Q 17.96875 -1.421875 11.734375 6.484375 
Q 5.515625 14.40625 5.515625 27.296875 
Q 5.515625 40.1875 11.734375 48.09375 
Q 17.96875 56 27.875 56 
Q 33.9375 56 38.25 53.625 
Q 42.578125 51.265625 45.40625 46.390625 
z
M 14.796875 27.296875 
Q 14.796875 17.390625 18.875 11.75 
Q 22.953125 6.109375 30.078125 6.109375 
Q 37.203125 6.109375 41.296875 11.75 
Q 45.40625 17.390625 45.40625 27.296875 
Q 45.40625 37.203125 41.296875 42.84375 
Q 37.203125 48.484375 30.078125 48.484375 
Q 22.953125 48.484375 18.875 42.84375 
Q 14.796875 37.203125 14.796875 27.296875 
z
" id="DejaVuSans-100"/>
      <path d="M 37.109375 75.984375 
L 37.109375 68.5 
L 28.515625 68.5 
Q 23.6875 68.5 21.796875 66.546875 
Q 19.921875 64.59375 19.921875 59.515625 
L 19.921875 54.6875 
L 34.71875 54.6875 
L 34.71875 47.703125 
L 19.921875 47.703125 
L 19.921875 0 
L 10.890625 0 
L 10.890625 47.703125 
L 2.296875 47.703125 
L 2.296875 54.6875 
L 10.890625 54.6875 
L 10.890625 58.5 
Q 10.890625 67.625 15.140625 71.796875 
Q 19.390625 75.984375 28.609375 75.984375 
z
" id="DejaVuSans-102"/>
      <path d="M 54.890625 54.6875 
L 35.109375 28.078125 
L 55.90625 0 
L 45.3125 0 
L 29.390625 21.484375 
L 13.484375 0 
L 2.875 0 
L 24.125 28.609375 
L 4.6875 54.6875 
L 15.28125 54.6875 
L 29.78125 35.203125 
L 44.28125 54.6875 
z
" id="DejaVuSans-120"/>
      <path d="M 31 75.875 
Q 24.46875 64.65625 21.28125 53.65625 
Q 18.109375 42.671875 18.109375 31.390625 
Q 18.109375 20.125 21.3125 9.0625 
Q 24.515625 -2 31 -13.1875 
L 23.1875 -13.1875 
Q 15.875 -1.703125 12.234375 9.375 
Q 8.59375 20.453125 8.59375 31.390625 
Q 8.59375 42.28125 12.203125 53.3125 
Q 15.828125 64.359375 23.1875 75.875 
z
" id="DejaVuSans-40"/>
      <path d="M 28.609375 0 
L 0.78125 72.90625 
L 11.078125 72.90625 
L 34.1875 11.53125 
L 57.328125 72.90625 
L 67.578125 72.90625 
L 39.796875 0 
z
" id="DejaVuSans-86"/>
      <path d="M 34.1875 63.1875 
L 20.796875 26.90625 
L 47.609375 26.90625 
z
M 28.609375 72.90625 
L 39.796875 72.90625 
L 67.578125 0 
L 57.328125 0 
L 50.6875 18.703125 
L 17.828125 18.703125 
L 11.1875 0 
L 0.78125 0 
z
" id="DejaVuSans-65"/>
      <path d="M 8.015625 75.875 
L 15.828125 75.875 
Q 23.140625 64.359375 26.78125 53.3125 
Q 30.421875 42.28125 30.421875 31.390625 
Q 30.421875 20.453125 26.78125 9.375 
Q 23.140625 -1.703125 15.828125 -13.1875 
L 8.015625 -13.1875 
Q 14.5 -2 17.703125 9.0625 
Q 20.90625 20.125 20.90625 31.390625 
Q 20.90625 42.671875 17.703125 53.65625 
Q 14.5 64.65625 8.015625 75.875 
z
" id="DejaVuSans-41"/>
     </defs>
     <g transform="translate(21.7895 209.735339)rotate(-90)scale(0.144 -0.144)">
      <use xlink:href="#DejaVuSans-83"/>
      <use x="63.476562" xlink:href="#DejaVuSans-105"/>
      <use x="91.259766" xlink:href="#DejaVuSans-109"/>
      <use x="188.671875" xlink:href="#DejaVuSans-117"/>
      <use x="252.050781" xlink:href="#DejaVuSans-108"/>
      <use x="279.833984" xlink:href="#DejaVuSans-97"/>
      <use x="341.113281" xlink:href="#DejaVuSans-116"/>
      <use x="380.322266" xlink:href="#DejaVuSans-101"/>
      <use x="441.845703" xlink:href="#DejaVuSans-100"/>
      <use x="505.322266" xlink:href="#DejaVuSans-32"/>
      <use x="537.109375" xlink:href="#DejaVuSans-102"/>
      <use x="572.314453" xlink:href="#DejaVuSans-108"/>
      <use x="600.097656" xlink:href="#DejaVuSans-117"/>
      <use x="663.476562" xlink:href="#DejaVuSans-120"/>
      <use x="722.65625" xlink:href="#DejaVuSans-32"/>
      <use x="754.443359" xlink:href="#DejaVuSans-40"/>
      <use x="793.457031" xlink:href="#DejaVuSans-70"/>
      <use x="850.976562" xlink:href="#DejaVuSans-86"/>
      <use x="919.291016" xlink:href="#DejaVuSans-65"/>
      <use x="987.699219" xlink:href="#DejaVuSans-41"/>
      <use x="1026.712891" xlink:href="#DejaVuSans-32"/>
      <use x="1058.5" xlink:href="#DejaVuSans-70"/>
      <use x="1116.019531" xlink:href="#DejaVuSans-67"/>
     </g>
    </g>
   </g>
   <g id="line2d_9">
    <path clip-path="url(#pcd41272eca)" d="M 66.175 131.2953 
L 67.610563 131.155413 
L 69.046126 131.015525 
L 70.481688 130.875638 
L 71.917251 130.73575 
L 73.352814 130.595862 
L 74.788377 130.455975 
L 76.223939 130.316087 
L 77.659502 130.1762 
L 79.095065 130.036312 
L 80.530628 129.896425 
L 81.96619 129.756537 
L 83.401753 129.616649 
L 84.837316 129.476762 
L 86.272879 129.336874 
L 87.708442 129.196987 
L 89.144004 129.057099 
L 90.579567 128.917212 
L 92.01513 128.777324 
L 93.450693 128.637437 
L 94.886255 128.497549 
L 96.321818 128.357661 
L 97.757381 128.217774 
L 99.192944 128.077886 
L 100.628506 127.937999 
L 102.064069 127.798111 
L 103.499632 127.658224 
L 104.935195 127.518336 
L 106.370758 127.378448 
L 107.80632 127.238561 
L 109.241883 127.098673 
L 110.677446 126.958786 
L 112.113009 126.818898 
L 113.548571 126.679011 
L 114.984134 126.539123 
L 116.419697 126.399236 
L 117.85526 126.259348 
L 119.290823 126.11946 
L 120.726385 125.979573 
L 122.161948 125.839685 
L 123.597511 125.699798 
L 125.033074 125.55991 
L 126.468636 125.420023 
L 127.904199 125.280135 
L 129.339762 125.140247 
L 130.775325 125.00036 
L 132.210887 124.860472 
L 133.64645 124.720585 
L 135.082013 124.580697 
L 136.517576 124.44081 
L 137.953139 124.300922 
L 139.388701 124.161035 
L 140.824264 124.021147 
L 142.259827 123.881259 
L 143.69539 123.741372 
L 145.130952 123.601484 
L 146.566515 123.461597 
L 148.002078 123.321709 
L 149.437641 123.181822 
L 150.873203 123.041934 
L 152.308766 122.902046 
L 153.744329 122.762159 
L 155.179892 122.622271 
L 156.615455 122.482384 
L 158.051017 122.342496 
L 159.48658 122.202609 
L 160.922143 122.062721 
L 162.357706 121.922834 
L 163.793268 121.782946 
L 165.228831 121.643058 
L 166.664394 121.503171 
L 168.099957 121.363283 
L 169.535519 121.223396 
L 170.971082 121.083508 
L 172.406645 120.943621 
L 173.842208 120.803733 
L 175.277771 120.663845 
L 176.713333 120.523958 
L 178.148896 120.38407 
L 179.584459 120.244183 
L 181.020022 120.104295 
L 182.455584 119.964408 
L 183.891147 119.82452 
L 185.32671 119.684633 
L 186.762273 119.544745 
L 188.197835 119.404857 
L 189.633398 119.26497 
L 191.068961 119.125082 
L 192.504524 118.985195 
L 193.940087 118.845307 
L 195.375649 118.70542 
L 196.811212 118.565532 
L 198.246775 118.425644 
L 199.682338 118.285757 
L 201.1179 118.145869 
L 202.553463 118.005982 
L 203.989026 117.866094 
L 205.424589 117.726207 
L 206.860152 117.586319 
L 208.295714 117.446432 
" style="fill:none;stroke:#1f77b4;stroke-linecap:square;stroke-width:2.25;"/>
   </g>
   <g id="patch_3">
    <path d="M 66.175 202.2 
L 66.175 46.511429 
" style="fill:none;stroke:#000000;stroke-linecap:square;stroke-linejoin:miter;stroke-width:0.8;"/>
   </g>
   <g id="patch_4">
    <path d="M 66.175 202.2 
L 208.295714 202.2 
" style="fill:none;stroke:#000000;stroke-linecap:square;stroke-linejoin:miter;stroke-width:0.8;"/>
   </g>
  </g>
  <g id="axes_2">
   <g id="patch_5">
    <path d="M 66.175 41.142857 
L 208.295714 41.142857 
L 208.295714 14.3 
L 66.175 14.3 
z
" style="fill:#ffffff;"/>
   </g>
   <g id="patch_6">
    <path clip-path="url(#p72c4d2e70b)" d="M 71.859829 41.142857 
L 77.189355 41.142857 
L 77.189355 40.120272 
L 71.859829 40.120272 
z
" style="fill:#1f77b4;opacity:0.4;"/>
   </g>
   <g id="patch_7">
    <path clip-path="url(#p72c4d2e70b)" d="M 77.189355 41.142857 
L 82.518882 41.142857 
L 82.518882 41.142857 
L 77.189355 41.142857 
z
" style="fill:#1f77b4;opacity:0.4;"/>
   </g>
   <g id="patch_8">
    <path clip-path="url(#p72c4d2e70b)" d="M 82.518882 41.142857 
L 87.848409 41.142857 
L 87.848409 41.142857 
L 82.518882 41.142857 
z
" style="fill:#1f77b4;opacity:0.4;"/>
   </g>
   <g id="patch_9">
    <path clip-path="url(#p72c4d2e70b)" d="M 87.848409 41.142857 
L 93.177936 41.142857 
L 93.177936 41.142857 
L 87.848409 41.142857 
z
" style="fill:#1f77b4;opacity:0.4;"/>
   </g>
   <g id="patch_10">
    <path clip-path="url(#p72c4d2e70b)" d="M 93.177936 41.142857 
L 98.507462 41.142857 
L 98.507462 41.142857 
L 93.177936 41.142857 
z
" style="fill:#1f77b4;opacity:0.4;"/>
   </g>
   <g id="patch_11">
    <path clip-path="url(#p72c4d2e70b)" d="M 98.507462 41.142857 
L 103.836989 41.142857 
L 103.836989 41.142857 
L 98.507462 41.142857 
z
" style="fill:#1f77b4;opacity:0.4;"/>
   </g>
   <g id="patch_12">
    <path clip-path="url(#p72c4d2e70b)" d="M 103.836989 41.142857 
L 109.166516 41.142857 
L 109.166516 40.120272 
L 103.836989 40.120272 
z
" style="fill:#1f77b4;opacity:0.4;"/>
   </g>
   <g id="patch_13">
    <path clip-path="url(#p72c4d2e70b)" d="M 109.166516 41.142857 
L 114.496043 41.142857 
L 114.496043 39.097687 
L 109.166516 39.097687 
z
" style="fill:#1f77b4;opacity:0.4;"/>
   </g>
   <g id="patch_14">
    <path clip-path="url(#p72c4d2e70b)" d="M 114.496043 41.142857 
L 119.82557 41.142857 
L 119.82557 38.075102 
L 114.496043 38.075102 
z
" style="fill:#1f77b4;opacity:0.4;"/>
   </g>
   <g id="patch_15">
    <path clip-path="url(#p72c4d2e70b)" d="M 119.82557 41.142857 
L 125.155096 41.142857 
L 125.155096 29.894422 
L 119.82557 29.894422 
z
" style="fill:#1f77b4;opacity:0.4;"/>
   </g>
   <g id="patch_16">
    <path clip-path="url(#p72c4d2e70b)" d="M 125.155096 41.142857 
L 130.484623 41.142857 
L 130.484623 23.758912 
L 125.155096 23.758912 
z
" style="fill:#1f77b4;opacity:0.4;"/>
   </g>
   <g id="patch_17">
    <path clip-path="url(#p72c4d2e70b)" d="M 130.484623 41.142857 
L 135.81415 41.142857 
L 135.81415 15.578231 
L 130.484623 15.578231 
z
" style="fill:#1f77b4;opacity:0.4;"/>
   </g>
   <g id="patch_18">
    <path clip-path="url(#p72c4d2e70b)" d="M 135.81415 41.142857 
L 141.143677 41.142857 
L 141.143677 36.029932 
L 135.81415 36.029932 
z
" style="fill:#1f77b4;opacity:0.4;"/>
   </g>
   <g id="patch_19">
    <path clip-path="url(#p72c4d2e70b)" d="M 141.143677 41.142857 
L 146.473204 41.142857 
L 146.473204 39.097687 
L 141.143677 39.097687 
z
" style="fill:#1f77b4;opacity:0.4;"/>
   </g>
   <g id="patch_20">
    <path clip-path="url(#p72c4d2e70b)" d="M 146.473204 41.142857 
L 151.80273 41.142857 
L 151.80273 39.097687 
L 146.473204 39.097687 
z
" style="fill:#1f77b4;opacity:0.4;"/>
   </g>
   <g id="patch_21">
    <path clip-path="url(#p72c4d2e70b)" d="M 151.80273 41.142857 
L 157.132257 41.142857 
L 157.132257 40.120272 
L 151.80273 40.120272 
z
" style="fill:#1f77b4;opacity:0.4;"/>
   </g>
   <g id="matplotlib.axis_3">
    <g id="xtick_4">
     <g id="line2d_10">
      <g>
       <use style="stroke:#000000;stroke-width:0.8;" x="66.175" xlink:href="#m6ad3da33b2" y="41.142857"/>
      </g>
     </g>
    </g>
    <g id="xtick_5">
     <g id="line2d_11">
      <g>
       <use style="stroke:#000000;stroke-width:0.8;" x="137.235357" xlink:href="#m6ad3da33b2" y="41.142857"/>
      </g>
     </g>
    </g>
    <g id="xtick_6">
     <g id="line2d_12">
      <g>
       <use style="stroke:#000000;stroke-width:0.8;" x="208.295714" xlink:href="#m6ad3da33b2" y="41.142857"/>
      </g>
     </g>
    </g>
   </g>
   <g id="matplotlib.axis_4">
    <g id="ytick_6"/>
    <g id="ytick_7"/>
   </g>
   <g id="line2d_13">
    <path clip-path="url(#p72c4d2e70b)" d="M 57.720608 41.137431 
L 58.867587 41.132035 
L 60.014565 41.122494 
L 61.161544 41.106716 
L 62.308522 41.082351 
L 63.455501 41.047302 
L 64.602479 41.00051 
L 65.749458 40.942828 
L 66.896436 40.877712 
L 68.043414 40.811329 
L 69.190393 40.751832 
L 70.337371 40.707812 
L 71.48435 40.686283 
L 72.631328 40.690862 
L 73.778307 40.720769 
L 74.925285 40.771048 
L 76.072264 40.833911 
L 77.219242 40.900703 
L 78.366221 40.963818 
L 79.513199 41.01799 
L 80.660178 41.060709 
L 81.807156 41.091878 
L 82.954135 41.113014 
L 84.101113 41.126376 
L 85.248092 41.134265 
L 86.39507 41.138613 
L 87.542049 41.140827 
L 88.689027 41.1418 
L 89.836006 41.141989 
L 90.982984 41.141482 
L 92.129963 41.139997 
L 93.276941 41.136803 
L 94.423919 41.130568 
L 95.570898 41.119164 
L 96.717876 41.0995 
L 97.864855 41.067479 
L 99.011833 41.018183 
L 100.158812 40.946355 
L 101.30579 40.847156 
L 102.452769 40.717074 
L 103.599747 40.554719 
L 104.746726 40.361237 
L 105.893704 40.14006 
L 107.040683 39.895898 
L 108.187661 39.633021 
L 109.33464 39.353108 
L 110.481618 39.053075 
L 111.628597 38.723345 
L 112.775575 38.34707 
L 113.922554 37.900717 
L 115.069532 37.356329 
L 116.216511 36.685622 
L 117.363489 35.86568 
L 118.510468 34.885528 
L 119.657446 33.752079 
L 120.804424 32.493506 
L 121.951403 31.158169 
L 123.098381 29.808391 
L 124.24536 28.510356 
L 125.392338 27.323335 
L 126.539317 26.292285 
L 127.686295 25.446752 
L 128.833274 24.806242 
L 129.980252 24.389001 
L 131.127231 24.219232 
L 132.274209 24.328248 
L 133.421188 24.747764 
L 134.568166 25.497308 
L 135.715145 26.570629 
L 136.862123 27.926791 
L 138.009102 29.489962 
L 139.15608 31.15867 
L 140.303059 32.821872 
L 141.450037 34.377103 
L 142.597016 35.745724 
L 143.743994 36.881834 
L 144.890973 37.773672 
L 146.037951 38.438536 
L 147.184929 38.913539 
L 148.331908 39.244962 
L 149.478886 39.478638 
L 150.625865 39.653078 
L 151.772843 39.796133 
L 152.919822 39.92497 
L 154.0668 40.048357 
L 155.213779 40.1698 
L 156.360757 40.290203 
L 157.507736 40.409363 
L 158.654714 40.526328 
L 159.801693 40.639234 
L 160.948671 40.745264 
L 162.09565 40.841083 
L 163.242628 40.923646 
L 164.389607 40.991026 
L 165.536585 41.042876 
L 166.683564 41.080401 
L 167.830542 41.105906 
L 168.977521 41.122177 
L 170.124499 41.131917 
L 171.271478 41.13739 
" style="fill:none;stroke:#1f77b4;stroke-linecap:square;stroke-width:1.5;"/>
   </g>
   <g id="patch_22">
    <path d="M 66.175 41.142857 
L 208.295714 41.142857 
" style="fill:none;stroke:#000000;stroke-linecap:square;stroke-linejoin:miter;stroke-width:0.8;"/>
   </g>
  </g>
  <g id="axes_3">
   <g id="patch_23">
    <path d="M 213.196429 202.2 
L 237.7 202.2 
L 237.7 46.511429 
L 213.196429 46.511429 
z
" style="fill:#ffffff;"/>
   </g>
   <g id="patch_24">
    <path clip-path="url(#p0631b3b0bf)" d="M 213.196429 176.900607 
L 214.060752 176.900607 
L 214.060752 174.88444 
L 213.196429 174.88444 
z
" style="fill:#1f77b4;opacity:0.4;"/>
   </g>
   <g id="patch_25">
    <path clip-path="url(#p0631b3b0bf)" d="M 213.196429 174.88444 
L 214.925076 174.88444 
L 214.925076 172.868273 
L 213.196429 172.868273 
z
" style="fill:#1f77b4;opacity:0.4;"/>
   </g>
   <g id="patch_26">
    <path clip-path="url(#p0631b3b0bf)" d="M 213.196429 172.868273 
L 213.196429 172.868273 
L 213.196429 170.852106 
L 213.196429 170.852106 
z
" style="fill:#1f77b4;opacity:0.4;"/>
   </g>
   <g id="patch_27">
    <path clip-path="url(#p0631b3b0bf)" d="M 213.196429 170.852106 
L 213.196429 170.852106 
L 213.196429 168.835939 
L 213.196429 168.835939 
z
" style="fill:#1f77b4;opacity:0.4;"/>
   </g>
   <g id="patch_28">
    <path clip-path="url(#p0631b3b0bf)" d="M 213.196429 168.835939 
L 213.196429 168.835939 
L 213.196429 166.819772 
L 213.196429 166.819772 
z
" style="fill:#1f77b4;opacity:0.4;"/>
   </g>
   <g id="patch_29">
    <path clip-path="url(#p0631b3b0bf)" d="M 213.196429 166.819772 
L 213.196429 166.819772 
L 213.196429 164.803605 
L 213.196429 164.803605 
z
" style="fill:#1f77b4;opacity:0.4;"/>
   </g>
   <g id="patch_30">
    <path clip-path="url(#p0631b3b0bf)" d="M 213.196429 164.803605 
L 213.196429 164.803605 
L 213.196429 162.787438 
L 213.196429 162.787438 
z
" style="fill:#1f77b4;opacity:0.4;"/>
   </g>
   <g id="patch_31">
    <path clip-path="url(#p0631b3b0bf)" d="M 213.196429 162.787438 
L 213.196429 162.787438 
L 213.196429 160.771271 
L 213.196429 160.771271 
z
" style="fill:#1f77b4;opacity:0.4;"/>
   </g>
   <g id="patch_32">
    <path clip-path="url(#p0631b3b0bf)" d="M 213.196429 160.771271 
L 213.196429 160.771271 
L 213.196429 158.755104 
L 213.196429 158.755104 
z
" style="fill:#1f77b4;opacity:0.4;"/>
   </g>
   <g id="patch_33">
    <path clip-path="url(#p0631b3b0bf)" d="M 213.196429 158.755104 
L 213.196429 158.755104 
L 213.196429 156.738937 
L 213.196429 156.738937 
z
" style="fill:#1f77b4;opacity:0.4;"/>
   </g>
   <g id="patch_34">
    <path clip-path="url(#p0631b3b0bf)" d="M 213.196429 156.738937 
L 213.196429 156.738937 
L 213.196429 154.72277 
L 213.196429 154.72277 
z
" style="fill:#1f77b4;opacity:0.4;"/>
   </g>
   <g id="patch_35">
    <path clip-path="url(#p0631b3b0bf)" d="M 213.196429 154.72277 
L 213.196429 154.72277 
L 213.196429 152.706603 
L 213.196429 152.706603 
z
" style="fill:#1f77b4;opacity:0.4;"/>
   </g>
   <g id="patch_36">
    <path clip-path="url(#p0631b3b0bf)" d="M 213.196429 152.706603 
L 213.196429 152.706603 
L 213.196429 150.690436 
L 213.196429 150.690436 
z
" style="fill:#1f77b4;opacity:0.4;"/>
   </g>
   <g id="patch_37">
    <path clip-path="url(#p0631b3b0bf)" d="M 213.196429 150.690436 
L 213.196429 150.690436 
L 213.196429 148.674269 
L 213.196429 148.674269 
z
" style="fill:#1f77b4;opacity:0.4;"/>
   </g>
   <g id="patch_38">
    <path clip-path="url(#p0631b3b0bf)" d="M 213.196429 148.674269 
L 213.196429 148.674269 
L 213.196429 146.658102 
L 213.196429 146.658102 
z
" style="fill:#1f77b4;opacity:0.4;"/>
   </g>
   <g id="patch_39">
    <path clip-path="url(#p0631b3b0bf)" d="M 213.196429 146.658102 
L 213.196429 146.658102 
L 213.196429 144.641935 
L 213.196429 144.641935 
z
" style="fill:#1f77b4;opacity:0.4;"/>
   </g>
   <g id="patch_40">
    <path clip-path="url(#p0631b3b0bf)" d="M 213.196429 144.641935 
L 213.196429 144.641935 
L 213.196429 142.625768 
L 213.196429 142.625768 
z
" style="fill:#1f77b4;opacity:0.4;"/>
   </g>
   <g id="patch_41">
    <path clip-path="url(#p0631b3b0bf)" d="M 213.196429 142.625768 
L 213.196429 142.625768 
L 213.196429 140.609601 
L 213.196429 140.609601 
z
" style="fill:#1f77b4;opacity:0.4;"/>
   </g>
   <g id="patch_42">
    <path clip-path="url(#p0631b3b0bf)" d="M 213.196429 140.609601 
L 213.196429 140.609601 
L 213.196429 138.593434 
L 213.196429 138.593434 
z
" style="fill:#1f77b4;opacity:0.4;"/>
   </g>
   <g id="patch_43">
    <path clip-path="url(#p0631b3b0bf)" d="M 213.196429 138.593434 
L 213.196429 138.593434 
L 213.196429 136.577267 
L 213.196429 136.577267 
z
" style="fill:#1f77b4;opacity:0.4;"/>
   </g>
   <g id="patch_44">
    <path clip-path="url(#p0631b3b0bf)" d="M 213.196429 136.577267 
L 213.196429 136.577267 
L 213.196429 134.5611 
L 213.196429 134.5611 
z
" style="fill:#1f77b4;opacity:0.4;"/>
   </g>
   <g id="patch_45">
    <path clip-path="url(#p0631b3b0bf)" d="M 213.196429 134.5611 
L 213.196429 134.5611 
L 213.196429 132.544933 
L 213.196429 132.544933 
z
" style="fill:#1f77b4;opacity:0.4;"/>
   </g>
   <g id="patch_46">
    <path clip-path="url(#p0631b3b0bf)" d="M 213.196429 132.544933 
L 213.196429 132.544933 
L 213.196429 130.528766 
L 213.196429 130.528766 
z
" style="fill:#1f77b4;opacity:0.4;"/>
   </g>
   <g id="patch_47">
    <path clip-path="url(#p0631b3b0bf)" d="M 213.196429 130.528766 
L 214.925076 130.528766 
L 214.925076 128.512599 
L 213.196429 128.512599 
z
" style="fill:#1f77b4;opacity:0.4;"/>
   </g>
   <g id="patch_48">
    <path clip-path="url(#p0631b3b0bf)" d="M 213.196429 128.512599 
L 213.196429 128.512599 
L 213.196429 126.496432 
L 213.196429 126.496432 
z
" style="fill:#1f77b4;opacity:0.4;"/>
   </g>
   <g id="patch_49">
    <path clip-path="url(#p0631b3b0bf)" d="M 213.196429 126.496432 
L 236.533163 126.496432 
L 236.533163 124.480265 
L 213.196429 124.480265 
z
" style="fill:#1f77b4;opacity:0.4;"/>
   </g>
   <g id="patch_50">
    <path clip-path="url(#p0631b3b0bf)" d="M 213.196429 124.480265 
L 225.296958 124.480265 
L 225.296958 122.464098 
L 213.196429 122.464098 
z
" style="fill:#1f77b4;opacity:0.4;"/>
   </g>
   <g id="patch_51">
    <path clip-path="url(#p0631b3b0bf)" d="M 213.196429 122.464098 
L 231.347222 122.464098 
L 231.347222 120.447931 
L 213.196429 120.447931 
z
" style="fill:#1f77b4;opacity:0.4;"/>
   </g>
   <g id="patch_52">
    <path clip-path="url(#p0631b3b0bf)" d="M 213.196429 120.447931 
L 214.060752 120.447931 
L 214.060752 118.431764 
L 213.196429 118.431764 
z
" style="fill:#1f77b4;opacity:0.4;"/>
   </g>
   <g id="patch_53">
    <path clip-path="url(#p0631b3b0bf)" d="M 213.196429 118.431764 
L 213.196429 118.431764 
L 213.196429 116.415597 
L 213.196429 116.415597 
z
" style="fill:#1f77b4;opacity:0.4;"/>
   </g>
   <g id="patch_54">
    <path clip-path="url(#p0631b3b0bf)" d="M 213.196429 116.415597 
L 214.060752 116.415597 
L 214.060752 114.39943 
L 213.196429 114.39943 
z
" style="fill:#1f77b4;opacity:0.4;"/>
   </g>
   <g id="patch_55">
    <path clip-path="url(#p0631b3b0bf)" d="M 213.196429 114.39943 
L 213.196429 114.39943 
L 213.196429 112.383263 
L 213.196429 112.383263 
z
" style="fill:#1f77b4;opacity:0.4;"/>
   </g>
   <g id="patch_56">
    <path clip-path="url(#p0631b3b0bf)" d="M 213.196429 112.383263 
L 213.196429 112.383263 
L 213.196429 110.367096 
L 213.196429 110.367096 
z
" style="fill:#1f77b4;opacity:0.4;"/>
   </g>
   <g id="patch_57">
    <path clip-path="url(#p0631b3b0bf)" d="M 213.196429 110.367096 
L 213.196429 110.367096 
L 213.196429 108.350929 
L 213.196429 108.350929 
z
" style="fill:#1f77b4;opacity:0.4;"/>
   </g>
   <g id="patch_58">
    <path clip-path="url(#p0631b3b0bf)" d="M 213.196429 108.350929 
L 213.196429 108.350929 
L 213.196429 106.334762 
L 213.196429 106.334762 
z
" style="fill:#1f77b4;opacity:0.4;"/>
   </g>
   <g id="patch_59">
    <path clip-path="url(#p0631b3b0bf)" d="M 213.196429 106.334762 
L 213.196429 106.334762 
L 213.196429 104.318595 
L 213.196429 104.318595 
z
" style="fill:#1f77b4;opacity:0.4;"/>
   </g>
   <g id="patch_60">
    <path clip-path="url(#p0631b3b0bf)" d="M 213.196429 104.318595 
L 213.196429 104.318595 
L 213.196429 102.302428 
L 213.196429 102.302428 
z
" style="fill:#1f77b4;opacity:0.4;"/>
   </g>
   <g id="patch_61">
    <path clip-path="url(#p0631b3b0bf)" d="M 213.196429 102.302428 
L 213.196429 102.302428 
L 213.196429 100.286261 
L 213.196429 100.286261 
z
" style="fill:#1f77b4;opacity:0.4;"/>
   </g>
   <g id="patch_62">
    <path clip-path="url(#p0631b3b0bf)" d="M 213.196429 100.286261 
L 213.196429 100.286261 
L 213.196429 98.270094 
L 213.196429 98.270094 
z
" style="fill:#1f77b4;opacity:0.4;"/>
   </g>
   <g id="patch_63">
    <path clip-path="url(#p0631b3b0bf)" d="M 213.196429 98.270094 
L 213.196429 98.270094 
L 213.196429 96.253927 
L 213.196429 96.253927 
z
" style="fill:#1f77b4;opacity:0.4;"/>
   </g>
   <g id="patch_64">
    <path clip-path="url(#p0631b3b0bf)" d="M 213.196429 96.253927 
L 213.196429 96.253927 
L 213.196429 94.23776 
L 213.196429 94.23776 
z
" style="fill:#1f77b4;opacity:0.4;"/>
   </g>
   <g id="patch_65">
    <path clip-path="url(#p0631b3b0bf)" d="M 213.196429 94.23776 
L 213.196429 94.23776 
L 213.196429 92.221593 
L 213.196429 92.221593 
z
" style="fill:#1f77b4;opacity:0.4;"/>
   </g>
   <g id="patch_66">
    <path clip-path="url(#p0631b3b0bf)" d="M 213.196429 92.221593 
L 213.196429 92.221593 
L 213.196429 90.205426 
L 213.196429 90.205426 
z
" style="fill:#1f77b4;opacity:0.4;"/>
   </g>
   <g id="patch_67">
    <path clip-path="url(#p0631b3b0bf)" d="M 213.196429 90.205426 
L 213.196429 90.205426 
L 213.196429 88.189259 
L 213.196429 88.189259 
z
" style="fill:#1f77b4;opacity:0.4;"/>
   </g>
   <g id="patch_68">
    <path clip-path="url(#p0631b3b0bf)" d="M 213.196429 88.189259 
L 213.196429 88.189259 
L 213.196429 86.173092 
L 213.196429 86.173092 
z
" style="fill:#1f77b4;opacity:0.4;"/>
   </g>
   <g id="patch_69">
    <path clip-path="url(#p0631b3b0bf)" d="M 213.196429 86.173092 
L 213.196429 86.173092 
L 213.196429 84.156925 
L 213.196429 84.156925 
z
" style="fill:#1f77b4;opacity:0.4;"/>
   </g>
   <g id="patch_70">
    <path clip-path="url(#p0631b3b0bf)" d="M 213.196429 84.156925 
L 213.196429 84.156925 
L 213.196429 82.140758 
L 213.196429 82.140758 
z
" style="fill:#1f77b4;opacity:0.4;"/>
   </g>
   <g id="patch_71">
    <path clip-path="url(#p0631b3b0bf)" d="M 213.196429 82.140758 
L 213.196429 82.140758 
L 213.196429 80.124591 
L 213.196429 80.124591 
z
" style="fill:#1f77b4;opacity:0.4;"/>
   </g>
   <g id="patch_72">
    <path clip-path="url(#p0631b3b0bf)" d="M 213.196429 80.124591 
L 213.196429 80.124591 
L 213.196429 78.108424 
L 213.196429 78.108424 
z
" style="fill:#1f77b4;opacity:0.4;"/>
   </g>
   <g id="patch_73">
    <path clip-path="url(#p0631b3b0bf)" d="M 213.196429 78.108424 
L 214.060752 78.108424 
L 214.060752 76.092257 
L 213.196429 76.092257 
z
" style="fill:#1f77b4;opacity:0.4;"/>
   </g>
   <g id="matplotlib.axis_5">
    <g id="xtick_7"/>
    <g id="xtick_8"/>
   </g>
   <g id="matplotlib.axis_6">
    <g id="ytick_8">
     <g id="line2d_14">
      <g>
       <use style="stroke:#000000;stroke-width:0.8;" x="213.196429" xlink:href="#m9a1762293f" y="202.2"/>
      </g>
     </g>
    </g>
    <g id="ytick_9">
     <g id="line2d_15">
      <g>
       <use style="stroke:#000000;stroke-width:0.8;" x="213.196429" xlink:href="#m9a1762293f" y="163.277857"/>
      </g>
     </g>
    </g>
    <g id="ytick_10">
     <g id="line2d_16">
      <g>
       <use style="stroke:#000000;stroke-width:0.8;" x="213.196429" xlink:href="#m9a1762293f" y="124.355714"/>
      </g>
     </g>
    </g>
    <g id="ytick_11">
     <g id="line2d_17">
      <g>
       <use style="stroke:#000000;stroke-width:0.8;" x="213.196429" xlink:href="#m9a1762293f" y="85.433571"/>
      </g>
     </g>
    </g>
    <g id="ytick_12">
     <g id="line2d_18">
      <g>
       <use style="stroke:#000000;stroke-width:0.8;" x="213.196429" xlink:href="#m9a1762293f" y="46.511429"/>
      </g>
     </g>
    </g>
   </g>
   <g id="line2d_19">
    <path clip-path="url(#p0631b3b0bf)" d="M 213.198513 192.448839 
L 213.200893 191.116467 
L 213.205426 189.784095 
L 213.213487 188.451724 
L 213.226869 187.119352 
L 213.247569 185.78698 
L 213.277341 184.454608 
L 213.317023 183.122236 
L 213.365782 181.789864 
L 213.420561 180.457492 
L 213.476016 179.125121 
L 213.525186 177.792749 
L 213.560838 176.460377 
L 213.577188 175.128005 
L 213.571421 173.795633 
L 213.544482 172.463261 
L 213.500827 171.130889 
L 213.447221 169.798518 
L 213.391034 168.466146 
L 213.338609 167.133774 
L 213.294207 165.801402 
L 213.259704 164.46903 
L 213.234949 163.136658 
L 213.218481 161.804286 
L 213.208299 160.471915 
L 213.202434 159.139543 
L 213.199283 157.807171 
L 213.197704 156.474799 
L 213.196966 155.142427 
L 213.196647 153.810055 
L 213.196532 152.477683 
L 213.196533 151.145312 
L 213.196662 149.81294 
L 213.197052 148.480568 
L 213.198057 147.148196 
L 213.200483 145.815824 
L 213.206034 144.483452 
L 213.21809 143.15108 
L 213.242928 141.818709 
L 213.291421 140.486337 
L 213.381021 139.153965 
L 213.537383 137.821593 
L 213.794501 136.489221 
L 214.191774 135.156849 
L 214.766624 133.824477 
L 215.542401 132.492106 
L 216.51354 131.159734 
L 217.632529 129.827362 
L 218.804889 128.49499 
L 219.897467 127.162618 
L 220.761378 125.830246 
L 221.264965 124.497874 
L 221.326863 123.165502 
L 220.937728 121.833131 
L 220.162596 120.500759 
L 219.12306 119.168387 
L 217.965981 117.836015 
L 216.829802 116.503643 
L 215.818951 115.171271 
L 214.99219 113.838899 
L 214.364827 112.506528 
L 213.920186 111.174156 
L 213.624226 109.841784 
L 213.438303 108.509412 
L 213.327557 107.17704 
L 213.264734 105.844668 
L 213.230662 104.512296 
L 213.212943 103.179925 
L 213.204091 101.847553 
L 213.199844 100.515181 
L 213.197892 99.182809 
L 213.197044 97.850437 
L 213.196722 96.518065 
L 213.196679 95.185693 
L 213.196866 93.853322 
L 213.197379 92.52095 
L 213.198466 91.188578 
L 213.200548 89.856206 
L 213.204244 88.523834 
L 213.21032 87.191462 
L 213.219565 85.85909 
L 213.232531 84.526719 
L 213.249211 83.194347 
L 213.268731 81.861975 
L 213.289224 80.529603 
L 213.308013 79.197231 
L 213.322144 77.864859 
L 213.329133 76.532487 
L 213.327675 75.200116 
L 213.318046 73.867744 
L 213.302016 72.535372 
L 213.282318 71.203 
L 213.261888 69.870628 
L 213.243171 68.538256 
L 213.227701 67.205884 
L 213.216031 65.873513 
L 213.207941 64.541141 
L 213.202764 63.208769 
L 213.199695 61.876397 
L 213.198006 60.544025 
" style="fill:none;stroke:#1f77b4;stroke-linecap:square;stroke-width:1.5;"/>
   </g>
   <g id="patch_74">
    <path d="M 213.196429 202.2 
L 213.196429 46.511429 
" style="fill:none;stroke:#000000;stroke-linecap:square;stroke-linejoin:miter;stroke-width:0.8;"/>
   </g>
  </g>
  <g id="text_11">
   <!-- $R^2=0.09$ -->
   <defs>
    <path d="M 25.203125 64.796875 
L 20.21875 38.921875 
L 32.90625 38.921875 
Q 40.375 38.921875 44.984375 43.046875 
Q 49.609375 47.171875 49.609375 53.8125 
Q 49.609375 59.125 46.5 61.953125 
Q 43.40625 64.796875 37.59375 64.796875 
z
M 43.3125 35.015625 
Q 46.4375 34.28125 48.515625 31.390625 
Q 50.59375 28.515625 53.328125 19.921875 
L 59.515625 0 
L 49.125 0 
L 43.40625 18.703125 
Q 41.21875 25.921875 38.328125 28.359375 
Q 35.453125 30.8125 29.5 30.8125 
L 18.609375 30.8125 
L 12.59375 0 
L 2.6875 0 
L 16.890625 72.90625 
L 39.109375 72.90625 
Q 49.21875 72.90625 54.609375 68.328125 
Q 60.015625 63.765625 60.015625 55.171875 
Q 60.015625 47.5625 55.421875 41.984375 
Q 50.828125 36.421875 43.3125 35.015625 
z
" id="DejaVuSans-Oblique-82"/>
    <path d="M 10.59375 45.40625 
L 73.1875 45.40625 
L 73.1875 37.203125 
L 10.59375 37.203125 
z
M 10.59375 25.484375 
L 73.1875 25.484375 
L 73.1875 17.1875 
L 10.59375 17.1875 
z
" id="DejaVuSans-61"/>
    <path d="M 10.6875 12.40625 
L 21 12.40625 
L 21 0 
L 10.6875 0 
z
" id="DejaVuSans-46"/>
    <path d="M 10.984375 1.515625 
L 10.984375 10.5 
Q 14.703125 8.734375 18.5 7.8125 
Q 22.3125 6.890625 25.984375 6.890625 
Q 35.75 6.890625 40.890625 13.453125 
Q 46.046875 20.015625 46.78125 33.40625 
Q 43.953125 29.203125 39.59375 26.953125 
Q 35.25 24.703125 29.984375 24.703125 
Q 19.046875 24.703125 12.671875 31.3125 
Q 6.296875 37.9375 6.296875 49.421875 
Q 6.296875 60.640625 12.9375 67.421875 
Q 19.578125 74.21875 30.609375 74.21875 
Q 43.265625 74.21875 49.921875 64.515625 
Q 56.59375 54.828125 56.59375 36.375 
Q 56.59375 19.140625 48.40625 8.859375 
Q 40.234375 -1.421875 26.421875 -1.421875 
Q 22.703125 -1.421875 18.890625 -0.6875 
Q 15.09375 0.046875 10.984375 1.515625 
z
M 30.609375 32.421875 
Q 37.25 32.421875 41.125 36.953125 
Q 45.015625 41.5 45.015625 49.421875 
Q 45.015625 57.28125 41.125 61.84375 
Q 37.25 66.40625 30.609375 66.40625 
Q 23.96875 66.40625 20.09375 61.84375 
Q 16.21875 57.28125 16.21875 49.421875 
Q 16.21875 41.5 20.09375 36.953125 
Q 23.96875 32.421875 30.609375 32.421875 
z
" id="DejaVuSans-57"/>
   </defs>
   <g transform="translate(63 87.362625)scale(0.12 -0.12)">
    <use transform="translate(0 0.765625)" xlink:href="#DejaVuSans-Oblique-82"/>
    <use transform="translate(76.499193 39.046875)scale(0.7)" xlink:href="#DejaVuSans-50"/>
    <use transform="translate(143.252122 0.765625)" xlink:href="#DejaVuSans-61"/>
    <use transform="translate(246.523607 0.765625)" xlink:href="#DejaVuSans-48"/>
    <use transform="translate(310.146654 0.765625)" xlink:href="#DejaVuSans-46"/>
    <use transform="translate(341.933763 0.765625)" xlink:href="#DejaVuSans-48"/>
    <use transform="translate(405.55681 0.765625)" xlink:href="#DejaVuSans-57"/>
   </g>
   <!-- $n=70$ -->
   <defs>
    <path d="M 55.71875 33.015625 
L 49.3125 0 
L 40.28125 0 
L 46.6875 32.671875 
Q 47.125 34.96875 47.359375 36.71875 
Q 47.609375 38.484375 47.609375 39.5 
Q 47.609375 43.609375 45.015625 45.890625 
Q 42.4375 48.1875 37.796875 48.1875 
Q 30.5625 48.1875 25.34375 43.375 
Q 20.125 38.578125 18.5 30.328125 
L 12.5 0 
L 3.515625 0 
L 14.109375 54.6875 
L 23.09375 54.6875 
L 21.296875 46.09375 
Q 25.046875 50.828125 30.3125 53.40625 
Q 35.59375 56 41.40625 56 
Q 48.640625 56 52.609375 52.09375 
Q 56.59375 48.1875 56.59375 41.109375 
Q 56.59375 39.359375 56.375 37.359375 
Q 56.15625 35.359375 55.71875 33.015625 
z
" id="DejaVuSans-Oblique-110"/>
    <path d="M 8.203125 72.90625 
L 55.078125 72.90625 
L 55.078125 68.703125 
L 28.609375 0 
L 18.3125 0 
L 43.21875 64.59375 
L 8.203125 64.59375 
z
" id="DejaVuSans-55"/>
   </defs>
   <g transform="translate(63 100.8)scale(0.12 -0.12)">
    <use transform="translate(0 0.78125)" xlink:href="#DejaVuSans-Oblique-110"/>
    <use transform="translate(82.861328 0.78125)" xlink:href="#DejaVuSans-61"/>
    <use transform="translate(186.132812 0.78125)" xlink:href="#DejaVuSans-55"/>
    <use transform="translate(249.755859 0.78125)" xlink:href="#DejaVuSans-48"/>
   </g>
  </g>
 </g>
 <defs>
  <clipPath id="pcd41272eca">
   <rect height="155.688571" width="142.120714" x="66.175" y="46.511429"/>
  </clipPath>
  <clipPath id="p72c4d2e70b">
   <rect height="26.842857" width="142.120714" x="66.175" y="14.3"/>
  </clipPath>
  <clipPath id="p0631b3b0bf">
   <rect height="155.688571" width="24.503571" x="213.196429" y="46.511429"/>
  </clipPath>
 </defs>
</svg>
