<?xml version="1.0" encoding="utf-8" standalone="no"?>
<!DOCTYPE svg PUBLIC "-//W3C//DTD SVG 1.1//EN"
  "http://www.w3.org/Graphics/SVG/1.1/DTD/svg11.dtd">
<!-- Created with matplotlib (https://matplotlib.org/) -->
<svg height="252pt" version="1.1" viewBox="0 0 252 252" width="252pt" xmlns="http://www.w3.org/2000/svg" xmlns:xlink="http://www.w3.org/1999/xlink">
 <defs>
  <style type="text/css">
*{stroke-linecap:butt;stroke-linejoin:round;}
  </style>
 </defs>
 <g id="figure_1">
  <g id="patch_1">
   <path d="M 0 252 
L 252 252 
L 252 0 
L 0 0 
z
" style="fill:#ffffff;"/>
  </g>
  <g id="axes_1">
   <g id="patch_2">
    <path d="M 66.315625 202.2 
L 208.319821 202.2 
L 208.319821 46.511429 
L 66.315625 46.511429 
z
" style="fill:#ffffff;"/>
   </g>
   <g id="PathCollection_1">
    <defs>
     <path d="M 0 3 
C 0.795609 3 1.55874 2.683901 2.12132 2.12132 
C 2.683901 1.55874 3 0.795609 3 0 
C 3 -0.795609 2.683901 -1.55874 2.12132 -2.12132 
C 1.55874 -2.683901 0.795609 -3 0 -3 
C -0.795609 -3 -1.55874 -2.683901 -2.12132 -2.12132 
C -2.683901 -1.55874 -3 -0.795609 -3 0 
C -3 0.795609 -2.683901 1.55874 -2.12132 2.12132 
C -1.55874 2.683901 -0.795609 3 0 3 
z
" id="m0cf4c1120c" style="stroke:#1f77b4;stroke-opacity:0.8;"/>
    </defs>
    <g clip-path="url(#p104e215e72)">
     <use style="fill:#1f77b4;fill-opacity:0.8;stroke:#1f77b4;stroke-opacity:0.8;" x="71.995793" xlink:href="#m0cf4c1120c" y="125.523379"/>
     <use style="fill:#1f77b4;fill-opacity:0.8;stroke:#1f77b4;stroke-opacity:0.8;" x="107.496842" xlink:href="#m0cf4c1120c" y="125.523379"/>
     <use style="fill:#1f77b4;fill-opacity:0.8;stroke:#1f77b4;stroke-opacity:0.8;" x="111.756968" xlink:href="#m0cf4c1120c" y="125.523379"/>
     <use style="fill:#1f77b4;fill-opacity:0.8;stroke:#1f77b4;stroke-opacity:0.8;" x="111.756968" xlink:href="#m0cf4c1120c" y="178.068271"/>
     <use style="fill:#1f77b4;fill-opacity:0.8;stroke:#1f77b4;stroke-opacity:0.8;" x="116.017094" xlink:href="#m0cf4c1120c" y="125.523379"/>
     <use style="fill:#1f77b4;fill-opacity:0.8;stroke:#1f77b4;stroke-opacity:0.8;" x="116.017094" xlink:href="#m0cf4c1120c" y="125.523379"/>
     <use style="fill:#1f77b4;fill-opacity:0.8;stroke:#1f77b4;stroke-opacity:0.8;" x="118.857178" xlink:href="#m0cf4c1120c" y="125.523379"/>
     <use style="fill:#1f77b4;fill-opacity:0.8;stroke:#1f77b4;stroke-opacity:0.8;" x="120.27722" xlink:href="#m0cf4c1120c" y="125.523379"/>
     <use style="fill:#1f77b4;fill-opacity:0.8;stroke:#1f77b4;stroke-opacity:0.8;" x="120.27722" xlink:href="#m0cf4c1120c" y="125.523379"/>
     <use style="fill:#1f77b4;fill-opacity:0.8;stroke:#1f77b4;stroke-opacity:0.8;" x="120.27722" xlink:href="#m0cf4c1120c" y="125.523379"/>
     <use style="fill:#1f77b4;fill-opacity:0.8;stroke:#1f77b4;stroke-opacity:0.8;" x="123.117304" xlink:href="#m0cf4c1120c" y="125.523379"/>
     <use style="fill:#1f77b4;fill-opacity:0.8;stroke:#1f77b4;stroke-opacity:0.8;" x="123.117304" xlink:href="#m0cf4c1120c" y="125.523379"/>
     <use style="fill:#1f77b4;fill-opacity:0.8;stroke:#1f77b4;stroke-opacity:0.8;" x="124.537346" xlink:href="#m0cf4c1120c" y="147.709"/>
     <use style="fill:#1f77b4;fill-opacity:0.8;stroke:#1f77b4;stroke-opacity:0.8;" x="124.537346" xlink:href="#m0cf4c1120c" y="165.613186"/>
     <use style="fill:#1f77b4;fill-opacity:0.8;stroke:#1f77b4;stroke-opacity:0.8;" x="124.537346" xlink:href="#m0cf4c1120c" y="125.523379"/>
     <use style="fill:#1f77b4;fill-opacity:0.8;stroke:#1f77b4;stroke-opacity:0.8;" x="124.537346" xlink:href="#m0cf4c1120c" y="134.864693"/>
     <use style="fill:#1f77b4;fill-opacity:0.8;stroke:#1f77b4;stroke-opacity:0.8;" x="124.537346" xlink:href="#m0cf4c1120c" y="125.523379"/>
     <use style="fill:#1f77b4;fill-opacity:0.8;stroke:#1f77b4;stroke-opacity:0.8;" x="124.537346" xlink:href="#m0cf4c1120c" y="165.613186"/>
     <use style="fill:#1f77b4;fill-opacity:0.8;stroke:#1f77b4;stroke-opacity:0.8;" x="125.957387" xlink:href="#m0cf4c1120c" y="125.523379"/>
     <use style="fill:#1f77b4;fill-opacity:0.8;stroke:#1f77b4;stroke-opacity:0.8;" x="125.957387" xlink:href="#m0cf4c1120c" y="125.523379"/>
     <use style="fill:#1f77b4;fill-opacity:0.8;stroke:#1f77b4;stroke-opacity:0.8;" x="125.957387" xlink:href="#m0cf4c1120c" y="125.523379"/>
     <use style="fill:#1f77b4;fill-opacity:0.8;stroke:#1f77b4;stroke-opacity:0.8;" x="125.957387" xlink:href="#m0cf4c1120c" y="125.523379"/>
     <use style="fill:#1f77b4;fill-opacity:0.8;stroke:#1f77b4;stroke-opacity:0.8;" x="125.957387" xlink:href="#m0cf4c1120c" y="129.804814"/>
     <use style="fill:#1f77b4;fill-opacity:0.8;stroke:#1f77b4;stroke-opacity:0.8;" x="125.957387" xlink:href="#m0cf4c1120c" y="125.523379"/>
     <use style="fill:#1f77b4;fill-opacity:0.8;stroke:#1f77b4;stroke-opacity:0.8;" x="125.957387" xlink:href="#m0cf4c1120c" y="125.523379"/>
     <use style="fill:#1f77b4;fill-opacity:0.8;stroke:#1f77b4;stroke-opacity:0.8;" x="127.377429" xlink:href="#m0cf4c1120c" y="125.523379"/>
     <use style="fill:#1f77b4;fill-opacity:0.8;stroke:#1f77b4;stroke-opacity:0.8;" x="127.377429" xlink:href="#m0cf4c1120c" y="163.277857"/>
     <use style="fill:#1f77b4;fill-opacity:0.8;stroke:#1f77b4;stroke-opacity:0.8;" x="128.797471" xlink:href="#m0cf4c1120c" y="125.523379"/>
     <use style="fill:#1f77b4;fill-opacity:0.8;stroke:#1f77b4;stroke-opacity:0.8;" x="128.797471" xlink:href="#m0cf4c1120c" y="125.523379"/>
     <use style="fill:#1f77b4;fill-opacity:0.8;stroke:#1f77b4;stroke-opacity:0.8;" x="128.797471" xlink:href="#m0cf4c1120c" y="125.523379"/>
     <use style="fill:#1f77b4;fill-opacity:0.8;stroke:#1f77b4;stroke-opacity:0.8;" x="128.797471" xlink:href="#m0cf4c1120c" y="125.523379"/>
     <use style="fill:#1f77b4;fill-opacity:0.8;stroke:#1f77b4;stroke-opacity:0.8;" x="128.797471" xlink:href="#m0cf4c1120c" y="125.523379"/>
     <use style="fill:#1f77b4;fill-opacity:0.8;stroke:#1f77b4;stroke-opacity:0.8;" x="130.217513" xlink:href="#m0cf4c1120c" y="125.523379"/>
     <use style="fill:#1f77b4;fill-opacity:0.8;stroke:#1f77b4;stroke-opacity:0.8;" x="130.217513" xlink:href="#m0cf4c1120c" y="125.523379"/>
     <use style="fill:#1f77b4;fill-opacity:0.8;stroke:#1f77b4;stroke-opacity:0.8;" x="130.217513" xlink:href="#m0cf4c1120c" y="125.523379"/>
     <use style="fill:#1f77b4;fill-opacity:0.8;stroke:#1f77b4;stroke-opacity:0.8;" x="131.637555" xlink:href="#m0cf4c1120c" y="125.523379"/>
     <use style="fill:#1f77b4;fill-opacity:0.8;stroke:#1f77b4;stroke-opacity:0.8;" x="131.637555" xlink:href="#m0cf4c1120c" y="125.523379"/>
     <use style="fill:#1f77b4;fill-opacity:0.8;stroke:#1f77b4;stroke-opacity:0.8;" x="131.637555" xlink:href="#m0cf4c1120c" y="125.523379"/>
     <use style="fill:#1f77b4;fill-opacity:0.8;stroke:#1f77b4;stroke-opacity:0.8;" x="131.637555" xlink:href="#m0cf4c1120c" y="125.523379"/>
     <use style="fill:#1f77b4;fill-opacity:0.8;stroke:#1f77b4;stroke-opacity:0.8;" x="131.637555" xlink:href="#m0cf4c1120c" y="125.523379"/>
     <use style="fill:#1f77b4;fill-opacity:0.8;stroke:#1f77b4;stroke-opacity:0.8;" x="131.637555" xlink:href="#m0cf4c1120c" y="125.523379"/>
     <use style="fill:#1f77b4;fill-opacity:0.8;stroke:#1f77b4;stroke-opacity:0.8;" x="133.057597" xlink:href="#m0cf4c1120c" y="125.523379"/>
     <use style="fill:#1f77b4;fill-opacity:0.8;stroke:#1f77b4;stroke-opacity:0.8;" x="133.057597" xlink:href="#m0cf4c1120c" y="125.523379"/>
     <use style="fill:#1f77b4;fill-opacity:0.8;stroke:#1f77b4;stroke-opacity:0.8;" x="133.057597" xlink:href="#m0cf4c1120c" y="125.523379"/>
     <use style="fill:#1f77b4;fill-opacity:0.8;stroke:#1f77b4;stroke-opacity:0.8;" x="133.057597" xlink:href="#m0cf4c1120c" y="125.523379"/>
     <use style="fill:#1f77b4;fill-opacity:0.8;stroke:#1f77b4;stroke-opacity:0.8;" x="133.057597" xlink:href="#m0cf4c1120c" y="125.523379"/>
     <use style="fill:#1f77b4;fill-opacity:0.8;stroke:#1f77b4;stroke-opacity:0.8;" x="134.477639" xlink:href="#m0cf4c1120c" y="125.523379"/>
     <use style="fill:#1f77b4;fill-opacity:0.8;stroke:#1f77b4;stroke-opacity:0.8;" x="134.477639" xlink:href="#m0cf4c1120c" y="125.523379"/>
     <use style="fill:#1f77b4;fill-opacity:0.8;stroke:#1f77b4;stroke-opacity:0.8;" x="134.477639" xlink:href="#m0cf4c1120c" y="125.523379"/>
     <use style="fill:#1f77b4;fill-opacity:0.8;stroke:#1f77b4;stroke-opacity:0.8;" x="134.477639" xlink:href="#m0cf4c1120c" y="125.523379"/>
     <use style="fill:#1f77b4;fill-opacity:0.8;stroke:#1f77b4;stroke-opacity:0.8;" x="135.897681" xlink:href="#m0cf4c1120c" y="125.523379"/>
     <use style="fill:#1f77b4;fill-opacity:0.8;stroke:#1f77b4;stroke-opacity:0.8;" x="135.897681" xlink:href="#m0cf4c1120c" y="134.864693"/>
     <use style="fill:#1f77b4;fill-opacity:0.8;stroke:#1f77b4;stroke-opacity:0.8;" x="135.897681" xlink:href="#m0cf4c1120c" y="125.523379"/>
     <use style="fill:#1f77b4;fill-opacity:0.8;stroke:#1f77b4;stroke-opacity:0.8;" x="135.897681" xlink:href="#m0cf4c1120c" y="125.523379"/>
     <use style="fill:#1f77b4;fill-opacity:0.8;stroke:#1f77b4;stroke-opacity:0.8;" x="135.897681" xlink:href="#m0cf4c1120c" y="185.074257"/>
     <use style="fill:#1f77b4;fill-opacity:0.8;stroke:#1f77b4;stroke-opacity:0.8;" x="135.897681" xlink:href="#m0cf4c1120c" y="126.301821"/>
     <use style="fill:#1f77b4;fill-opacity:0.8;stroke:#1f77b4;stroke-opacity:0.8;" x="135.897681" xlink:href="#m0cf4c1120c" y="125.134157"/>
     <use style="fill:#1f77b4;fill-opacity:0.8;stroke:#1f77b4;stroke-opacity:0.8;" x="135.897681" xlink:href="#m0cf4c1120c" y="125.523379"/>
     <use style="fill:#1f77b4;fill-opacity:0.8;stroke:#1f77b4;stroke-opacity:0.8;" x="135.897681" xlink:href="#m0cf4c1120c" y="125.523379"/>
     <use style="fill:#1f77b4;fill-opacity:0.8;stroke:#1f77b4;stroke-opacity:0.8;" x="135.897681" xlink:href="#m0cf4c1120c" y="125.523379"/>
     <use style="fill:#1f77b4;fill-opacity:0.8;stroke:#1f77b4;stroke-opacity:0.8;" x="138.737765" xlink:href="#m0cf4c1120c" y="123.18805"/>
     <use style="fill:#1f77b4;fill-opacity:0.8;stroke:#1f77b4;stroke-opacity:0.8;" x="138.737765" xlink:href="#m0cf4c1120c" y="121.241943"/>
     <use style="fill:#1f77b4;fill-opacity:0.8;stroke:#1f77b4;stroke-opacity:0.8;" x="138.737765" xlink:href="#m0cf4c1120c" y="76.481479"/>
     <use style="fill:#1f77b4;fill-opacity:0.8;stroke:#1f77b4;stroke-opacity:0.8;" x="138.737765" xlink:href="#m0cf4c1120c" y="121.241943"/>
     <use style="fill:#1f77b4;fill-opacity:0.8;stroke:#1f77b4;stroke-opacity:0.8;" x="138.737765" xlink:href="#m0cf4c1120c" y="76.481479"/>
     <use style="fill:#1f77b4;fill-opacity:0.8;stroke:#1f77b4;stroke-opacity:0.8;" x="141.577849" xlink:href="#m0cf4c1120c" y="123.577271"/>
     <use style="fill:#1f77b4;fill-opacity:0.8;stroke:#1f77b4;stroke-opacity:0.8;" x="144.417933" xlink:href="#m0cf4c1120c" y="123.577271"/>
     <use style="fill:#1f77b4;fill-opacity:0.8;stroke:#1f77b4;stroke-opacity:0.8;" x="150.098101" xlink:href="#m0cf4c1120c" y="76.481479"/>
     <use style="fill:#1f77b4;fill-opacity:0.8;stroke:#1f77b4;stroke-opacity:0.8;" x="150.098101" xlink:href="#m0cf4c1120c" y="123.966493"/>
     <use style="fill:#1f77b4;fill-opacity:0.8;stroke:#1f77b4;stroke-opacity:0.8;" x="157.198311" xlink:href="#m0cf4c1120c" y="123.577271"/>
    </g>
   </g>
   <g id="PolyCollection_1">
    <path clip-path="url(#p104e215e72)" d="M 66.315625 131.531139 
L 66.315625 201.128014 
L 67.750011 199.497986 
L 69.184397 197.800452 
L 70.618782 196.063654 
L 72.053168 194.326856 
L 73.487554 192.590059 
L 74.92194 190.853261 
L 76.356326 189.116463 
L 77.790712 187.379665 
L 79.225097 185.641837 
L 80.659483 183.902337 
L 82.093869 182.316664 
L 83.528255 180.831649 
L 84.962641 179.346634 
L 86.397027 177.764106 
L 87.831412 176.035232 
L 89.265798 174.302982 
L 90.700184 172.568636 
L 92.13457 170.834291 
L 93.568956 169.164524 
L 95.003341 167.594182 
L 96.437727 166.02384 
L 97.872113 164.453498 
L 99.306499 162.883156 
L 100.740885 161.195291 
L 102.175271 159.501078 
L 103.609656 157.806866 
L 105.044042 156.195537 
L 106.478428 154.616616 
L 107.912814 153.037555 
L 109.3472 151.453013 
L 110.781585 149.868471 
L 112.215971 148.103823 
L 113.650357 146.557827 
L 115.084743 145.101313 
L 116.519129 143.478191 
L 117.953515 141.938373 
L 119.3879 140.363826 
L 120.822286 138.758929 
L 122.256672 137.080711 
L 123.691058 135.656767 
L 125.125444 134.147269 
L 126.55983 132.890281 
L 127.994215 131.960845 
L 129.428601 131.12455 
L 130.862987 130.480317 
L 132.297373 130.115662 
L 133.731759 129.743089 
L 135.166144 129.388807 
L 136.60053 129.142076 
L 138.034916 128.904075 
L 139.469302 128.657566 
L 140.903688 128.522355 
L 142.338074 128.40676 
L 143.772459 128.269784 
L 145.206845 128.100532 
L 146.641231 127.930509 
L 148.075617 127.759856 
L 149.510003 127.589203 
L 150.944389 127.418549 
L 152.378774 127.247055 
L 153.81316 127.212335 
L 155.247546 127.028302 
L 156.681932 126.811123 
L 158.116318 126.593944 
L 159.550703 126.408072 
L 160.985089 126.335317 
L 162.419475 126.26108 
L 163.853861 126.132632 
L 165.288247 126.057446 
L 166.722633 125.999038 
L 168.157018 125.852026 
L 169.591404 125.704439 
L 171.02579 125.556719 
L 172.460176 125.474312 
L 173.894562 125.424981 
L 175.328948 125.319618 
L 176.763333 125.151277 
L 178.197719 124.98209 
L 179.632105 124.857085 
L 181.066491 124.804644 
L 182.500877 124.725011 
L 183.935262 124.552622 
L 185.369648 124.380233 
L 186.804034 124.279386 
L 188.23842 124.206139 
L 189.672806 124.132891 
L 191.107192 124.059644 
L 192.541577 123.986397 
L 193.975963 123.907011 
L 195.410349 123.774372 
L 196.844735 123.641733 
L 198.279121 123.509094 
L 199.713506 123.38525 
L 201.147892 123.304301 
L 202.582278 123.223352 
L 204.016664 123.142403 
L 205.45105 123.060609 
L 206.885436 122.978461 
L 208.319821 122.896312 
L 208.319821 38.919631 
L 208.319821 38.919631 
L 206.885436 40.569169 
L 205.45105 42.218707 
L 204.016664 43.868244 
L 202.582278 45.517782 
L 201.147892 47.16732 
L 199.713506 48.816857 
L 198.279121 50.466395 
L 196.844735 52.115933 
L 195.410349 53.76547 
L 193.975963 55.415008 
L 192.541577 57.064546 
L 191.107192 58.714084 
L 189.672806 60.340872 
L 188.23842 61.938239 
L 186.804034 63.536488 
L 185.369648 65.135432 
L 183.935262 66.734377 
L 182.500877 68.333321 
L 181.066491 69.932265 
L 179.632105 71.53121 
L 178.197719 73.049896 
L 176.763333 74.508624 
L 175.328948 75.969071 
L 173.894562 77.430946 
L 172.460176 78.89282 
L 171.02579 80.354694 
L 169.591404 81.967317 
L 168.157018 83.701939 
L 166.722633 85.439733 
L 165.288247 87.18132 
L 163.853861 88.922907 
L 162.419475 90.664495 
L 160.985089 92.174401 
L 159.550703 93.594447 
L 158.116318 95.181323 
L 156.681932 96.638346 
L 155.247546 98.095369 
L 153.81316 99.559132 
L 152.378774 101.324002 
L 150.944389 103.136229 
L 149.510003 104.961412 
L 148.075617 106.783827 
L 146.641231 108.332838 
L 145.206845 109.790477 
L 143.772459 111.390612 
L 142.338074 112.797964 
L 140.903688 114.19889 
L 139.469302 115.701725 
L 138.034916 117.20876 
L 136.60053 118.564773 
L 135.166144 119.871372 
L 133.731759 120.901757 
L 132.297373 122.203028 
L 130.862987 122.995468 
L 129.428601 123.802576 
L 127.994215 124.484805 
L 126.55983 124.938006 
L 125.125444 125.331082 
L 123.691058 125.698272 
L 122.256672 126.022 
L 120.822286 126.323558 
L 119.3879 126.632309 
L 117.953515 126.883223 
L 116.519129 127.076832 
L 115.084743 127.310015 
L 113.650357 127.531135 
L 112.215971 127.63306 
L 110.781585 127.91994 
L 109.3472 128.091156 
L 107.912814 128.349492 
L 106.478428 128.531975 
L 105.044042 128.621019 
L 103.609656 128.765896 
L 102.175271 128.854136 
L 100.740885 128.942376 
L 99.306499 129.061763 
L 97.872113 129.210583 
L 96.437727 129.323386 
L 95.003341 129.419709 
L 93.568956 129.511497 
L 92.13457 129.628879 
L 90.700184 129.784986 
L 89.265798 129.916806 
L 87.831412 130.090451 
L 86.397027 130.119302 
L 84.962641 130.209288 
L 83.528255 130.324495 
L 82.093869 130.375498 
L 80.659483 130.512523 
L 79.225097 130.634393 
L 77.790712 130.623845 
L 76.356326 130.618512 
L 74.92194 130.740349 
L 73.487554 130.845478 
L 72.053168 130.986808 
L 70.618782 131.128138 
L 69.184397 131.269468 
L 67.750011 131.410799 
L 66.315625 131.531139 
z
" style="fill:#1f77b4;fill-opacity:0.15;"/>
   </g>
   <g id="matplotlib.axis_1">
    <g id="xtick_1">
     <g id="line2d_1">
      <defs>
       <path d="M 0 0 
L 0 3.5 
" id="m4261248538" style="stroke:#000000;stroke-width:0.8;"/>
      </defs>
      <g>
       <use style="stroke:#000000;stroke-width:0.8;" x="66.315625" xlink:href="#m4261248538" y="202.2"/>
      </g>
     </g>
     <g id="text_1">
      <!-- −5 -->
      <defs>
       <path d="M 10.59375 35.5 
L 73.1875 35.5 
L 73.1875 27.203125 
L 10.59375 27.203125 
z
" id="DejaVuSans-8722"/>
       <path d="M 10.796875 72.90625 
L 49.515625 72.90625 
L 49.515625 64.59375 
L 19.828125 64.59375 
L 19.828125 46.734375 
Q 21.96875 47.46875 24.109375 47.828125 
Q 26.265625 48.1875 28.421875 48.1875 
Q 40.625 48.1875 47.75 41.5 
Q 54.890625 34.8125 54.890625 23.390625 
Q 54.890625 11.625 47.5625 5.09375 
Q 40.234375 -1.421875 26.90625 -1.421875 
Q 22.3125 -1.421875 17.546875 -0.640625 
Q 12.796875 0.140625 7.71875 1.703125 
L 7.71875 11.625 
Q 12.109375 9.234375 16.796875 8.0625 
Q 21.484375 6.890625 26.703125 6.890625 
Q 35.15625 6.890625 40.078125 11.328125 
Q 45.015625 15.765625 45.015625 23.390625 
Q 45.015625 31 40.078125 35.4375 
Q 35.15625 39.890625 26.703125 39.890625 
Q 22.75 39.890625 18.8125 39.015625 
Q 14.890625 38.140625 10.796875 36.28125 
z
" id="DejaVuSans-53"/>
      </defs>
      <g transform="translate(55.70125 220.14175)scale(0.144 -0.144)">
       <use xlink:href="#DejaVuSans-8722"/>
       <use x="83.789062" xlink:href="#DejaVuSans-53"/>
      </g>
     </g>
    </g>
    <g id="xtick_2">
     <g id="line2d_2">
      <g>
       <use style="stroke:#000000;stroke-width:0.8;" x="137.317723" xlink:href="#m4261248538" y="202.2"/>
      </g>
     </g>
     <g id="text_2">
      <!-- 0 -->
      <defs>
       <path d="M 31.78125 66.40625 
Q 24.171875 66.40625 20.328125 58.90625 
Q 16.5 51.421875 16.5 36.375 
Q 16.5 21.390625 20.328125 13.890625 
Q 24.171875 6.390625 31.78125 6.390625 
Q 39.453125 6.390625 43.28125 13.890625 
Q 47.125 21.390625 47.125 36.375 
Q 47.125 51.421875 43.28125 58.90625 
Q 39.453125 66.40625 31.78125 66.40625 
z
M 31.78125 74.21875 
Q 44.046875 74.21875 50.515625 64.515625 
Q 56.984375 54.828125 56.984375 36.375 
Q 56.984375 17.96875 50.515625 8.265625 
Q 44.046875 -1.421875 31.78125 -1.421875 
Q 19.53125 -1.421875 13.0625 8.265625 
Q 6.59375 17.96875 6.59375 36.375 
Q 6.59375 54.828125 13.0625 64.515625 
Q 19.53125 74.21875 31.78125 74.21875 
z
" id="DejaVuSans-48"/>
      </defs>
      <g transform="translate(132.736723 220.14175)scale(0.144 -0.144)">
       <use xlink:href="#DejaVuSans-48"/>
      </g>
     </g>
    </g>
    <g id="xtick_3">
     <g id="line2d_3">
      <g>
       <use style="stroke:#000000;stroke-width:0.8;" x="208.319821" xlink:href="#m4261248538" y="202.2"/>
      </g>
     </g>
     <g id="text_3">
      <!-- 5 -->
      <g transform="translate(203.738821 220.14175)scale(0.144 -0.144)">
       <use xlink:href="#DejaVuSans-53"/>
      </g>
     </g>
    </g>
    <g id="text_4">
     <!-- Proteomics mean FC -->
     <defs>
      <path d="M 19.671875 64.796875 
L 19.671875 37.40625 
L 32.078125 37.40625 
Q 38.96875 37.40625 42.71875 40.96875 
Q 46.484375 44.53125 46.484375 51.125 
Q 46.484375 57.671875 42.71875 61.234375 
Q 38.96875 64.796875 32.078125 64.796875 
z
M 9.8125 72.90625 
L 32.078125 72.90625 
Q 44.34375 72.90625 50.609375 67.359375 
Q 56.890625 61.8125 56.890625 51.125 
Q 56.890625 40.328125 50.609375 34.8125 
Q 44.34375 29.296875 32.078125 29.296875 
L 19.671875 29.296875 
L 19.671875 0 
L 9.8125 0 
z
" id="DejaVuSans-80"/>
      <path d="M 41.109375 46.296875 
Q 39.59375 47.171875 37.8125 47.578125 
Q 36.03125 48 33.890625 48 
Q 26.265625 48 22.1875 43.046875 
Q 18.109375 38.09375 18.109375 28.8125 
L 18.109375 0 
L 9.078125 0 
L 9.078125 54.6875 
L 18.109375 54.6875 
L 18.109375 46.1875 
Q 20.953125 51.171875 25.484375 53.578125 
Q 30.03125 56 36.53125 56 
Q 37.453125 56 38.578125 55.875 
Q 39.703125 55.765625 41.0625 55.515625 
z
" id="DejaVuSans-114"/>
      <path d="M 30.609375 48.390625 
Q 23.390625 48.390625 19.1875 42.75 
Q 14.984375 37.109375 14.984375 27.296875 
Q 14.984375 17.484375 19.15625 11.84375 
Q 23.34375 6.203125 30.609375 6.203125 
Q 37.796875 6.203125 41.984375 11.859375 
Q 46.1875 17.53125 46.1875 27.296875 
Q 46.1875 37.015625 41.984375 42.703125 
Q 37.796875 48.390625 30.609375 48.390625 
z
M 30.609375 56 
Q 42.328125 56 49.015625 48.375 
Q 55.71875 40.765625 55.71875 27.296875 
Q 55.71875 13.875 49.015625 6.21875 
Q 42.328125 -1.421875 30.609375 -1.421875 
Q 18.84375 -1.421875 12.171875 6.21875 
Q 5.515625 13.875 5.515625 27.296875 
Q 5.515625 40.765625 12.171875 48.375 
Q 18.84375 56 30.609375 56 
z
" id="DejaVuSans-111"/>
      <path d="M 18.3125 70.21875 
L 18.3125 54.6875 
L 36.8125 54.6875 
L 36.8125 47.703125 
L 18.3125 47.703125 
L 18.3125 18.015625 
Q 18.3125 11.328125 20.140625 9.421875 
Q 21.96875 7.515625 27.59375 7.515625 
L 36.8125 7.515625 
L 36.8125 0 
L 27.59375 0 
Q 17.1875 0 13.234375 3.875 
Q 9.28125 7.765625 9.28125 18.015625 
L 9.28125 47.703125 
L 2.6875 47.703125 
L 2.6875 54.6875 
L 9.28125 54.6875 
L 9.28125 70.21875 
z
" id="DejaVuSans-116"/>
      <path d="M 56.203125 29.59375 
L 56.203125 25.203125 
L 14.890625 25.203125 
Q 15.484375 15.921875 20.484375 11.0625 
Q 25.484375 6.203125 34.421875 6.203125 
Q 39.59375 6.203125 44.453125 7.46875 
Q 49.3125 8.734375 54.109375 11.28125 
L 54.109375 2.78125 
Q 49.265625 0.734375 44.1875 -0.34375 
Q 39.109375 -1.421875 33.890625 -1.421875 
Q 20.796875 -1.421875 13.15625 6.1875 
Q 5.515625 13.8125 5.515625 26.8125 
Q 5.515625 40.234375 12.765625 48.109375 
Q 20.015625 56 32.328125 56 
Q 43.359375 56 49.78125 48.890625 
Q 56.203125 41.796875 56.203125 29.59375 
z
M 47.21875 32.234375 
Q 47.125 39.59375 43.09375 43.984375 
Q 39.0625 48.390625 32.421875 48.390625 
Q 24.90625 48.390625 20.390625 44.140625 
Q 15.875 39.890625 15.1875 32.171875 
z
" id="DejaVuSans-101"/>
      <path d="M 52 44.1875 
Q 55.375 50.25 60.0625 53.125 
Q 64.75 56 71.09375 56 
Q 79.640625 56 84.28125 50.015625 
Q 88.921875 44.046875 88.921875 33.015625 
L 88.921875 0 
L 79.890625 0 
L 79.890625 32.71875 
Q 79.890625 40.578125 77.09375 44.375 
Q 74.3125 48.1875 68.609375 48.1875 
Q 61.625 48.1875 57.5625 43.546875 
Q 53.515625 38.921875 53.515625 30.90625 
L 53.515625 0 
L 44.484375 0 
L 44.484375 32.71875 
Q 44.484375 40.625 41.703125 44.40625 
Q 38.921875 48.1875 33.109375 48.1875 
Q 26.21875 48.1875 22.15625 43.53125 
Q 18.109375 38.875 18.109375 30.90625 
L 18.109375 0 
L 9.078125 0 
L 9.078125 54.6875 
L 18.109375 54.6875 
L 18.109375 46.1875 
Q 21.1875 51.21875 25.484375 53.609375 
Q 29.78125 56 35.6875 56 
Q 41.65625 56 45.828125 52.96875 
Q 50 49.953125 52 44.1875 
z
" id="DejaVuSans-109"/>
      <path d="M 9.421875 54.6875 
L 18.40625 54.6875 
L 18.40625 0 
L 9.421875 0 
z
M 9.421875 75.984375 
L 18.40625 75.984375 
L 18.40625 64.59375 
L 9.421875 64.59375 
z
" id="DejaVuSans-105"/>
      <path d="M 48.78125 52.59375 
L 48.78125 44.1875 
Q 44.96875 46.296875 41.140625 47.34375 
Q 37.3125 48.390625 33.40625 48.390625 
Q 24.65625 48.390625 19.8125 42.84375 
Q 14.984375 37.3125 14.984375 27.296875 
Q 14.984375 17.28125 19.8125 11.734375 
Q 24.65625 6.203125 33.40625 6.203125 
Q 37.3125 6.203125 41.140625 7.25 
Q 44.96875 8.296875 48.78125 10.40625 
L 48.78125 2.09375 
Q 45.015625 0.34375 40.984375 -0.53125 
Q 36.96875 -1.421875 32.421875 -1.421875 
Q 20.0625 -1.421875 12.78125 6.34375 
Q 5.515625 14.109375 5.515625 27.296875 
Q 5.515625 40.671875 12.859375 48.328125 
Q 20.21875 56 33.015625 56 
Q 37.15625 56 41.109375 55.140625 
Q 45.0625 54.296875 48.78125 52.59375 
z
" id="DejaVuSans-99"/>
      <path d="M 44.28125 53.078125 
L 44.28125 44.578125 
Q 40.484375 46.53125 36.375 47.5 
Q 32.28125 48.484375 27.875 48.484375 
Q 21.1875 48.484375 17.84375 46.4375 
Q 14.5 44.390625 14.5 40.28125 
Q 14.5 37.15625 16.890625 35.375 
Q 19.28125 33.59375 26.515625 31.984375 
L 29.59375 31.296875 
Q 39.15625 29.25 43.1875 25.515625 
Q 47.21875 21.78125 47.21875 15.09375 
Q 47.21875 7.46875 41.1875 3.015625 
Q 35.15625 -1.421875 24.609375 -1.421875 
Q 20.21875 -1.421875 15.453125 -0.5625 
Q 10.6875 0.296875 5.421875 2 
L 5.421875 11.28125 
Q 10.40625 8.6875 15.234375 7.390625 
Q 20.0625 6.109375 24.8125 6.109375 
Q 31.15625 6.109375 34.5625 8.28125 
Q 37.984375 10.453125 37.984375 14.40625 
Q 37.984375 18.0625 35.515625 20.015625 
Q 33.0625 21.96875 24.703125 23.78125 
L 21.578125 24.515625 
Q 13.234375 26.265625 9.515625 29.90625 
Q 5.8125 33.546875 5.8125 39.890625 
Q 5.8125 47.609375 11.28125 51.796875 
Q 16.75 56 26.8125 56 
Q 31.78125 56 36.171875 55.265625 
Q 40.578125 54.546875 44.28125 53.078125 
z
" id="DejaVuSans-115"/>
      <path id="DejaVuSans-32"/>
      <path d="M 34.28125 27.484375 
Q 23.390625 27.484375 19.1875 25 
Q 14.984375 22.515625 14.984375 16.5 
Q 14.984375 11.71875 18.140625 8.90625 
Q 21.296875 6.109375 26.703125 6.109375 
Q 34.1875 6.109375 38.703125 11.40625 
Q 43.21875 16.703125 43.21875 25.484375 
L 43.21875 27.484375 
z
M 52.203125 31.203125 
L 52.203125 0 
L 43.21875 0 
L 43.21875 8.296875 
Q 40.140625 3.328125 35.546875 0.953125 
Q 30.953125 -1.421875 24.3125 -1.421875 
Q 15.921875 -1.421875 10.953125 3.296875 
Q 6 8.015625 6 15.921875 
Q 6 25.140625 12.171875 29.828125 
Q 18.359375 34.515625 30.609375 34.515625 
L 43.21875 34.515625 
L 43.21875 35.40625 
Q 43.21875 41.609375 39.140625 45 
Q 35.0625 48.390625 27.6875 48.390625 
Q 23 48.390625 18.546875 47.265625 
Q 14.109375 46.140625 10.015625 43.890625 
L 10.015625 52.203125 
Q 14.9375 54.109375 19.578125 55.046875 
Q 24.21875 56 28.609375 56 
Q 40.484375 56 46.34375 49.84375 
Q 52.203125 43.703125 52.203125 31.203125 
z
" id="DejaVuSans-97"/>
      <path d="M 54.890625 33.015625 
L 54.890625 0 
L 45.90625 0 
L 45.90625 32.71875 
Q 45.90625 40.484375 42.875 44.328125 
Q 39.84375 48.1875 33.796875 48.1875 
Q 26.515625 48.1875 22.3125 43.546875 
Q 18.109375 38.921875 18.109375 30.90625 
L 18.109375 0 
L 9.078125 0 
L 9.078125 54.6875 
L 18.109375 54.6875 
L 18.109375 46.1875 
Q 21.34375 51.125 25.703125 53.5625 
Q 30.078125 56 35.796875 56 
Q 45.21875 56 50.046875 50.171875 
Q 54.890625 44.34375 54.890625 33.015625 
z
" id="DejaVuSans-110"/>
      <path d="M 9.8125 72.90625 
L 51.703125 72.90625 
L 51.703125 64.59375 
L 19.671875 64.59375 
L 19.671875 43.109375 
L 48.578125 43.109375 
L 48.578125 34.8125 
L 19.671875 34.8125 
L 19.671875 0 
L 9.8125 0 
z
" id="DejaVuSans-70"/>
      <path d="M 64.40625 67.28125 
L 64.40625 56.890625 
Q 59.421875 61.53125 53.78125 63.8125 
Q 48.140625 66.109375 41.796875 66.109375 
Q 29.296875 66.109375 22.65625 58.46875 
Q 16.015625 50.828125 16.015625 36.375 
Q 16.015625 21.96875 22.65625 14.328125 
Q 29.296875 6.6875 41.796875 6.6875 
Q 48.140625 6.6875 53.78125 8.984375 
Q 59.421875 11.28125 64.40625 15.921875 
L 64.40625 5.609375 
Q 59.234375 2.09375 53.4375 0.328125 
Q 47.65625 -1.421875 41.21875 -1.421875 
Q 24.65625 -1.421875 15.125 8.703125 
Q 5.609375 18.84375 5.609375 36.375 
Q 5.609375 53.953125 15.125 64.078125 
Q 24.65625 74.21875 41.21875 74.21875 
Q 47.75 74.21875 53.53125 72.484375 
Q 59.328125 70.75 64.40625 67.28125 
z
" id="DejaVuSans-67"/>
     </defs>
     <g transform="translate(63.068848 238.07825)scale(0.144 -0.144)">
      <use xlink:href="#DejaVuSans-80"/>
      <use x="60.287109" xlink:href="#DejaVuSans-114"/>
      <use x="101.369141" xlink:href="#DejaVuSans-111"/>
      <use x="162.550781" xlink:href="#DejaVuSans-116"/>
      <use x="201.759766" xlink:href="#DejaVuSans-101"/>
      <use x="263.283203" xlink:href="#DejaVuSans-111"/>
      <use x="324.464844" xlink:href="#DejaVuSans-109"/>
      <use x="421.876953" xlink:href="#DejaVuSans-105"/>
      <use x="449.660156" xlink:href="#DejaVuSans-99"/>
      <use x="504.640625" xlink:href="#DejaVuSans-115"/>
      <use x="556.740234" xlink:href="#DejaVuSans-32"/>
      <use x="588.527344" xlink:href="#DejaVuSans-109"/>
      <use x="685.939453" xlink:href="#DejaVuSans-101"/>
      <use x="747.462891" xlink:href="#DejaVuSans-97"/>
      <use x="808.742188" xlink:href="#DejaVuSans-110"/>
      <use x="872.121094" xlink:href="#DejaVuSans-32"/>
      <use x="903.908203" xlink:href="#DejaVuSans-70"/>
      <use x="961.427734" xlink:href="#DejaVuSans-67"/>
     </g>
    </g>
   </g>
   <g id="matplotlib.axis_2">
    <g id="ytick_1">
     <g id="line2d_4">
      <defs>
       <path d="M 0 0 
L -3.5 0 
" id="m9557afc092" style="stroke:#000000;stroke-width:0.8;"/>
      </defs>
      <g>
       <use style="stroke:#000000;stroke-width:0.8;" x="66.315625" xlink:href="#m9557afc092" y="202.2"/>
      </g>
     </g>
     <g id="text_5">
      <!-- −20 -->
      <defs>
       <path d="M 19.1875 8.296875 
L 53.609375 8.296875 
L 53.609375 0 
L 7.328125 0 
L 7.328125 8.296875 
Q 12.9375 14.109375 22.625 23.890625 
Q 32.328125 33.6875 34.8125 36.53125 
Q 39.546875 41.84375 41.421875 45.53125 
Q 43.3125 49.21875 43.3125 52.78125 
Q 43.3125 58.59375 39.234375 62.25 
Q 35.15625 65.921875 28.609375 65.921875 
Q 23.96875 65.921875 18.8125 64.3125 
Q 13.671875 62.703125 7.8125 59.421875 
L 7.8125 69.390625 
Q 13.765625 71.78125 18.9375 73 
Q 24.125 74.21875 28.421875 74.21875 
Q 39.75 74.21875 46.484375 68.546875 
Q 53.21875 62.890625 53.21875 53.421875 
Q 53.21875 48.921875 51.53125 44.890625 
Q 49.859375 40.875 45.40625 35.40625 
Q 44.1875 33.984375 37.640625 27.21875 
Q 31.109375 20.453125 19.1875 8.296875 
z
" id="DejaVuSans-50"/>
      </defs>
      <g transform="translate(28.924875 207.670875)scale(0.144 -0.144)">
       <use xlink:href="#DejaVuSans-8722"/>
       <use x="83.789062" xlink:href="#DejaVuSans-50"/>
       <use x="147.412109" xlink:href="#DejaVuSans-48"/>
      </g>
     </g>
    </g>
    <g id="ytick_2">
     <g id="line2d_5">
      <g>
       <use style="stroke:#000000;stroke-width:0.8;" x="66.315625" xlink:href="#m9557afc092" y="163.277857"/>
      </g>
     </g>
     <g id="text_6">
      <!-- −10 -->
      <defs>
       <path d="M 12.40625 8.296875 
L 28.515625 8.296875 
L 28.515625 63.921875 
L 10.984375 60.40625 
L 10.984375 69.390625 
L 28.421875 72.90625 
L 38.28125 72.90625 
L 38.28125 8.296875 
L 54.390625 8.296875 
L 54.390625 0 
L 12.40625 0 
z
" id="DejaVuSans-49"/>
      </defs>
      <g transform="translate(28.924875 168.748732)scale(0.144 -0.144)">
       <use xlink:href="#DejaVuSans-8722"/>
       <use x="83.789062" xlink:href="#DejaVuSans-49"/>
       <use x="147.412109" xlink:href="#DejaVuSans-48"/>
      </g>
     </g>
    </g>
    <g id="ytick_3">
     <g id="line2d_6">
      <g>
       <use style="stroke:#000000;stroke-width:0.8;" x="66.315625" xlink:href="#m9557afc092" y="124.355714"/>
      </g>
     </g>
     <g id="text_7">
      <!-- 0 -->
      <g transform="translate(50.153625 129.826589)scale(0.144 -0.144)">
       <use xlink:href="#DejaVuSans-48"/>
      </g>
     </g>
    </g>
    <g id="ytick_4">
     <g id="line2d_7">
      <g>
       <use style="stroke:#000000;stroke-width:0.8;" x="66.315625" xlink:href="#m9557afc092" y="85.433571"/>
      </g>
     </g>
     <g id="text_8">
      <!-- 10 -->
      <g transform="translate(40.991625 90.904446)scale(0.144 -0.144)">
       <use xlink:href="#DejaVuSans-49"/>
       <use x="63.623047" xlink:href="#DejaVuSans-48"/>
      </g>
     </g>
    </g>
    <g id="ytick_5">
     <g id="line2d_8">
      <g>
       <use style="stroke:#000000;stroke-width:0.8;" x="66.315625" xlink:href="#m9557afc092" y="46.511429"/>
      </g>
     </g>
     <g id="text_9">
      <!-- 20 -->
      <g transform="translate(40.991625 51.982304)scale(0.144 -0.144)">
       <use xlink:href="#DejaVuSans-50"/>
       <use x="63.623047" xlink:href="#DejaVuSans-48"/>
      </g>
     </g>
    </g>
    <g id="text_10">
     <!-- Simulated flux (pFBA) FC -->
     <defs>
      <path d="M 53.515625 70.515625 
L 53.515625 60.890625 
Q 47.90625 63.578125 42.921875 64.890625 
Q 37.9375 66.21875 33.296875 66.21875 
Q 25.25 66.21875 20.875 63.09375 
Q 16.5 59.96875 16.5 54.203125 
Q 16.5 49.359375 19.40625 46.890625 
Q 22.3125 44.4375 30.421875 42.921875 
L 36.375 41.703125 
Q 47.40625 39.59375 52.65625 34.296875 
Q 57.90625 29 57.90625 20.125 
Q 57.90625 9.515625 50.796875 4.046875 
Q 43.703125 -1.421875 29.984375 -1.421875 
Q 24.8125 -1.421875 18.96875 -0.25 
Q 13.140625 0.921875 6.890625 3.21875 
L 6.890625 13.375 
Q 12.890625 10.015625 18.65625 8.296875 
Q 24.421875 6.59375 29.984375 6.59375 
Q 38.421875 6.59375 43.015625 9.90625 
Q 47.609375 13.234375 47.609375 19.390625 
Q 47.609375 24.75 44.3125 27.78125 
Q 41.015625 30.8125 33.5 32.328125 
L 27.484375 33.5 
Q 16.453125 35.6875 11.515625 40.375 
Q 6.59375 45.0625 6.59375 53.421875 
Q 6.59375 63.09375 13.40625 68.65625 
Q 20.21875 74.21875 32.171875 74.21875 
Q 37.3125 74.21875 42.625 73.28125 
Q 47.953125 72.359375 53.515625 70.515625 
z
" id="DejaVuSans-83"/>
      <path d="M 8.5 21.578125 
L 8.5 54.6875 
L 17.484375 54.6875 
L 17.484375 21.921875 
Q 17.484375 14.15625 20.5 10.265625 
Q 23.53125 6.390625 29.59375 6.390625 
Q 36.859375 6.390625 41.078125 11.03125 
Q 45.3125 15.671875 45.3125 23.6875 
L 45.3125 54.6875 
L 54.296875 54.6875 
L 54.296875 0 
L 45.3125 0 
L 45.3125 8.40625 
Q 42.046875 3.421875 37.71875 1 
Q 33.40625 -1.421875 27.6875 -1.421875 
Q 18.265625 -1.421875 13.375 4.4375 
Q 8.5 10.296875 8.5 21.578125 
z
M 31.109375 56 
z
" id="DejaVuSans-117"/>
      <path d="M 9.421875 75.984375 
L 18.40625 75.984375 
L 18.40625 0 
L 9.421875 0 
z
" id="DejaVuSans-108"/>
      <path d="M 45.40625 46.390625 
L 45.40625 75.984375 
L 54.390625 75.984375 
L 54.390625 0 
L 45.40625 0 
L 45.40625 8.203125 
Q 42.578125 3.328125 38.25 0.953125 
Q 33.9375 -1.421875 27.875 -1.421875 
Q 17.96875 -1.421875 11.734375 6.484375 
Q 5.515625 14.40625 5.515625 27.296875 
Q 5.515625 40.1875 11.734375 48.09375 
Q 17.96875 56 27.875 56 
Q 33.9375 56 38.25 53.625 
Q 42.578125 51.265625 45.40625 46.390625 
z
M 14.796875 27.296875 
Q 14.796875 17.390625 18.875 11.75 
Q 22.953125 6.109375 30.078125 6.109375 
Q 37.203125 6.109375 41.296875 11.75 
Q 45.40625 17.390625 45.40625 27.296875 
Q 45.40625 37.203125 41.296875 42.84375 
Q 37.203125 48.484375 30.078125 48.484375 
Q 22.953125 48.484375 18.875 42.84375 
Q 14.796875 37.203125 14.796875 27.296875 
z
" id="DejaVuSans-100"/>
      <path d="M 37.109375 75.984375 
L 37.109375 68.5 
L 28.515625 68.5 
Q 23.6875 68.5 21.796875 66.546875 
Q 19.921875 64.59375 19.921875 59.515625 
L 19.921875 54.6875 
L 34.71875 54.6875 
L 34.71875 47.703125 
L 19.921875 47.703125 
L 19.921875 0 
L 10.890625 0 
L 10.890625 47.703125 
L 2.296875 47.703125 
L 2.296875 54.6875 
L 10.890625 54.6875 
L 10.890625 58.5 
Q 10.890625 67.625 15.140625 71.796875 
Q 19.390625 75.984375 28.609375 75.984375 
z
" id="DejaVuSans-102"/>
      <path d="M 54.890625 54.6875 
L 35.109375 28.078125 
L 55.90625 0 
L 45.3125 0 
L 29.390625 21.484375 
L 13.484375 0 
L 2.875 0 
L 24.125 28.609375 
L 4.6875 54.6875 
L 15.28125 54.6875 
L 29.78125 35.203125 
L 44.28125 54.6875 
z
" id="DejaVuSans-120"/>
      <path d="M 31 75.875 
Q 24.46875 64.65625 21.28125 53.65625 
Q 18.109375 42.671875 18.109375 31.390625 
Q 18.109375 20.125 21.3125 9.0625 
Q 24.515625 -2 31 -13.1875 
L 23.1875 -13.1875 
Q 15.875 -1.703125 12.234375 9.375 
Q 8.59375 20.453125 8.59375 31.390625 
Q 8.59375 42.28125 12.203125 53.3125 
Q 15.828125 64.359375 23.1875 75.875 
z
" id="DejaVuSans-40"/>
      <path d="M 18.109375 8.203125 
L 18.109375 -20.796875 
L 9.078125 -20.796875 
L 9.078125 54.6875 
L 18.109375 54.6875 
L 18.109375 46.390625 
Q 20.953125 51.265625 25.265625 53.625 
Q 29.59375 56 35.59375 56 
Q 45.5625 56 51.78125 48.09375 
Q 58.015625 40.1875 58.015625 27.296875 
Q 58.015625 14.40625 51.78125 6.484375 
Q 45.5625 -1.421875 35.59375 -1.421875 
Q 29.59375 -1.421875 25.265625 0.953125 
Q 20.953125 3.328125 18.109375 8.203125 
z
M 48.6875 27.296875 
Q 48.6875 37.203125 44.609375 42.84375 
Q 40.53125 48.484375 33.40625 48.484375 
Q 26.265625 48.484375 22.1875 42.84375 
Q 18.109375 37.203125 18.109375 27.296875 
Q 18.109375 17.390625 22.1875 11.75 
Q 26.265625 6.109375 33.40625 6.109375 
Q 40.53125 6.109375 44.609375 11.75 
Q 48.6875 17.390625 48.6875 27.296875 
z
" id="DejaVuSans-112"/>
      <path d="M 19.671875 34.8125 
L 19.671875 8.109375 
L 35.5 8.109375 
Q 43.453125 8.109375 47.28125 11.40625 
Q 51.125 14.703125 51.125 21.484375 
Q 51.125 28.328125 47.28125 31.5625 
Q 43.453125 34.8125 35.5 34.8125 
z
M 19.671875 64.796875 
L 19.671875 42.828125 
L 34.28125 42.828125 
Q 41.5 42.828125 45.03125 45.53125 
Q 48.578125 48.25 48.578125 53.8125 
Q 48.578125 59.328125 45.03125 62.0625 
Q 41.5 64.796875 34.28125 64.796875 
z
M 9.8125 72.90625 
L 35.015625 72.90625 
Q 46.296875 72.90625 52.390625 68.21875 
Q 58.5 63.53125 58.5 54.890625 
Q 58.5 48.1875 55.375 44.234375 
Q 52.25 40.28125 46.1875 39.3125 
Q 53.46875 37.75 57.5 32.78125 
Q 61.53125 27.828125 61.53125 20.40625 
Q 61.53125 10.640625 54.890625 5.3125 
Q 48.25 0 35.984375 0 
L 9.8125 0 
z
" id="DejaVuSans-66"/>
      <path d="M 34.1875 63.1875 
L 20.796875 26.90625 
L 47.609375 26.90625 
z
M 28.609375 72.90625 
L 39.796875 72.90625 
L 67.578125 0 
L 57.328125 0 
L 50.6875 18.703125 
L 17.828125 18.703125 
L 11.1875 0 
L 0.78125 0 
z
" id="DejaVuSans-65"/>
      <path d="M 8.015625 75.875 
L 15.828125 75.875 
Q 23.140625 64.359375 26.78125 53.3125 
Q 30.421875 42.28125 30.421875 31.390625 
Q 30.421875 20.453125 26.78125 9.375 
Q 23.140625 -1.703125 15.828125 -13.1875 
L 8.015625 -13.1875 
Q 14.5 -2 17.703125 9.0625 
Q 20.90625 20.125 20.90625 31.390625 
Q 20.90625 42.671875 17.703125 53.65625 
Q 14.5 64.65625 8.015625 75.875 
z
" id="DejaVuSans-41"/>
     </defs>
     <g transform="translate(21.930125 214.327589)rotate(-90)scale(0.144 -0.144)">
      <use xlink:href="#DejaVuSans-83"/>
      <use x="63.476562" xlink:href="#DejaVuSans-105"/>
      <use x="91.259766" xlink:href="#DejaVuSans-109"/>
      <use x="188.671875" xlink:href="#DejaVuSans-117"/>
      <use x="252.050781" xlink:href="#DejaVuSans-108"/>
      <use x="279.833984" xlink:href="#DejaVuSans-97"/>
      <use x="341.113281" xlink:href="#DejaVuSans-116"/>
      <use x="380.322266" xlink:href="#DejaVuSans-101"/>
      <use x="441.845703" xlink:href="#DejaVuSans-100"/>
      <use x="505.322266" xlink:href="#DejaVuSans-32"/>
      <use x="537.109375" xlink:href="#DejaVuSans-102"/>
      <use x="572.314453" xlink:href="#DejaVuSans-108"/>
      <use x="600.097656" xlink:href="#DejaVuSans-117"/>
      <use x="663.476562" xlink:href="#DejaVuSans-120"/>
      <use x="722.65625" xlink:href="#DejaVuSans-32"/>
      <use x="754.443359" xlink:href="#DejaVuSans-40"/>
      <use x="793.457031" xlink:href="#DejaVuSans-112"/>
      <use x="856.933594" xlink:href="#DejaVuSans-70"/>
      <use x="914.453125" xlink:href="#DejaVuSans-66"/>
      <use x="983.056641" xlink:href="#DejaVuSans-65"/>
      <use x="1051.464844" xlink:href="#DejaVuSans-41"/>
      <use x="1090.478516" xlink:href="#DejaVuSans-32"/>
      <use x="1122.265625" xlink:href="#DejaVuSans-70"/>
      <use x="1179.785156" xlink:href="#DejaVuSans-67"/>
     </g>
    </g>
   </g>
   <g id="line2d_9">
    <path clip-path="url(#p104e215e72)" d="M 66.315625 151.663756 
L 67.750011 151.106474 
L 69.184397 150.549193 
L 70.618782 149.991911 
L 72.053168 149.434629 
L 73.487554 148.877347 
L 74.92194 148.320066 
L 76.356326 147.762784 
L 77.790712 147.205502 
L 79.225097 146.64822 
L 80.659483 146.090939 
L 82.093869 145.533657 
L 83.528255 144.976375 
L 84.962641 144.419093 
L 86.397027 143.861812 
L 87.831412 143.30453 
L 89.265798 142.747248 
L 90.700184 142.189966 
L 92.13457 141.632685 
L 93.568956 141.075403 
L 95.003341 140.518121 
L 96.437727 139.960839 
L 97.872113 139.403558 
L 99.306499 138.846276 
L 100.740885 138.288994 
L 102.175271 137.731712 
L 103.609656 137.17443 
L 105.044042 136.617149 
L 106.478428 136.059867 
L 107.912814 135.502585 
L 109.3472 134.945303 
L 110.781585 134.388022 
L 112.215971 133.83074 
L 113.650357 133.273458 
L 115.084743 132.716176 
L 116.519129 132.158895 
L 117.953515 131.601613 
L 119.3879 131.044331 
L 120.822286 130.487049 
L 122.256672 129.929768 
L 123.691058 129.372486 
L 125.125444 128.815204 
L 126.55983 128.257922 
L 127.994215 127.700641 
L 129.428601 127.143359 
L 130.862987 126.586077 
L 132.297373 126.028795 
L 133.731759 125.471514 
L 135.166144 124.914232 
L 136.60053 124.35695 
L 138.034916 123.799668 
L 139.469302 123.242387 
L 140.903688 122.685105 
L 142.338074 122.127823 
L 143.772459 121.570541 
L 145.206845 121.013259 
L 146.641231 120.455978 
L 148.075617 119.898696 
L 149.510003 119.341414 
L 150.944389 118.784132 
L 152.378774 118.226851 
L 153.81316 117.669569 
L 155.247546 117.112287 
L 156.681932 116.555005 
L 158.116318 115.997724 
L 159.550703 115.440442 
L 160.985089 114.88316 
L 162.419475 114.325878 
L 163.853861 113.768597 
L 165.288247 113.211315 
L 166.722633 112.654033 
L 168.157018 112.096751 
L 169.591404 111.53947 
L 171.02579 110.982188 
L 172.460176 110.424906 
L 173.894562 109.867624 
L 175.328948 109.310343 
L 176.763333 108.753061 
L 178.197719 108.195779 
L 179.632105 107.638497 
L 181.066491 107.081215 
L 182.500877 106.523934 
L 183.935262 105.966652 
L 185.369648 105.40937 
L 186.804034 104.852088 
L 188.23842 104.294807 
L 189.672806 103.737525 
L 191.107192 103.180243 
L 192.541577 102.622961 
L 193.975963 102.06568 
L 195.410349 101.508398 
L 196.844735 100.951116 
L 198.279121 100.393834 
L 199.713506 99.836553 
L 201.147892 99.279271 
L 202.582278 98.721989 
L 204.016664 98.164707 
L 205.45105 97.607426 
L 206.885436 97.050144 
L 208.319821 96.492862 
" style="fill:none;stroke:#1f77b4;stroke-linecap:square;stroke-width:2.25;"/>
   </g>
   <g id="patch_3">
    <path d="M 66.315625 202.2 
L 66.315625 46.511429 
" style="fill:none;stroke:#000000;stroke-linecap:square;stroke-linejoin:miter;stroke-width:0.8;"/>
   </g>
   <g id="patch_4">
    <path d="M 66.315625 202.2 
L 208.319821 202.2 
" style="fill:none;stroke:#000000;stroke-linecap:square;stroke-linejoin:miter;stroke-width:0.8;"/>
   </g>
  </g>
  <g id="axes_2">
   <g id="patch_5">
    <path d="M 66.315625 41.142857 
L 208.319821 41.142857 
L 208.319821 14.3 
L 66.315625 14.3 
z
" style="fill:#ffffff;"/>
   </g>
   <g id="patch_6">
    <path clip-path="url(#p23c54c7515)" d="M 71.995793 41.142857 
L 77.32095 41.142857 
L 77.32095 40.120272 
L 71.995793 40.120272 
z
" style="fill:#1f77b4;opacity:0.4;"/>
   </g>
   <g id="patch_7">
    <path clip-path="url(#p23c54c7515)" d="M 77.32095 41.142857 
L 82.646108 41.142857 
L 82.646108 41.142857 
L 77.32095 41.142857 
z
" style="fill:#1f77b4;opacity:0.4;"/>
   </g>
   <g id="patch_8">
    <path clip-path="url(#p23c54c7515)" d="M 82.646108 41.142857 
L 87.971265 41.142857 
L 87.971265 41.142857 
L 82.646108 41.142857 
z
" style="fill:#1f77b4;opacity:0.4;"/>
   </g>
   <g id="patch_9">
    <path clip-path="url(#p23c54c7515)" d="M 87.971265 41.142857 
L 93.296422 41.142857 
L 93.296422 41.142857 
L 87.971265 41.142857 
z
" style="fill:#1f77b4;opacity:0.4;"/>
   </g>
   <g id="patch_10">
    <path clip-path="url(#p23c54c7515)" d="M 93.296422 41.142857 
L 98.62158 41.142857 
L 98.62158 41.142857 
L 93.296422 41.142857 
z
" style="fill:#1f77b4;opacity:0.4;"/>
   </g>
   <g id="patch_11">
    <path clip-path="url(#p23c54c7515)" d="M 98.62158 41.142857 
L 103.946737 41.142857 
L 103.946737 41.142857 
L 98.62158 41.142857 
z
" style="fill:#1f77b4;opacity:0.4;"/>
   </g>
   <g id="patch_12">
    <path clip-path="url(#p23c54c7515)" d="M 103.946737 41.142857 
L 109.271894 41.142857 
L 109.271894 40.120272 
L 103.946737 40.120272 
z
" style="fill:#1f77b4;opacity:0.4;"/>
   </g>
   <g id="patch_13">
    <path clip-path="url(#p23c54c7515)" d="M 109.271894 41.142857 
L 114.597052 41.142857 
L 114.597052 39.097687 
L 109.271894 39.097687 
z
" style="fill:#1f77b4;opacity:0.4;"/>
   </g>
   <g id="patch_14">
    <path clip-path="url(#p23c54c7515)" d="M 114.597052 41.142857 
L 119.922209 41.142857 
L 119.922209 38.075102 
L 114.597052 38.075102 
z
" style="fill:#1f77b4;opacity:0.4;"/>
   </g>
   <g id="patch_15">
    <path clip-path="url(#p23c54c7515)" d="M 119.922209 41.142857 
L 125.247367 41.142857 
L 125.247367 29.894422 
L 119.922209 29.894422 
z
" style="fill:#1f77b4;opacity:0.4;"/>
   </g>
   <g id="patch_16">
    <path clip-path="url(#p23c54c7515)" d="M 125.247367 41.142857 
L 130.572524 41.142857 
L 130.572524 23.758912 
L 125.247367 23.758912 
z
" style="fill:#1f77b4;opacity:0.4;"/>
   </g>
   <g id="patch_17">
    <path clip-path="url(#p23c54c7515)" d="M 130.572524 41.142857 
L 135.897681 41.142857 
L 135.897681 15.578231 
L 130.572524 15.578231 
z
" style="fill:#1f77b4;opacity:0.4;"/>
   </g>
   <g id="patch_18">
    <path clip-path="url(#p23c54c7515)" d="M 135.897681 41.142857 
L 141.222839 41.142857 
L 141.222839 36.029932 
L 135.897681 36.029932 
z
" style="fill:#1f77b4;opacity:0.4;"/>
   </g>
   <g id="patch_19">
    <path clip-path="url(#p23c54c7515)" d="M 141.222839 41.142857 
L 146.547996 41.142857 
L 146.547996 39.097687 
L 141.222839 39.097687 
z
" style="fill:#1f77b4;opacity:0.4;"/>
   </g>
   <g id="patch_20">
    <path clip-path="url(#p23c54c7515)" d="M 146.547996 41.142857 
L 151.873153 41.142857 
L 151.873153 39.097687 
L 146.547996 39.097687 
z
" style="fill:#1f77b4;opacity:0.4;"/>
   </g>
   <g id="patch_21">
    <path clip-path="url(#p23c54c7515)" d="M 151.873153 41.142857 
L 157.198311 41.142857 
L 157.198311 40.120272 
L 151.873153 40.120272 
z
" style="fill:#1f77b4;opacity:0.4;"/>
   </g>
   <g id="matplotlib.axis_3">
    <g id="xtick_4">
     <g id="line2d_10">
      <g>
       <use style="stroke:#000000;stroke-width:0.8;" x="66.315625" xlink:href="#m4261248538" y="41.142857"/>
      </g>
     </g>
    </g>
    <g id="xtick_5">
     <g id="line2d_11">
      <g>
       <use style="stroke:#000000;stroke-width:0.8;" x="137.317723" xlink:href="#m4261248538" y="41.142857"/>
      </g>
     </g>
    </g>
    <g id="xtick_6">
     <g id="line2d_12">
      <g>
       <use style="stroke:#000000;stroke-width:0.8;" x="208.319821" xlink:href="#m4261248538" y="41.142857"/>
      </g>
     </g>
    </g>
   </g>
   <g id="matplotlib.axis_4">
    <g id="ytick_6"/>
    <g id="ytick_7"/>
   </g>
   <g id="line2d_13">
    <path clip-path="url(#p23c54c7515)" d="M 57.868165 41.137431 
L 59.014203 41.132035 
L 60.160241 41.122494 
L 61.306279 41.106716 
L 62.452317 41.082351 
L 63.598355 41.047302 
L 64.744393 41.00051 
L 65.890431 40.942828 
L 67.03647 40.877712 
L 68.182508 40.811329 
L 69.328546 40.751832 
L 70.474584 40.707812 
L 71.620622 40.686283 
L 72.76666 40.690862 
L 73.912698 40.720769 
L 75.058736 40.771048 
L 76.204775 40.833911 
L 77.350813 40.900703 
L 78.496851 40.963818 
L 79.642889 41.01799 
L 80.788927 41.060709 
L 81.934965 41.091878 
L 83.081003 41.113014 
L 84.227041 41.126376 
L 85.37308 41.134265 
L 86.519118 41.138613 
L 87.665156 41.140827 
L 88.811194 41.1418 
L 89.957232 41.141989 
L 91.10327 41.141482 
L 92.249308 41.139997 
L 93.395346 41.136803 
L 94.541385 41.130568 
L 95.687423 41.119164 
L 96.833461 41.0995 
L 97.979499 41.067479 
L 99.125537 41.018183 
L 100.271575 40.946355 
L 101.417613 40.847156 
L 102.563651 40.717074 
L 103.70969 40.554719 
L 104.855728 40.361237 
L 106.001766 40.14006 
L 107.147804 39.895898 
L 108.293842 39.633021 
L 109.43988 39.353108 
L 110.585918 39.053075 
L 111.731956 38.723345 
L 112.877995 38.34707 
L 114.024033 37.900717 
L 115.170071 37.356329 
L 116.316109 36.685622 
L 117.462147 35.86568 
L 118.608185 34.885528 
L 119.754223 33.752079 
L 120.900261 32.493506 
L 122.0463 31.158169 
L 123.192338 29.808391 
L 124.338376 28.510356 
L 125.484414 27.323335 
L 126.630452 26.292285 
L 127.77649 25.446752 
L 128.922528 24.806242 
L 130.068566 24.389001 
L 131.214605 24.219232 
L 132.360643 24.328248 
L 133.506681 24.747764 
L 134.652719 25.497308 
L 135.798757 26.570629 
L 136.944795 27.926791 
L 138.090833 29.489962 
L 139.236872 31.15867 
L 140.38291 32.821872 
L 141.528948 34.377103 
L 142.674986 35.745724 
L 143.821024 36.881834 
L 144.967062 37.773672 
L 146.1131 38.438536 
L 147.259138 38.913539 
L 148.405177 39.244962 
L 149.551215 39.478638 
L 150.697253 39.653078 
L 151.843291 39.796133 
L 152.989329 39.92497 
L 154.135367 40.048357 
L 155.281405 40.1698 
L 156.427443 40.290203 
L 157.573482 40.409363 
L 158.71952 40.526328 
L 159.865558 40.639234 
L 161.011596 40.745264 
L 162.157634 40.841083 
L 163.303672 40.923646 
L 164.44971 40.991026 
L 165.595748 41.042876 
L 166.741787 41.080401 
L 167.887825 41.105906 
L 169.033863 41.122177 
L 170.179901 41.131917 
L 171.325939 41.13739 
" style="fill:none;stroke:#1f77b4;stroke-linecap:square;stroke-width:1.5;"/>
   </g>
   <g id="patch_22">
    <path d="M 66.315625 41.142857 
L 208.319821 41.142857 
" style="fill:none;stroke:#000000;stroke-linecap:square;stroke-linejoin:miter;stroke-width:0.8;"/>
   </g>
  </g>
  <g id="axes_3">
   <g id="patch_23">
    <path d="M 213.216518 202.2 
L 237.7 202.2 
L 237.7 46.511429 
L 213.216518 46.511429 
z
" style="fill:#ffffff;"/>
   </g>
   <g id="patch_24">
    <path clip-path="url(#p89b12f2f02)" d="M 213.216518 185.074257 
L 214.006945 185.074257 
L 214.006945 171.50016 
L 213.216518 171.50016 
z
" style="fill:#1f77b4;opacity:0.4;"/>
   </g>
   <g id="patch_25">
    <path clip-path="url(#p89b12f2f02)" d="M 213.216518 171.50016 
L 214.402159 171.50016 
L 214.402159 157.926063 
L 213.216518 157.926063 
z
" style="fill:#1f77b4;opacity:0.4;"/>
   </g>
   <g id="patch_26">
    <path clip-path="url(#p89b12f2f02)" d="M 213.216518 157.926063 
L 213.611731 157.926063 
L 213.611731 144.351965 
L 213.216518 144.351965 
z
" style="fill:#1f77b4;opacity:0.4;"/>
   </g>
   <g id="patch_27">
    <path clip-path="url(#p89b12f2f02)" d="M 213.216518 144.351965 
L 214.006945 144.351965 
L 214.006945 130.777868 
L 213.216518 130.777868 
z
" style="fill:#1f77b4;opacity:0.4;"/>
   </g>
   <g id="patch_28">
    <path clip-path="url(#p89b12f2f02)" d="M 213.216518 130.777868 
L 236.53412 130.777868 
L 236.53412 117.203771 
L 213.216518 117.203771 
z
" style="fill:#1f77b4;opacity:0.4;"/>
   </g>
   <g id="patch_29">
    <path clip-path="url(#p89b12f2f02)" d="M 213.216518 117.203771 
L 213.216518 117.203771 
L 213.216518 103.629673 
L 213.216518 103.629673 
z
" style="fill:#1f77b4;opacity:0.4;"/>
   </g>
   <g id="patch_30">
    <path clip-path="url(#p89b12f2f02)" d="M 213.216518 103.629673 
L 213.216518 103.629673 
L 213.216518 90.055576 
L 213.216518 90.055576 
z
" style="fill:#1f77b4;opacity:0.4;"/>
   </g>
   <g id="patch_31">
    <path clip-path="url(#p89b12f2f02)" d="M 213.216518 90.055576 
L 214.402159 90.055576 
L 214.402159 76.481479 
L 213.216518 76.481479 
z
" style="fill:#1f77b4;opacity:0.4;"/>
   </g>
   <g id="matplotlib.axis_5">
    <g id="xtick_7"/>
    <g id="xtick_8"/>
   </g>
   <g id="matplotlib.axis_6">
    <g id="ytick_8">
     <g id="line2d_14">
      <g>
       <use style="stroke:#000000;stroke-width:0.8;" x="213.216518" xlink:href="#m9557afc092" y="202.2"/>
      </g>
     </g>
    </g>
    <g id="ytick_9">
     <g id="line2d_15">
      <g>
       <use style="stroke:#000000;stroke-width:0.8;" x="213.216518" xlink:href="#m9557afc092" y="163.277857"/>
      </g>
     </g>
    </g>
    <g id="ytick_10">
     <g id="line2d_16">
      <g>
       <use style="stroke:#000000;stroke-width:0.8;" x="213.216518" xlink:href="#m9557afc092" y="124.355714"/>
      </g>
     </g>
    </g>
    <g id="ytick_11">
     <g id="line2d_17">
      <g>
       <use style="stroke:#000000;stroke-width:0.8;" x="213.216518" xlink:href="#m9557afc092" y="85.433571"/>
      </g>
     </g>
    </g>
    <g id="ytick_12">
     <g id="line2d_18">
      <g>
       <use style="stroke:#000000;stroke-width:0.8;" x="213.216518" xlink:href="#m9557afc092" y="46.511429"/>
      </g>
     </g>
    </g>
   </g>
   <g id="line2d_19">
    <path clip-path="url(#p89b12f2f02)" d="M 213.220231 206.055461 
L 213.223468 204.534701 
L 213.228958 203.013942 
L 213.237812 201.493182 
L 213.251396 199.972423 
L 213.271209 198.451663 
L 213.298671 196.930904 
L 213.334823 195.410145 
L 213.379984 193.889385 
L 213.433462 192.368626 
L 213.4934 190.847866 
L 213.556853 189.327107 
L 213.620134 187.806347 
L 213.679402 186.285588 
L 213.731397 184.764828 
L 213.774182 183.244069 
L 213.807705 181.723309 
L 213.834017 180.20255 
L 213.857008 178.681791 
L 213.881622 177.161031 
L 213.912623 175.640272 
L 213.953146 174.119512 
L 214.003403 172.598753 
L 214.059967 171.077993 
L 214.11597 169.557234 
L 214.162337 168.036474 
L 214.189814 166.515715 
L 214.1913 164.994956 
L 214.163776 163.474196 
L 214.109264 161.953437 
L 214.034494 160.432677 
L 213.949412 158.911918 
L 213.865011 157.391158 
L 213.7912 155.870399 
L 213.735392 154.349639 
L 213.702294 152.82888 
L 213.695058 151.30812 
L 213.71763 149.787361 
L 213.777913 148.266602 
L 213.891198 146.745842 
L 214.083198 145.225083 
L 214.391874 143.704323 
L 214.86704 142.183564 
L 215.566551 140.662804 
L 216.548026 139.142045 
L 217.855762 137.621285 
L 219.50398 136.100526 
L 221.459583 134.579766 
L 223.629509 133.059007 
L 225.858505 131.538248 
L 227.94172 130.017488 
L 229.652849 128.496729 
L 230.783367 126.975969 
L 231.183763 125.45521 
L 230.795542 123.93445 
L 229.664543 122.413691 
L 227.931438 120.892931 
L 225.802192 119.372172 
L 223.50714 117.851413 
L 221.259995 116.330653 
L 219.226704 114.809894 
L 217.509812 113.289134 
L 216.148617 111.768375 
L 215.13116 110.247615 
L 214.412054 108.726856 
L 213.930471 107.206096 
L 213.624408 105.685337 
L 213.439669 104.164577 
L 213.333861 102.643818 
L 213.276747 101.123059 
L 213.248554 99.602299 
L 213.23756 98.08154 
L 213.237795 96.56078 
L 213.247215 95.040021 
L 213.266374 93.519261 
L 213.297432 91.998502 
L 213.343266 90.477742 
L 213.406521 88.956983 
L 213.488541 87.436223 
L 213.588287 85.915464 
L 213.701487 84.394705 
L 213.820352 82.873945 
L 213.934114 81.353186 
L 214.030476 79.832426 
L 214.097734 78.311667 
L 214.127105 76.790907 
L 214.114607 75.270148 
L 214.061945 73.749388 
L 213.976129 72.228629 
L 213.867944 70.70787 
L 213.749727 69.18711 
L 213.633089 67.666351 
L 213.527145 66.145591 
L 213.437597 64.624832 
L 213.366699 63.104072 
L 213.313892 61.583313 
L 213.276778 60.062553 
L 213.252111 58.541794 
L 213.236584 57.021034 
L 213.227316 55.500275 
" style="fill:none;stroke:#1f77b4;stroke-linecap:square;stroke-width:1.5;"/>
   </g>
   <g id="patch_32">
    <path d="M 213.216518 202.2 
L 213.216518 46.511429 
" style="fill:none;stroke:#000000;stroke-linecap:square;stroke-linejoin:miter;stroke-width:0.8;"/>
   </g>
  </g>
  <g id="text_11">
   <!-- $R^2=0.26$ -->
   <defs>
    <path d="M 25.203125 64.796875 
L 20.21875 38.921875 
L 32.90625 38.921875 
Q 40.375 38.921875 44.984375 43.046875 
Q 49.609375 47.171875 49.609375 53.8125 
Q 49.609375 59.125 46.5 61.953125 
Q 43.40625 64.796875 37.59375 64.796875 
z
M 43.3125 35.015625 
Q 46.4375 34.28125 48.515625 31.390625 
Q 50.59375 28.515625 53.328125 19.921875 
L 59.515625 0 
L 49.125 0 
L 43.40625 18.703125 
Q 41.21875 25.921875 38.328125 28.359375 
Q 35.453125 30.8125 29.5 30.8125 
L 18.609375 30.8125 
L 12.59375 0 
L 2.6875 0 
L 16.890625 72.90625 
L 39.109375 72.90625 
Q 49.21875 72.90625 54.609375 68.328125 
Q 60.015625 63.765625 60.015625 55.171875 
Q 60.015625 47.5625 55.421875 41.984375 
Q 50.828125 36.421875 43.3125 35.015625 
z
" id="DejaVuSans-Oblique-82"/>
    <path d="M 10.59375 45.40625 
L 73.1875 45.40625 
L 73.1875 37.203125 
L 10.59375 37.203125 
z
M 10.59375 25.484375 
L 73.1875 25.484375 
L 73.1875 17.1875 
L 10.59375 17.1875 
z
" id="DejaVuSans-61"/>
    <path d="M 10.6875 12.40625 
L 21 12.40625 
L 21 0 
L 10.6875 0 
z
" id="DejaVuSans-46"/>
    <path d="M 33.015625 40.375 
Q 26.375 40.375 22.484375 35.828125 
Q 18.609375 31.296875 18.609375 23.390625 
Q 18.609375 15.53125 22.484375 10.953125 
Q 26.375 6.390625 33.015625 6.390625 
Q 39.65625 6.390625 43.53125 10.953125 
Q 47.40625 15.53125 47.40625 23.390625 
Q 47.40625 31.296875 43.53125 35.828125 
Q 39.65625 40.375 33.015625 40.375 
z
M 52.59375 71.296875 
L 52.59375 62.3125 
Q 48.875 64.0625 45.09375 64.984375 
Q 41.3125 65.921875 37.59375 65.921875 
Q 27.828125 65.921875 22.671875 59.328125 
Q 17.53125 52.734375 16.796875 39.40625 
Q 19.671875 43.65625 24.015625 45.921875 
Q 28.375 48.1875 33.59375 48.1875 
Q 44.578125 48.1875 50.953125 41.515625 
Q 57.328125 34.859375 57.328125 23.390625 
Q 57.328125 12.15625 50.6875 5.359375 
Q 44.046875 -1.421875 33.015625 -1.421875 
Q 20.359375 -1.421875 13.671875 8.265625 
Q 6.984375 17.96875 6.984375 36.375 
Q 6.984375 53.65625 15.1875 63.9375 
Q 23.390625 74.21875 37.203125 74.21875 
Q 40.921875 74.21875 44.703125 73.484375 
Q 48.484375 72.75 52.59375 71.296875 
z
" id="DejaVuSans-54"/>
   </defs>
   <g transform="translate(63 87.362625)scale(0.12 -0.12)">
    <use transform="translate(0 0.765625)" xlink:href="#DejaVuSans-Oblique-82"/>
    <use transform="translate(76.499193 39.046875)scale(0.7)" xlink:href="#DejaVuSans-50"/>
    <use transform="translate(143.252122 0.765625)" xlink:href="#DejaVuSans-61"/>
    <use transform="translate(246.523607 0.765625)" xlink:href="#DejaVuSans-48"/>
    <use transform="translate(310.146654 0.765625)" xlink:href="#DejaVuSans-46"/>
    <use transform="translate(341.855638 0.765625)" xlink:href="#DejaVuSans-50"/>
    <use transform="translate(405.478685 0.765625)" xlink:href="#DejaVuSans-54"/>
   </g>
   <!-- $n=70$ -->
   <defs>
    <path d="M 55.71875 33.015625 
L 49.3125 0 
L 40.28125 0 
L 46.6875 32.671875 
Q 47.125 34.96875 47.359375 36.71875 
Q 47.609375 38.484375 47.609375 39.5 
Q 47.609375 43.609375 45.015625 45.890625 
Q 42.4375 48.1875 37.796875 48.1875 
Q 30.5625 48.1875 25.34375 43.375 
Q 20.125 38.578125 18.5 30.328125 
L 12.5 0 
L 3.515625 0 
L 14.109375 54.6875 
L 23.09375 54.6875 
L 21.296875 46.09375 
Q 25.046875 50.828125 30.3125 53.40625 
Q 35.59375 56 41.40625 56 
Q 48.640625 56 52.609375 52.09375 
Q 56.59375 48.1875 56.59375 41.109375 
Q 56.59375 39.359375 56.375 37.359375 
Q 56.15625 35.359375 55.71875 33.015625 
z
" id="DejaVuSans-Oblique-110"/>
    <path d="M 8.203125 72.90625 
L 55.078125 72.90625 
L 55.078125 68.703125 
L 28.609375 0 
L 18.3125 0 
L 43.21875 64.59375 
L 8.203125 64.59375 
z
" id="DejaVuSans-55"/>
   </defs>
   <g transform="translate(63 100.8)scale(0.12 -0.12)">
    <use transform="translate(0 0.78125)" xlink:href="#DejaVuSans-Oblique-110"/>
    <use transform="translate(82.861328 0.78125)" xlink:href="#DejaVuSans-61"/>
    <use transform="translate(186.132812 0.78125)" xlink:href="#DejaVuSans-55"/>
    <use transform="translate(249.755859 0.78125)" xlink:href="#DejaVuSans-48"/>
   </g>
  </g>
 </g>
 <defs>
  <clipPath id="p104e215e72">
   <rect height="155.688571" width="142.004196" x="66.315625" y="46.511429"/>
  </clipPath>
  <clipPath id="p23c54c7515">
   <rect height="26.842857" width="142.004196" x="66.315625" y="14.3"/>
  </clipPath>
  <clipPath id="p89b12f2f02">
   <rect height="155.688571" width="24.483482" x="213.216518" y="46.511429"/>
  </clipPath>
 </defs>
</svg>
