<?xml version="1.0" encoding="utf-8" standalone="no"?>
<!DOCTYPE svg PUBLIC "-//W3C//DTD SVG 1.1//EN"
  "http://www.w3.org/Graphics/SVG/1.1/DTD/svg11.dtd">
<!-- Created with matplotlib (https://matplotlib.org/) -->
<svg height="432pt" version="1.1" viewBox="0 0 360 432" width="360pt" xmlns="http://www.w3.org/2000/svg" xmlns:xlink="http://www.w3.org/1999/xlink">
 <defs>
  <style type="text/css">
*{stroke-linecap:butt;stroke-linejoin:round;}
  </style>
 </defs>
 <g id="figure_1">
  <g id="patch_1">
   <path d="M 0 432 
L 360 432 
L 360 0 
L 0 0 
z
" style="fill:#ffffff;"/>
  </g>
  <g id="axes_1">
   <g id="patch_2">
    <path d="M 62.8 136.616065 
L 345.7 136.616065 
L 345.7 14.3 
L 62.8 14.3 
z
" style="fill:#ffffff;"/>
   </g>
   <g id="PathCollection_1">
    <defs>
     <path d="M 0 3 
C 0.795609 3 1.55874 2.683901 2.12132 2.12132 
C 2.683901 1.55874 3 0.795609 3 0 
C 3 -0.795609 2.683901 -1.55874 2.12132 -2.12132 
C 1.55874 -2.683901 0.795609 -3 0 -3 
C -0.795609 -3 -1.55874 -2.683901 -2.12132 -2.12132 
C -2.683901 -1.55874 -3 -0.795609 -3 0 
C -3 0.795609 -2.683901 1.55874 -2.12132 2.12132 
C -1.55874 2.683901 -0.795609 3 0 3 
z
" id="m282b0b82f0" style="stroke:#a1c9f4;stroke-opacity:0.6;"/>
    </defs>
    <g clip-path="url(#p63d0ec0c85)">
     <use style="fill:#a1c9f4;fill-opacity:0.6;stroke:#a1c9f4;stroke-opacity:0.6;" x="78.699429" xlink:href="#m282b0b82f0" y="86.892009"/>
     <use style="fill:#a1c9f4;fill-opacity:0.6;stroke:#a1c9f4;stroke-opacity:0.6;" x="89.61687" xlink:href="#m282b0b82f0" y="99.304067"/>
     <use style="fill:#a1c9f4;fill-opacity:0.6;stroke:#a1c9f4;stroke-opacity:0.6;" x="100.534311" xlink:href="#m282b0b82f0" y="102.062302"/>
     <use style="fill:#a1c9f4;fill-opacity:0.6;stroke:#a1c9f4;stroke-opacity:0.6;" x="111.451752" xlink:href="#m282b0b82f0" y="110.337007"/>
     <use style="fill:#a1c9f4;fill-opacity:0.6;stroke:#a1c9f4;stroke-opacity:0.6;" x="122.369193" xlink:href="#m282b0b82f0" y="89.650244"/>
     <use style="fill:#a1c9f4;fill-opacity:0.6;stroke:#a1c9f4;stroke-opacity:0.6;" x="133.286634" xlink:href="#m282b0b82f0" y="78.617304"/>
     <use style="fill:#a1c9f4;fill-opacity:0.6;stroke:#a1c9f4;stroke-opacity:0.6;" x="144.204075" xlink:href="#m282b0b82f0" y="84.133774"/>
     <use style="fill:#a1c9f4;fill-opacity:0.6;stroke:#a1c9f4;stroke-opacity:0.6;" x="155.121516" xlink:href="#m282b0b82f0" y="113.095242"/>
     <use style="fill:#a1c9f4;fill-opacity:0.6;stroke:#a1c9f4;stroke-opacity:0.6;" x="166.038957" xlink:href="#m282b0b82f0" y="118.611712"/>
     <use style="fill:#a1c9f4;fill-opacity:0.6;stroke:#a1c9f4;stroke-opacity:0.6;" x="176.956398" xlink:href="#m282b0b82f0" y="128.265535"/>
     <use style="fill:#a1c9f4;fill-opacity:0.6;stroke:#a1c9f4;stroke-opacity:0.6;" x="187.873839" xlink:href="#m282b0b82f0" y="125.5073"/>
     <use style="fill:#a1c9f4;fill-opacity:0.6;stroke:#a1c9f4;stroke-opacity:0.6;" x="198.79128" xlink:href="#m282b0b82f0" y="121.369947"/>
     <use style="fill:#a1c9f4;fill-opacity:0.6;stroke:#a1c9f4;stroke-opacity:0.6;" x="209.70872" xlink:href="#m282b0b82f0" y="118.611712"/>
     <use style="fill:#a1c9f4;fill-opacity:0.6;stroke:#a1c9f4;stroke-opacity:0.6;" x="220.626161" xlink:href="#m282b0b82f0" y="108.95789"/>
     <use style="fill:#a1c9f4;fill-opacity:0.6;stroke:#a1c9f4;stroke-opacity:0.6;" x="231.543602" xlink:href="#m282b0b82f0" y="126.886417"/>
     <use style="fill:#a1c9f4;fill-opacity:0.6;stroke:#a1c9f4;stroke-opacity:0.6;" x="242.461043" xlink:href="#m282b0b82f0" y="124.128182"/>
     <use style="fill:#a1c9f4;fill-opacity:0.6;stroke:#a1c9f4;stroke-opacity:0.6;" x="253.378484" xlink:href="#m282b0b82f0" y="121.369947"/>
     <use style="fill:#a1c9f4;fill-opacity:0.6;stroke:#a1c9f4;stroke-opacity:0.6;" x="264.295925" xlink:href="#m282b0b82f0" y="117.232595"/>
     <use style="fill:#a1c9f4;fill-opacity:0.6;stroke:#a1c9f4;stroke-opacity:0.6;" x="275.213366" xlink:href="#m282b0b82f0" y="108.95789"/>
     <use style="fill:#a1c9f4;fill-opacity:0.6;stroke:#a1c9f4;stroke-opacity:0.6;" x="286.130807" xlink:href="#m282b0b82f0" y="128.265535"/>
     <use style="fill:#a1c9f4;fill-opacity:0.6;stroke:#a1c9f4;stroke-opacity:0.6;" x="297.048248" xlink:href="#m282b0b82f0" y="125.5073"/>
     <use style="fill:#a1c9f4;fill-opacity:0.6;stroke:#a1c9f4;stroke-opacity:0.6;" x="307.965689" xlink:href="#m282b0b82f0" y="121.369947"/>
     <use style="fill:#a1c9f4;fill-opacity:0.6;stroke:#a1c9f4;stroke-opacity:0.6;" x="318.88313" xlink:href="#m282b0b82f0" y="118.611712"/>
     <use style="fill:#a1c9f4;fill-opacity:0.6;stroke:#a1c9f4;stroke-opacity:0.6;" x="329.800571" xlink:href="#m282b0b82f0" y="108.95789"/>
    </g>
   </g>
   <g id="PathCollection_2">
    <defs>
     <path d="M -0 3 
L 3 -3 
L -3 -3 
z
" id="m62c8b60496" style="stroke:#ffb482;stroke-opacity:0.6;"/>
    </defs>
    <g clip-path="url(#p63d0ec0c85)">
     <use style="fill:#ffb482;fill-opacity:0.6;stroke:#ffb482;stroke-opacity:0.6;" x="78.699429" xlink:href="#m62c8b60496" y="85.009674"/>
     <use style="fill:#ffb482;fill-opacity:0.6;stroke:#ffb482;stroke-opacity:0.6;" x="89.61687" xlink:href="#m62c8b60496" y="87.287274"/>
     <use style="fill:#ffb482;fill-opacity:0.6;stroke:#ffb482;stroke-opacity:0.6;" x="111.451752" xlink:href="#m62c8b60496" y="107.241667"/>
     <use style="fill:#ffb482;fill-opacity:0.6;stroke:#ffb482;stroke-opacity:0.6;" x="122.369193" xlink:href="#m62c8b60496" y="90.26204"/>
     <use style="fill:#ffb482;fill-opacity:0.6;stroke:#ffb482;stroke-opacity:0.6;" x="133.286634" xlink:href="#m62c8b60496" y="71.39017"/>
     <use style="fill:#ffb482;fill-opacity:0.6;stroke:#ffb482;stroke-opacity:0.6;" x="144.204075" xlink:href="#m62c8b60496" y="62.605992"/>
     <use style="fill:#ffb482;fill-opacity:0.6;stroke:#ffb482;stroke-opacity:0.6;" x="155.121516" xlink:href="#m62c8b60496" y="118.340772"/>
     <use style="fill:#ffb482;fill-opacity:0.6;stroke:#ffb482;stroke-opacity:0.6;" x="166.038957" xlink:href="#m62c8b60496" y="102.66912"/>
     <use style="fill:#ffb482;fill-opacity:0.6;stroke:#ffb482;stroke-opacity:0.6;" x="176.956398" xlink:href="#m62c8b60496" y="101.828923"/>
     <use style="fill:#ffb482;fill-opacity:0.6;stroke:#ffb482;stroke-opacity:0.6;" x="187.873839" xlink:href="#m62c8b60496" y="93.65647"/>
     <use style="fill:#ffb482;fill-opacity:0.6;stroke:#ffb482;stroke-opacity:0.6;" x="198.79128" xlink:href="#m62c8b60496" y="68.641889"/>
     <use style="fill:#ffb482;fill-opacity:0.6;stroke:#ffb482;stroke-opacity:0.6;" x="209.70872" xlink:href="#m62c8b60496" y="60.072715"/>
     <use style="fill:#ffb482;fill-opacity:0.6;stroke:#ffb482;stroke-opacity:0.6;" x="220.626161" xlink:href="#m62c8b60496" y="21.089179"/>
     <use style="fill:#ffb482;fill-opacity:0.6;stroke:#ffb482;stroke-opacity:0.6;" x="231.543602" xlink:href="#m62c8b60496" y="104.002954"/>
     <use style="fill:#ffb482;fill-opacity:0.6;stroke:#ffb482;stroke-opacity:0.6;" x="242.461043" xlink:href="#m62c8b60496" y="92.450438"/>
     <use style="fill:#ffb482;fill-opacity:0.6;stroke:#ffb482;stroke-opacity:0.6;" x="253.378484" xlink:href="#m62c8b60496" y="71.059242"/>
     <use style="fill:#ffb482;fill-opacity:0.6;stroke:#ffb482;stroke-opacity:0.6;" x="264.295925" xlink:href="#m62c8b60496" y="58.792629"/>
     <use style="fill:#ffb482;fill-opacity:0.6;stroke:#ffb482;stroke-opacity:0.6;" x="275.213366" xlink:href="#m62c8b60496" y="26.383168"/>
     <use style="fill:#ffb482;fill-opacity:0.6;stroke:#ffb482;stroke-opacity:0.6;" x="286.130807" xlink:href="#m62c8b60496" y="117.945789"/>
     <use style="fill:#ffb482;fill-opacity:0.6;stroke:#ffb482;stroke-opacity:0.6;" x="297.048248" xlink:href="#m62c8b60496" y="114.888715"/>
     <use style="fill:#ffb482;fill-opacity:0.6;stroke:#ffb482;stroke-opacity:0.6;" x="307.965689" xlink:href="#m62c8b60496" y="115.380389"/>
     <use style="fill:#ffb482;fill-opacity:0.6;stroke:#ffb482;stroke-opacity:0.6;" x="318.88313" xlink:href="#m62c8b60496" y="111.248714"/>
     <use style="fill:#ffb482;fill-opacity:0.6;stroke:#ffb482;stroke-opacity:0.6;" x="329.800571" xlink:href="#m62c8b60496" y="98.10999"/>
    </g>
   </g>
   <g id="PathCollection_3">
    <defs>
     <path d="M -3 3 
L 3 3 
L 3 -3 
L -3 -3 
z
" id="m00e289b34b" style="stroke:#8de5a1;stroke-opacity:0.6;"/>
    </defs>
    <g clip-path="url(#p63d0ec0c85)">
     <use style="fill:#8de5a1;fill-opacity:0.6;stroke:#8de5a1;stroke-opacity:0.6;" x="78.699429" xlink:href="#m00e289b34b" y="94.877972"/>
     <use style="fill:#8de5a1;fill-opacity:0.6;stroke:#8de5a1;stroke-opacity:0.6;" x="89.61687" xlink:href="#m00e289b34b" y="95.164638"/>
     <use style="fill:#8de5a1;fill-opacity:0.6;stroke:#8de5a1;stroke-opacity:0.6;" x="100.534311" xlink:href="#m00e289b34b" y="86.096369"/>
     <use style="fill:#8de5a1;fill-opacity:0.6;stroke:#8de5a1;stroke-opacity:0.6;" x="111.451752" xlink:href="#m00e289b34b" y="110.889681"/>
     <use style="fill:#8de5a1;fill-opacity:0.6;stroke:#8de5a1;stroke-opacity:0.6;" x="122.369193" xlink:href="#m00e289b34b" y="90.617002"/>
     <use style="fill:#8de5a1;fill-opacity:0.6;stroke:#8de5a1;stroke-opacity:0.6;" x="133.286634" xlink:href="#m00e289b34b" y="83.559475"/>
     <use style="fill:#8de5a1;fill-opacity:0.6;stroke:#8de5a1;stroke-opacity:0.6;" x="144.204075" xlink:href="#m00e289b34b" y="76.820888"/>
     <use style="fill:#8de5a1;fill-opacity:0.6;stroke:#8de5a1;stroke-opacity:0.6;" x="155.121516" xlink:href="#m00e289b34b" y="117.352611"/>
     <use style="fill:#8de5a1;fill-opacity:0.6;stroke:#8de5a1;stroke-opacity:0.6;" x="166.038957" xlink:href="#m00e289b34b" y="100.562249"/>
     <use style="fill:#8de5a1;fill-opacity:0.6;stroke:#8de5a1;stroke-opacity:0.6;" x="176.956398" xlink:href="#m00e289b34b" y="127.633371"/>
     <use style="fill:#8de5a1;fill-opacity:0.6;stroke:#8de5a1;stroke-opacity:0.6;" x="187.873839" xlink:href="#m00e289b34b" y="125.690462"/>
     <use style="fill:#8de5a1;fill-opacity:0.6;stroke:#8de5a1;stroke-opacity:0.6;" x="198.79128" xlink:href="#m00e289b34b" y="119.902637"/>
     <use style="fill:#8de5a1;fill-opacity:0.6;stroke:#8de5a1;stroke-opacity:0.6;" x="209.70872" xlink:href="#m00e289b34b" y="117.83929"/>
     <use style="fill:#8de5a1;fill-opacity:0.6;stroke:#8de5a1;stroke-opacity:0.6;" x="220.626161" xlink:href="#m00e289b34b" y="108.513325"/>
     <use style="fill:#8de5a1;fill-opacity:0.6;stroke:#8de5a1;stroke-opacity:0.6;" x="231.543602" xlink:href="#m00e289b34b" y="128.185566"/>
     <use style="fill:#8de5a1;fill-opacity:0.6;stroke:#8de5a1;stroke-opacity:0.6;" x="242.461043" xlink:href="#m00e289b34b" y="125.47231"/>
     <use style="fill:#8de5a1;fill-opacity:0.6;stroke:#8de5a1;stroke-opacity:0.6;" x="253.378484" xlink:href="#m00e289b34b" y="120.459377"/>
     <use style="fill:#8de5a1;fill-opacity:0.6;stroke:#8de5a1;stroke-opacity:0.6;" x="264.295925" xlink:href="#m00e289b34b" y="117.530242"/>
     <use style="fill:#8de5a1;fill-opacity:0.6;stroke:#8de5a1;stroke-opacity:0.6;" x="275.213366" xlink:href="#m00e289b34b" y="110.060835"/>
     <use style="fill:#8de5a1;fill-opacity:0.6;stroke:#8de5a1;stroke-opacity:0.6;" x="286.130807" xlink:href="#m00e289b34b" y="127.141365"/>
     <use style="fill:#8de5a1;fill-opacity:0.6;stroke:#8de5a1;stroke-opacity:0.6;" x="297.048248" xlink:href="#m00e289b34b" y="125.535543"/>
     <use style="fill:#8de5a1;fill-opacity:0.6;stroke:#8de5a1;stroke-opacity:0.6;" x="307.965689" xlink:href="#m00e289b34b" y="122.829584"/>
     <use style="fill:#8de5a1;fill-opacity:0.6;stroke:#8de5a1;stroke-opacity:0.6;" x="318.88313" xlink:href="#m00e289b34b" y="119.8923"/>
     <use style="fill:#8de5a1;fill-opacity:0.6;stroke:#8de5a1;stroke-opacity:0.6;" x="329.800571" xlink:href="#m00e289b34b" y="108.270933"/>
    </g>
   </g>
   <g id="matplotlib.axis_1">
    <g id="xtick_1">
     <g id="line2d_1">
      <defs>
       <path d="M 0 0 
L 0 3.5 
" id="m07c0e5ef92" style="stroke:#000000;stroke-width:0.8;"/>
      </defs>
      <g>
       <use style="stroke:#000000;stroke-width:0.8;" x="78.699429" xlink:href="#m07c0e5ef92" y="136.616065"/>
      </g>
     </g>
     <g id="text_1">
      <!-- 0 -->
      <defs>
       <path d="M 31.78125 66.40625 
Q 24.171875 66.40625 20.328125 58.90625 
Q 16.5 51.421875 16.5 36.375 
Q 16.5 21.390625 20.328125 13.890625 
Q 24.171875 6.390625 31.78125 6.390625 
Q 39.453125 6.390625 43.28125 13.890625 
Q 47.125 21.390625 47.125 36.375 
Q 47.125 51.421875 43.28125 58.90625 
Q 39.453125 66.40625 31.78125 66.40625 
z
M 31.78125 74.21875 
Q 44.046875 74.21875 50.515625 64.515625 
Q 56.984375 54.828125 56.984375 36.375 
Q 56.984375 17.96875 50.515625 8.265625 
Q 44.046875 -1.421875 31.78125 -1.421875 
Q 19.53125 -1.421875 13.0625 8.265625 
Q 6.59375 17.96875 6.59375 36.375 
Q 6.59375 54.828125 13.0625 64.515625 
Q 19.53125 74.21875 31.78125 74.21875 
z
" id="DejaVuSans-48"/>
      </defs>
      <g transform="translate(81.734741 150.614815)rotate(-90)scale(0.11 -0.11)">
       <use xlink:href="#DejaVuSans-48"/>
      </g>
     </g>
    </g>
    <g id="xtick_2">
     <g id="line2d_2">
      <g>
       <use style="stroke:#000000;stroke-width:0.8;" x="89.61687" xlink:href="#m07c0e5ef92" y="136.616065"/>
      </g>
     </g>
     <g id="text_2">
      <!-- 1 -->
      <defs>
       <path d="M 12.40625 8.296875 
L 28.515625 8.296875 
L 28.515625 63.921875 
L 10.984375 60.40625 
L 10.984375 69.390625 
L 28.421875 72.90625 
L 38.28125 72.90625 
L 38.28125 8.296875 
L 54.390625 8.296875 
L 54.390625 0 
L 12.40625 0 
z
" id="DejaVuSans-49"/>
      </defs>
      <g transform="translate(92.652182 150.614815)rotate(-90)scale(0.11 -0.11)">
       <use xlink:href="#DejaVuSans-49"/>
      </g>
     </g>
    </g>
    <g id="xtick_3">
     <g id="line2d_3">
      <g>
       <use style="stroke:#000000;stroke-width:0.8;" x="100.534311" xlink:href="#m07c0e5ef92" y="136.616065"/>
      </g>
     </g>
     <g id="text_3">
      <!-- 2 -->
      <defs>
       <path d="M 19.1875 8.296875 
L 53.609375 8.296875 
L 53.609375 0 
L 7.328125 0 
L 7.328125 8.296875 
Q 12.9375 14.109375 22.625 23.890625 
Q 32.328125 33.6875 34.8125 36.53125 
Q 39.546875 41.84375 41.421875 45.53125 
Q 43.3125 49.21875 43.3125 52.78125 
Q 43.3125 58.59375 39.234375 62.25 
Q 35.15625 65.921875 28.609375 65.921875 
Q 23.96875 65.921875 18.8125 64.3125 
Q 13.671875 62.703125 7.8125 59.421875 
L 7.8125 69.390625 
Q 13.765625 71.78125 18.9375 73 
Q 24.125 74.21875 28.421875 74.21875 
Q 39.75 74.21875 46.484375 68.546875 
Q 53.21875 62.890625 53.21875 53.421875 
Q 53.21875 48.921875 51.53125 44.890625 
Q 49.859375 40.875 45.40625 35.40625 
Q 44.1875 33.984375 37.640625 27.21875 
Q 31.109375 20.453125 19.1875 8.296875 
z
" id="DejaVuSans-50"/>
      </defs>
      <g transform="translate(103.569623 150.614815)rotate(-90)scale(0.11 -0.11)">
       <use xlink:href="#DejaVuSans-50"/>
      </g>
     </g>
    </g>
    <g id="xtick_4">
     <g id="line2d_4">
      <g>
       <use style="stroke:#000000;stroke-width:0.8;" x="111.451752" xlink:href="#m07c0e5ef92" y="136.616065"/>
      </g>
     </g>
     <g id="text_4">
      <!-- 3 -->
      <defs>
       <path d="M 40.578125 39.3125 
Q 47.65625 37.796875 51.625 33 
Q 55.609375 28.21875 55.609375 21.1875 
Q 55.609375 10.40625 48.1875 4.484375 
Q 40.765625 -1.421875 27.09375 -1.421875 
Q 22.515625 -1.421875 17.65625 -0.515625 
Q 12.796875 0.390625 7.625 2.203125 
L 7.625 11.71875 
Q 11.71875 9.328125 16.59375 8.109375 
Q 21.484375 6.890625 26.8125 6.890625 
Q 36.078125 6.890625 40.9375 10.546875 
Q 45.796875 14.203125 45.796875 21.1875 
Q 45.796875 27.640625 41.28125 31.265625 
Q 36.765625 34.90625 28.71875 34.90625 
L 20.21875 34.90625 
L 20.21875 43.015625 
L 29.109375 43.015625 
Q 36.375 43.015625 40.234375 45.921875 
Q 44.09375 48.828125 44.09375 54.296875 
Q 44.09375 59.90625 40.109375 62.90625 
Q 36.140625 65.921875 28.71875 65.921875 
Q 24.65625 65.921875 20.015625 65.03125 
Q 15.375 64.15625 9.8125 62.3125 
L 9.8125 71.09375 
Q 15.4375 72.65625 20.34375 73.4375 
Q 25.25 74.21875 29.59375 74.21875 
Q 40.828125 74.21875 47.359375 69.109375 
Q 53.90625 64.015625 53.90625 55.328125 
Q 53.90625 49.265625 50.4375 45.09375 
Q 46.96875 40.921875 40.578125 39.3125 
z
" id="DejaVuSans-51"/>
      </defs>
      <g transform="translate(114.487064 150.614815)rotate(-90)scale(0.11 -0.11)">
       <use xlink:href="#DejaVuSans-51"/>
      </g>
     </g>
    </g>
    <g id="xtick_5">
     <g id="line2d_5">
      <g>
       <use style="stroke:#000000;stroke-width:0.8;" x="122.369193" xlink:href="#m07c0e5ef92" y="136.616065"/>
      </g>
     </g>
     <g id="text_5">
      <!-- 4 -->
      <defs>
       <path d="M 37.796875 64.3125 
L 12.890625 25.390625 
L 37.796875 25.390625 
z
M 35.203125 72.90625 
L 47.609375 72.90625 
L 47.609375 25.390625 
L 58.015625 25.390625 
L 58.015625 17.1875 
L 47.609375 17.1875 
L 47.609375 0 
L 37.796875 0 
L 37.796875 17.1875 
L 4.890625 17.1875 
L 4.890625 26.703125 
z
" id="DejaVuSans-52"/>
      </defs>
      <g transform="translate(125.404505 150.614815)rotate(-90)scale(0.11 -0.11)">
       <use xlink:href="#DejaVuSans-52"/>
      </g>
     </g>
    </g>
    <g id="xtick_6">
     <g id="line2d_6">
      <g>
       <use style="stroke:#000000;stroke-width:0.8;" x="133.286634" xlink:href="#m07c0e5ef92" y="136.616065"/>
      </g>
     </g>
     <g id="text_6">
      <!-- 5 -->
      <defs>
       <path d="M 10.796875 72.90625 
L 49.515625 72.90625 
L 49.515625 64.59375 
L 19.828125 64.59375 
L 19.828125 46.734375 
Q 21.96875 47.46875 24.109375 47.828125 
Q 26.265625 48.1875 28.421875 48.1875 
Q 40.625 48.1875 47.75 41.5 
Q 54.890625 34.8125 54.890625 23.390625 
Q 54.890625 11.625 47.5625 5.09375 
Q 40.234375 -1.421875 26.90625 -1.421875 
Q 22.3125 -1.421875 17.546875 -0.640625 
Q 12.796875 0.140625 7.71875 1.703125 
L 7.71875 11.625 
Q 12.109375 9.234375 16.796875 8.0625 
Q 21.484375 6.890625 26.703125 6.890625 
Q 35.15625 6.890625 40.078125 11.328125 
Q 45.015625 15.765625 45.015625 23.390625 
Q 45.015625 31 40.078125 35.4375 
Q 35.15625 39.890625 26.703125 39.890625 
Q 22.75 39.890625 18.8125 39.015625 
Q 14.890625 38.140625 10.796875 36.28125 
z
" id="DejaVuSans-53"/>
      </defs>
      <g transform="translate(136.321946 150.614815)rotate(-90)scale(0.11 -0.11)">
       <use xlink:href="#DejaVuSans-53"/>
      </g>
     </g>
    </g>
    <g id="xtick_7">
     <g id="line2d_7">
      <g>
       <use style="stroke:#000000;stroke-width:0.8;" x="144.204075" xlink:href="#m07c0e5ef92" y="136.616065"/>
      </g>
     </g>
     <g id="text_7">
      <!-- 6 -->
      <defs>
       <path d="M 33.015625 40.375 
Q 26.375 40.375 22.484375 35.828125 
Q 18.609375 31.296875 18.609375 23.390625 
Q 18.609375 15.53125 22.484375 10.953125 
Q 26.375 6.390625 33.015625 6.390625 
Q 39.65625 6.390625 43.53125 10.953125 
Q 47.40625 15.53125 47.40625 23.390625 
Q 47.40625 31.296875 43.53125 35.828125 
Q 39.65625 40.375 33.015625 40.375 
z
M 52.59375 71.296875 
L 52.59375 62.3125 
Q 48.875 64.0625 45.09375 64.984375 
Q 41.3125 65.921875 37.59375 65.921875 
Q 27.828125 65.921875 22.671875 59.328125 
Q 17.53125 52.734375 16.796875 39.40625 
Q 19.671875 43.65625 24.015625 45.921875 
Q 28.375 48.1875 33.59375 48.1875 
Q 44.578125 48.1875 50.953125 41.515625 
Q 57.328125 34.859375 57.328125 23.390625 
Q 57.328125 12.15625 50.6875 5.359375 
Q 44.046875 -1.421875 33.015625 -1.421875 
Q 20.359375 -1.421875 13.671875 8.265625 
Q 6.984375 17.96875 6.984375 36.375 
Q 6.984375 53.65625 15.1875 63.9375 
Q 23.390625 74.21875 37.203125 74.21875 
Q 40.921875 74.21875 44.703125 73.484375 
Q 48.484375 72.75 52.59375 71.296875 
z
" id="DejaVuSans-54"/>
      </defs>
      <g transform="translate(147.239387 150.614815)rotate(-90)scale(0.11 -0.11)">
       <use xlink:href="#DejaVuSans-54"/>
      </g>
     </g>
    </g>
    <g id="xtick_8">
     <g id="line2d_8">
      <g>
       <use style="stroke:#000000;stroke-width:0.8;" x="155.121516" xlink:href="#m07c0e5ef92" y="136.616065"/>
      </g>
     </g>
     <g id="text_8">
      <!-- 7 -->
      <defs>
       <path d="M 8.203125 72.90625 
L 55.078125 72.90625 
L 55.078125 68.703125 
L 28.609375 0 
L 18.3125 0 
L 43.21875 64.59375 
L 8.203125 64.59375 
z
" id="DejaVuSans-55"/>
      </defs>
      <g transform="translate(158.156828 150.614815)rotate(-90)scale(0.11 -0.11)">
       <use xlink:href="#DejaVuSans-55"/>
      </g>
     </g>
    </g>
    <g id="xtick_9">
     <g id="line2d_9">
      <g>
       <use style="stroke:#000000;stroke-width:0.8;" x="166.038957" xlink:href="#m07c0e5ef92" y="136.616065"/>
      </g>
     </g>
     <g id="text_9">
      <!-- 8 -->
      <defs>
       <path d="M 31.78125 34.625 
Q 24.75 34.625 20.71875 30.859375 
Q 16.703125 27.09375 16.703125 20.515625 
Q 16.703125 13.921875 20.71875 10.15625 
Q 24.75 6.390625 31.78125 6.390625 
Q 38.8125 6.390625 42.859375 10.171875 
Q 46.921875 13.96875 46.921875 20.515625 
Q 46.921875 27.09375 42.890625 30.859375 
Q 38.875 34.625 31.78125 34.625 
z
M 21.921875 38.8125 
Q 15.578125 40.375 12.03125 44.71875 
Q 8.5 49.078125 8.5 55.328125 
Q 8.5 64.0625 14.71875 69.140625 
Q 20.953125 74.21875 31.78125 74.21875 
Q 42.671875 74.21875 48.875 69.140625 
Q 55.078125 64.0625 55.078125 55.328125 
Q 55.078125 49.078125 51.53125 44.71875 
Q 48 40.375 41.703125 38.8125 
Q 48.828125 37.15625 52.796875 32.3125 
Q 56.78125 27.484375 56.78125 20.515625 
Q 56.78125 9.90625 50.3125 4.234375 
Q 43.84375 -1.421875 31.78125 -1.421875 
Q 19.734375 -1.421875 13.25 4.234375 
Q 6.78125 9.90625 6.78125 20.515625 
Q 6.78125 27.484375 10.78125 32.3125 
Q 14.796875 37.15625 21.921875 38.8125 
z
M 18.3125 54.390625 
Q 18.3125 48.734375 21.84375 45.5625 
Q 25.390625 42.390625 31.78125 42.390625 
Q 38.140625 42.390625 41.71875 45.5625 
Q 45.3125 48.734375 45.3125 54.390625 
Q 45.3125 60.0625 41.71875 63.234375 
Q 38.140625 66.40625 31.78125 66.40625 
Q 25.390625 66.40625 21.84375 63.234375 
Q 18.3125 60.0625 18.3125 54.390625 
z
" id="DejaVuSans-56"/>
      </defs>
      <g transform="translate(169.074269 150.614815)rotate(-90)scale(0.11 -0.11)">
       <use xlink:href="#DejaVuSans-56"/>
      </g>
     </g>
    </g>
    <g id="xtick_10">
     <g id="line2d_10">
      <g>
       <use style="stroke:#000000;stroke-width:0.8;" x="176.956398" xlink:href="#m07c0e5ef92" y="136.616065"/>
      </g>
     </g>
     <g id="text_10">
      <!-- 9 -->
      <defs>
       <path d="M 10.984375 1.515625 
L 10.984375 10.5 
Q 14.703125 8.734375 18.5 7.8125 
Q 22.3125 6.890625 25.984375 6.890625 
Q 35.75 6.890625 40.890625 13.453125 
Q 46.046875 20.015625 46.78125 33.40625 
Q 43.953125 29.203125 39.59375 26.953125 
Q 35.25 24.703125 29.984375 24.703125 
Q 19.046875 24.703125 12.671875 31.3125 
Q 6.296875 37.9375 6.296875 49.421875 
Q 6.296875 60.640625 12.9375 67.421875 
Q 19.578125 74.21875 30.609375 74.21875 
Q 43.265625 74.21875 49.921875 64.515625 
Q 56.59375 54.828125 56.59375 36.375 
Q 56.59375 19.140625 48.40625 8.859375 
Q 40.234375 -1.421875 26.421875 -1.421875 
Q 22.703125 -1.421875 18.890625 -0.6875 
Q 15.09375 0.046875 10.984375 1.515625 
z
M 30.609375 32.421875 
Q 37.25 32.421875 41.125 36.953125 
Q 45.015625 41.5 45.015625 49.421875 
Q 45.015625 57.28125 41.125 61.84375 
Q 37.25 66.40625 30.609375 66.40625 
Q 23.96875 66.40625 20.09375 61.84375 
Q 16.21875 57.28125 16.21875 49.421875 
Q 16.21875 41.5 20.09375 36.953125 
Q 23.96875 32.421875 30.609375 32.421875 
z
" id="DejaVuSans-57"/>
      </defs>
      <g transform="translate(179.99171 150.614815)rotate(-90)scale(0.11 -0.11)">
       <use xlink:href="#DejaVuSans-57"/>
      </g>
     </g>
    </g>
    <g id="xtick_11">
     <g id="line2d_11">
      <g>
       <use style="stroke:#000000;stroke-width:0.8;" x="187.873839" xlink:href="#m07c0e5ef92" y="136.616065"/>
      </g>
     </g>
     <g id="text_11">
      <!-- 10 -->
      <g transform="translate(190.909151 157.613565)rotate(-90)scale(0.11 -0.11)">
       <use xlink:href="#DejaVuSans-49"/>
       <use x="63.623047" xlink:href="#DejaVuSans-48"/>
      </g>
     </g>
    </g>
    <g id="xtick_12">
     <g id="line2d_12">
      <g>
       <use style="stroke:#000000;stroke-width:0.8;" x="198.79128" xlink:href="#m07c0e5ef92" y="136.616065"/>
      </g>
     </g>
     <g id="text_12">
      <!-- 11 -->
      <g transform="translate(201.826592 157.613565)rotate(-90)scale(0.11 -0.11)">
       <use xlink:href="#DejaVuSans-49"/>
       <use x="63.623047" xlink:href="#DejaVuSans-49"/>
      </g>
     </g>
    </g>
    <g id="xtick_13">
     <g id="line2d_13">
      <g>
       <use style="stroke:#000000;stroke-width:0.8;" x="209.70872" xlink:href="#m07c0e5ef92" y="136.616065"/>
      </g>
     </g>
     <g id="text_13">
      <!-- 12 -->
      <g transform="translate(212.744033 157.613565)rotate(-90)scale(0.11 -0.11)">
       <use xlink:href="#DejaVuSans-49"/>
       <use x="63.623047" xlink:href="#DejaVuSans-50"/>
      </g>
     </g>
    </g>
    <g id="xtick_14">
     <g id="line2d_14">
      <g>
       <use style="stroke:#000000;stroke-width:0.8;" x="220.626161" xlink:href="#m07c0e5ef92" y="136.616065"/>
      </g>
     </g>
     <g id="text_14">
      <!-- 13 -->
      <g transform="translate(223.661474 157.613565)rotate(-90)scale(0.11 -0.11)">
       <use xlink:href="#DejaVuSans-49"/>
       <use x="63.623047" xlink:href="#DejaVuSans-51"/>
      </g>
     </g>
    </g>
    <g id="xtick_15">
     <g id="line2d_15">
      <g>
       <use style="stroke:#000000;stroke-width:0.8;" x="231.543602" xlink:href="#m07c0e5ef92" y="136.616065"/>
      </g>
     </g>
     <g id="text_15">
      <!-- 14 -->
      <g transform="translate(234.578915 157.613565)rotate(-90)scale(0.11 -0.11)">
       <use xlink:href="#DejaVuSans-49"/>
       <use x="63.623047" xlink:href="#DejaVuSans-52"/>
      </g>
     </g>
    </g>
    <g id="xtick_16">
     <g id="line2d_16">
      <g>
       <use style="stroke:#000000;stroke-width:0.8;" x="242.461043" xlink:href="#m07c0e5ef92" y="136.616065"/>
      </g>
     </g>
     <g id="text_16">
      <!-- 15 -->
      <g transform="translate(245.496356 157.613565)rotate(-90)scale(0.11 -0.11)">
       <use xlink:href="#DejaVuSans-49"/>
       <use x="63.623047" xlink:href="#DejaVuSans-53"/>
      </g>
     </g>
    </g>
    <g id="xtick_17">
     <g id="line2d_17">
      <g>
       <use style="stroke:#000000;stroke-width:0.8;" x="253.378484" xlink:href="#m07c0e5ef92" y="136.616065"/>
      </g>
     </g>
     <g id="text_17">
      <!-- 16 -->
      <g transform="translate(256.413797 157.613565)rotate(-90)scale(0.11 -0.11)">
       <use xlink:href="#DejaVuSans-49"/>
       <use x="63.623047" xlink:href="#DejaVuSans-54"/>
      </g>
     </g>
    </g>
    <g id="xtick_18">
     <g id="line2d_18">
      <g>
       <use style="stroke:#000000;stroke-width:0.8;" x="264.295925" xlink:href="#m07c0e5ef92" y="136.616065"/>
      </g>
     </g>
     <g id="text_18">
      <!-- 17 -->
      <g transform="translate(267.331238 157.613565)rotate(-90)scale(0.11 -0.11)">
       <use xlink:href="#DejaVuSans-49"/>
       <use x="63.623047" xlink:href="#DejaVuSans-55"/>
      </g>
     </g>
    </g>
    <g id="xtick_19">
     <g id="line2d_19">
      <g>
       <use style="stroke:#000000;stroke-width:0.8;" x="275.213366" xlink:href="#m07c0e5ef92" y="136.616065"/>
      </g>
     </g>
     <g id="text_19">
      <!-- 18 -->
      <g transform="translate(278.248679 157.613565)rotate(-90)scale(0.11 -0.11)">
       <use xlink:href="#DejaVuSans-49"/>
       <use x="63.623047" xlink:href="#DejaVuSans-56"/>
      </g>
     </g>
    </g>
    <g id="xtick_20">
     <g id="line2d_20">
      <g>
       <use style="stroke:#000000;stroke-width:0.8;" x="286.130807" xlink:href="#m07c0e5ef92" y="136.616065"/>
      </g>
     </g>
     <g id="text_20">
      <!-- 23 -->
      <g transform="translate(289.16612 157.613565)rotate(-90)scale(0.11 -0.11)">
       <use xlink:href="#DejaVuSans-50"/>
       <use x="63.623047" xlink:href="#DejaVuSans-51"/>
      </g>
     </g>
    </g>
    <g id="xtick_21">
     <g id="line2d_21">
      <g>
       <use style="stroke:#000000;stroke-width:0.8;" x="297.048248" xlink:href="#m07c0e5ef92" y="136.616065"/>
      </g>
     </g>
     <g id="text_21">
      <!-- 24 -->
      <g transform="translate(300.083561 157.613565)rotate(-90)scale(0.11 -0.11)">
       <use xlink:href="#DejaVuSans-50"/>
       <use x="63.623047" xlink:href="#DejaVuSans-52"/>
      </g>
     </g>
    </g>
    <g id="xtick_22">
     <g id="line2d_22">
      <g>
       <use style="stroke:#000000;stroke-width:0.8;" x="307.965689" xlink:href="#m07c0e5ef92" y="136.616065"/>
      </g>
     </g>
     <g id="text_22">
      <!-- 25 -->
      <g transform="translate(311.001002 157.613565)rotate(-90)scale(0.11 -0.11)">
       <use xlink:href="#DejaVuSans-50"/>
       <use x="63.623047" xlink:href="#DejaVuSans-53"/>
      </g>
     </g>
    </g>
    <g id="xtick_23">
     <g id="line2d_23">
      <g>
       <use style="stroke:#000000;stroke-width:0.8;" x="318.88313" xlink:href="#m07c0e5ef92" y="136.616065"/>
      </g>
     </g>
     <g id="text_23">
      <!-- 26 -->
      <g transform="translate(321.918443 157.613565)rotate(-90)scale(0.11 -0.11)">
       <use xlink:href="#DejaVuSans-50"/>
       <use x="63.623047" xlink:href="#DejaVuSans-54"/>
      </g>
     </g>
    </g>
    <g id="xtick_24">
     <g id="line2d_24">
      <g>
       <use style="stroke:#000000;stroke-width:0.8;" x="329.800571" xlink:href="#m07c0e5ef92" y="136.616065"/>
      </g>
     </g>
     <g id="text_24">
      <!-- 27 -->
      <g transform="translate(332.835884 157.613565)rotate(-90)scale(0.11 -0.11)">
       <use xlink:href="#DejaVuSans-50"/>
       <use x="63.623047" xlink:href="#DejaVuSans-55"/>
      </g>
     </g>
    </g>
    <g id="text_25">
     <!-- Dataset index -->
     <defs>
      <path d="M 19.671875 64.796875 
L 19.671875 8.109375 
L 31.59375 8.109375 
Q 46.6875 8.109375 53.6875 14.9375 
Q 60.6875 21.78125 60.6875 36.53125 
Q 60.6875 51.171875 53.6875 57.984375 
Q 46.6875 64.796875 31.59375 64.796875 
z
M 9.8125 72.90625 
L 30.078125 72.90625 
Q 51.265625 72.90625 61.171875 64.09375 
Q 71.09375 55.28125 71.09375 36.53125 
Q 71.09375 17.671875 61.125 8.828125 
Q 51.171875 0 30.078125 0 
L 9.8125 0 
z
" id="DejaVuSans-68"/>
      <path d="M 34.28125 27.484375 
Q 23.390625 27.484375 19.1875 25 
Q 14.984375 22.515625 14.984375 16.5 
Q 14.984375 11.71875 18.140625 8.90625 
Q 21.296875 6.109375 26.703125 6.109375 
Q 34.1875 6.109375 38.703125 11.40625 
Q 43.21875 16.703125 43.21875 25.484375 
L 43.21875 27.484375 
z
M 52.203125 31.203125 
L 52.203125 0 
L 43.21875 0 
L 43.21875 8.296875 
Q 40.140625 3.328125 35.546875 0.953125 
Q 30.953125 -1.421875 24.3125 -1.421875 
Q 15.921875 -1.421875 10.953125 3.296875 
Q 6 8.015625 6 15.921875 
Q 6 25.140625 12.171875 29.828125 
Q 18.359375 34.515625 30.609375 34.515625 
L 43.21875 34.515625 
L 43.21875 35.40625 
Q 43.21875 41.609375 39.140625 45 
Q 35.0625 48.390625 27.6875 48.390625 
Q 23 48.390625 18.546875 47.265625 
Q 14.109375 46.140625 10.015625 43.890625 
L 10.015625 52.203125 
Q 14.9375 54.109375 19.578125 55.046875 
Q 24.21875 56 28.609375 56 
Q 40.484375 56 46.34375 49.84375 
Q 52.203125 43.703125 52.203125 31.203125 
z
" id="DejaVuSans-97"/>
      <path d="M 18.3125 70.21875 
L 18.3125 54.6875 
L 36.8125 54.6875 
L 36.8125 47.703125 
L 18.3125 47.703125 
L 18.3125 18.015625 
Q 18.3125 11.328125 20.140625 9.421875 
Q 21.96875 7.515625 27.59375 7.515625 
L 36.8125 7.515625 
L 36.8125 0 
L 27.59375 0 
Q 17.1875 0 13.234375 3.875 
Q 9.28125 7.765625 9.28125 18.015625 
L 9.28125 47.703125 
L 2.6875 47.703125 
L 2.6875 54.6875 
L 9.28125 54.6875 
L 9.28125 70.21875 
z
" id="DejaVuSans-116"/>
      <path d="M 44.28125 53.078125 
L 44.28125 44.578125 
Q 40.484375 46.53125 36.375 47.5 
Q 32.28125 48.484375 27.875 48.484375 
Q 21.1875 48.484375 17.84375 46.4375 
Q 14.5 44.390625 14.5 40.28125 
Q 14.5 37.15625 16.890625 35.375 
Q 19.28125 33.59375 26.515625 31.984375 
L 29.59375 31.296875 
Q 39.15625 29.25 43.1875 25.515625 
Q 47.21875 21.78125 47.21875 15.09375 
Q 47.21875 7.46875 41.1875 3.015625 
Q 35.15625 -1.421875 24.609375 -1.421875 
Q 20.21875 -1.421875 15.453125 -0.5625 
Q 10.6875 0.296875 5.421875 2 
L 5.421875 11.28125 
Q 10.40625 8.6875 15.234375 7.390625 
Q 20.0625 6.109375 24.8125 6.109375 
Q 31.15625 6.109375 34.5625 8.28125 
Q 37.984375 10.453125 37.984375 14.40625 
Q 37.984375 18.0625 35.515625 20.015625 
Q 33.0625 21.96875 24.703125 23.78125 
L 21.578125 24.515625 
Q 13.234375 26.265625 9.515625 29.90625 
Q 5.8125 33.546875 5.8125 39.890625 
Q 5.8125 47.609375 11.28125 51.796875 
Q 16.75 56 26.8125 56 
Q 31.78125 56 36.171875 55.265625 
Q 40.578125 54.546875 44.28125 53.078125 
z
" id="DejaVuSans-115"/>
      <path d="M 56.203125 29.59375 
L 56.203125 25.203125 
L 14.890625 25.203125 
Q 15.484375 15.921875 20.484375 11.0625 
Q 25.484375 6.203125 34.421875 6.203125 
Q 39.59375 6.203125 44.453125 7.46875 
Q 49.3125 8.734375 54.109375 11.28125 
L 54.109375 2.78125 
Q 49.265625 0.734375 44.1875 -0.34375 
Q 39.109375 -1.421875 33.890625 -1.421875 
Q 20.796875 -1.421875 13.15625 6.1875 
Q 5.515625 13.8125 5.515625 26.8125 
Q 5.515625 40.234375 12.765625 48.109375 
Q 20.015625 56 32.328125 56 
Q 43.359375 56 49.78125 48.890625 
Q 56.203125 41.796875 56.203125 29.59375 
z
M 47.21875 32.234375 
Q 47.125 39.59375 43.09375 43.984375 
Q 39.0625 48.390625 32.421875 48.390625 
Q 24.90625 48.390625 20.390625 44.140625 
Q 15.875 39.890625 15.1875 32.171875 
z
" id="DejaVuSans-101"/>
      <path id="DejaVuSans-32"/>
      <path d="M 9.421875 54.6875 
L 18.40625 54.6875 
L 18.40625 0 
L 9.421875 0 
z
M 9.421875 75.984375 
L 18.40625 75.984375 
L 18.40625 64.59375 
L 9.421875 64.59375 
z
" id="DejaVuSans-105"/>
      <path d="M 54.890625 33.015625 
L 54.890625 0 
L 45.90625 0 
L 45.90625 32.71875 
Q 45.90625 40.484375 42.875 44.328125 
Q 39.84375 48.1875 33.796875 48.1875 
Q 26.515625 48.1875 22.3125 43.546875 
Q 18.109375 38.921875 18.109375 30.90625 
L 18.109375 0 
L 9.078125 0 
L 9.078125 54.6875 
L 18.109375 54.6875 
L 18.109375 46.1875 
Q 21.34375 51.125 25.703125 53.5625 
Q 30.078125 56 35.796875 56 
Q 45.21875 56 50.046875 50.171875 
Q 54.890625 44.34375 54.890625 33.015625 
z
" id="DejaVuSans-110"/>
      <path d="M 45.40625 46.390625 
L 45.40625 75.984375 
L 54.390625 75.984375 
L 54.390625 0 
L 45.40625 0 
L 45.40625 8.203125 
Q 42.578125 3.328125 38.25 0.953125 
Q 33.9375 -1.421875 27.875 -1.421875 
Q 17.96875 -1.421875 11.734375 6.484375 
Q 5.515625 14.40625 5.515625 27.296875 
Q 5.515625 40.1875 11.734375 48.09375 
Q 17.96875 56 27.875 56 
Q 33.9375 56 38.25 53.625 
Q 42.578125 51.265625 45.40625 46.390625 
z
M 14.796875 27.296875 
Q 14.796875 17.390625 18.875 11.75 
Q 22.953125 6.109375 30.078125 6.109375 
Q 37.203125 6.109375 41.296875 11.75 
Q 45.40625 17.390625 45.40625 27.296875 
Q 45.40625 37.203125 41.296875 42.84375 
Q 37.203125 48.484375 30.078125 48.484375 
Q 22.953125 48.484375 18.875 42.84375 
Q 14.796875 37.203125 14.796875 27.296875 
z
" id="DejaVuSans-100"/>
      <path d="M 54.890625 54.6875 
L 35.109375 28.078125 
L 55.90625 0 
L 45.3125 0 
L 29.390625 21.484375 
L 13.484375 0 
L 2.875 0 
L 24.125 28.609375 
L 4.6875 54.6875 
L 15.28125 54.6875 
L 29.78125 35.203125 
L 44.28125 54.6875 
z
" id="DejaVuSans-120"/>
     </defs>
     <g transform="translate(153.94225 172.555315)scale(0.144 -0.144)">
      <use xlink:href="#DejaVuSans-68"/>
      <use x="77.001953" xlink:href="#DejaVuSans-97"/>
      <use x="138.28125" xlink:href="#DejaVuSans-116"/>
      <use x="177.490234" xlink:href="#DejaVuSans-97"/>
      <use x="238.769531" xlink:href="#DejaVuSans-115"/>
      <use x="290.869141" xlink:href="#DejaVuSans-101"/>
      <use x="352.392578" xlink:href="#DejaVuSans-116"/>
      <use x="391.601562" xlink:href="#DejaVuSans-32"/>
      <use x="423.388672" xlink:href="#DejaVuSans-105"/>
      <use x="451.171875" xlink:href="#DejaVuSans-110"/>
      <use x="514.550781" xlink:href="#DejaVuSans-100"/>
      <use x="578.027344" xlink:href="#DejaVuSans-101"/>
      <use x="639.535156" xlink:href="#DejaVuSans-120"/>
     </g>
    </g>
   </g>
   <g id="matplotlib.axis_2">
    <g id="ytick_1">
     <g id="line2d_25">
      <defs>
       <path d="M 0 0 
L -3.5 0 
" id="m5e03c4a745" style="stroke:#000000;stroke-width:0.8;"/>
      </defs>
      <g>
       <use style="stroke:#000000;stroke-width:0.8;" x="62.8" xlink:href="#m5e03c4a745" y="132.402887"/>
      </g>
     </g>
     <g id="text_26">
      <!-- 0.00 -->
      <defs>
       <path d="M 10.6875 12.40625 
L 21 12.40625 
L 21 0 
L 10.6875 0 
z
" id="DejaVuSans-46"/>
      </defs>
      <g transform="translate(23.7375 137.873762)scale(0.144 -0.144)">
       <use xlink:href="#DejaVuSans-48"/>
       <use x="63.623047" xlink:href="#DejaVuSans-46"/>
       <use x="95.410156" xlink:href="#DejaVuSans-48"/>
       <use x="159.033203" xlink:href="#DejaVuSans-48"/>
      </g>
     </g>
    </g>
    <g id="ytick_2">
     <g id="line2d_26">
      <g>
       <use style="stroke:#000000;stroke-width:0.8;" x="62.8" xlink:href="#m5e03c4a745" y="97.924949"/>
      </g>
     </g>
     <g id="text_27">
      <!-- 0.25 -->
      <g transform="translate(23.7375 103.395824)scale(0.144 -0.144)">
       <use xlink:href="#DejaVuSans-48"/>
       <use x="63.623047" xlink:href="#DejaVuSans-46"/>
       <use x="95.410156" xlink:href="#DejaVuSans-50"/>
       <use x="159.033203" xlink:href="#DejaVuSans-53"/>
      </g>
     </g>
    </g>
    <g id="ytick_3">
     <g id="line2d_27">
      <g>
       <use style="stroke:#000000;stroke-width:0.8;" x="62.8" xlink:href="#m5e03c4a745" y="63.447011"/>
      </g>
     </g>
     <g id="text_28">
      <!-- 0.50 -->
      <g transform="translate(23.7375 68.917886)scale(0.144 -0.144)">
       <use xlink:href="#DejaVuSans-48"/>
       <use x="63.623047" xlink:href="#DejaVuSans-46"/>
       <use x="95.410156" xlink:href="#DejaVuSans-53"/>
       <use x="159.033203" xlink:href="#DejaVuSans-48"/>
      </g>
     </g>
    </g>
    <g id="ytick_4">
     <g id="line2d_28">
      <g>
       <use style="stroke:#000000;stroke-width:0.8;" x="62.8" xlink:href="#m5e03c4a745" y="28.969073"/>
      </g>
     </g>
     <g id="text_29">
      <!-- 0.75 -->
      <g transform="translate(23.7375 34.439948)scale(0.144 -0.144)">
       <use xlink:href="#DejaVuSans-48"/>
       <use x="63.623047" xlink:href="#DejaVuSans-46"/>
       <use x="95.410156" xlink:href="#DejaVuSans-55"/>
       <use x="159.033203" xlink:href="#DejaVuSans-53"/>
      </g>
     </g>
    </g>
    <g id="text_30">
     <!-- $\mu$ (1/hr) -->
     <defs>
      <path d="M -1.3125 -20.796875 
L 13.375 54.6875 
L 22.40625 54.6875 
L 15.765625 20.65625 
Q 15.578125 19.625 15.421875 18.359375 
Q 15.28125 17.09375 15.28125 15.828125 
Q 15.28125 11.28125 18.140625 8.828125 
Q 21 6.390625 26.3125 6.390625 
Q 33.546875 6.390625 37.984375 10.484375 
Q 42.4375 14.59375 44 22.796875 
L 50.203125 54.6875 
L 59.1875 54.6875 
L 51.03125 12.640625 
Q 50.828125 11.71875 50.75 11.03125 
Q 50.6875 10.359375 50.6875 9.8125 
Q 50.6875 8.296875 51.296875 7.59375 
Q 51.90625 6.890625 53.21875 6.890625 
Q 53.71875 6.890625 54.5625 7.125 
Q 55.421875 7.375 56.984375 8.015625 
L 55.609375 0.78125 
Q 53.46875 -0.296875 51.515625 -0.859375 
Q 49.5625 -1.421875 47.703125 -1.421875 
Q 44.484375 -1.421875 42.65625 0.625 
Q 40.828125 2.6875 40.828125 6.296875 
Q 38.09375 2.390625 34.296875 0.484375 
Q 30.515625 -1.421875 25.390625 -1.421875 
Q 20.84375 -1.421875 17.453125 0.671875 
Q 14.0625 2.78125 12.984375 6.203125 
L 7.71875 -20.796875 
z
" id="DejaVuSans-Oblique-956"/>
      <path d="M 31 75.875 
Q 24.46875 64.65625 21.28125 53.65625 
Q 18.109375 42.671875 18.109375 31.390625 
Q 18.109375 20.125 21.3125 9.0625 
Q 24.515625 -2 31 -13.1875 
L 23.1875 -13.1875 
Q 15.875 -1.703125 12.234375 9.375 
Q 8.59375 20.453125 8.59375 31.390625 
Q 8.59375 42.28125 12.203125 53.3125 
Q 15.828125 64.359375 23.1875 75.875 
z
" id="DejaVuSans-40"/>
      <path d="M 25.390625 72.90625 
L 33.6875 72.90625 
L 8.296875 -9.28125 
L 0 -9.28125 
z
" id="DejaVuSans-47"/>
      <path d="M 54.890625 33.015625 
L 54.890625 0 
L 45.90625 0 
L 45.90625 32.71875 
Q 45.90625 40.484375 42.875 44.328125 
Q 39.84375 48.1875 33.796875 48.1875 
Q 26.515625 48.1875 22.3125 43.546875 
Q 18.109375 38.921875 18.109375 30.90625 
L 18.109375 0 
L 9.078125 0 
L 9.078125 75.984375 
L 18.109375 75.984375 
L 18.109375 46.1875 
Q 21.34375 51.125 25.703125 53.5625 
Q 30.078125 56 35.796875 56 
Q 45.21875 56 50.046875 50.171875 
Q 54.890625 44.34375 54.890625 33.015625 
z
" id="DejaVuSans-104"/>
      <path d="M 41.109375 46.296875 
Q 39.59375 47.171875 37.8125 47.578125 
Q 36.03125 48 33.890625 48 
Q 26.265625 48 22.1875 43.046875 
Q 18.109375 38.09375 18.109375 28.8125 
L 18.109375 0 
L 9.078125 0 
L 9.078125 54.6875 
L 18.109375 54.6875 
L 18.109375 46.1875 
Q 20.953125 51.171875 25.484375 53.578125 
Q 30.03125 56 36.53125 56 
Q 37.453125 56 38.578125 55.875 
Q 39.703125 55.765625 41.0625 55.515625 
z
" id="DejaVuSans-114"/>
      <path d="M 8.015625 75.875 
L 15.828125 75.875 
Q 23.140625 64.359375 26.78125 53.3125 
Q 30.421875 42.28125 30.421875 31.390625 
Q 30.421875 20.453125 26.78125 9.375 
Q 23.140625 -1.703125 15.828125 -13.1875 
L 8.015625 -13.1875 
Q 14.5 -2 17.703125 9.0625 
Q 20.90625 20.125 20.90625 31.390625 
Q 20.90625 42.671875 17.703125 53.65625 
Q 14.5 64.65625 8.015625 75.875 
z
" id="DejaVuSans-41"/>
     </defs>
     <g transform="translate(16.7135 102.530032)rotate(-90)scale(0.144 -0.144)">
      <use transform="translate(0 0.015625)" xlink:href="#DejaVuSans-Oblique-956"/>
      <use transform="translate(63.623047 0.015625)" xlink:href="#DejaVuSans-32"/>
      <use transform="translate(95.410156 0.015625)" xlink:href="#DejaVuSans-40"/>
      <use transform="translate(134.423828 0.015625)" xlink:href="#DejaVuSans-49"/>
      <use transform="translate(198.046875 0.015625)" xlink:href="#DejaVuSans-47"/>
      <use transform="translate(231.738281 0.015625)" xlink:href="#DejaVuSans-104"/>
      <use transform="translate(295.117188 0.015625)" xlink:href="#DejaVuSans-114"/>
      <use transform="translate(336.230469 0.015625)" xlink:href="#DejaVuSans-41"/>
     </g>
    </g>
   </g>
   <g id="patch_3">
    <path d="M 62.8 136.616065 
L 62.8 14.3 
" style="fill:none;stroke:#000000;stroke-linecap:square;stroke-linejoin:miter;stroke-width:0.8;"/>
   </g>
   <g id="patch_4">
    <path d="M 345.7 136.616065 
L 345.7 14.3 
" style="fill:none;stroke:#000000;stroke-linecap:square;stroke-linejoin:miter;stroke-width:0.8;"/>
   </g>
   <g id="patch_5">
    <path d="M 62.8 136.616065 
L 345.7 136.616065 
" style="fill:none;stroke:#000000;stroke-linecap:square;stroke-linejoin:miter;stroke-width:0.8;"/>
   </g>
   <g id="patch_6">
    <path d="M 62.8 14.3 
L 345.7 14.3 
" style="fill:none;stroke:#000000;stroke-linecap:square;stroke-linejoin:miter;stroke-width:0.8;"/>
   </g>
   <g id="legend_1">
    <g id="patch_7">
     <path d="M 71.2 76.74125 
L 178.935625 76.74125 
Q 181.335625 76.74125 181.335625 74.34125 
L 181.335625 22.7 
Q 181.335625 20.3 178.935625 20.3 
L 71.2 20.3 
Q 68.8 20.3 68.8 22.7 
L 68.8 74.34125 
Q 68.8 76.74125 71.2 76.74125 
z
" style="fill:#ffffff;opacity:0.8;stroke:#cccccc;stroke-linejoin:miter;"/>
    </g>
    <g id="PathCollection_4">
     <g>
      <use style="fill:#a1c9f4;fill-opacity:0.6;stroke:#a1c9f4;stroke-opacity:0.6;" x="85.6" xlink:href="#m282b0b82f0" y="31.068125"/>
     </g>
    </g>
    <g id="text_31">
     <!-- Experiment -->
     <defs>
      <path d="M 9.8125 72.90625 
L 55.90625 72.90625 
L 55.90625 64.59375 
L 19.671875 64.59375 
L 19.671875 43.015625 
L 54.390625 43.015625 
L 54.390625 34.71875 
L 19.671875 34.71875 
L 19.671875 8.296875 
L 56.78125 8.296875 
L 56.78125 0 
L 9.8125 0 
z
" id="DejaVuSans-69"/>
      <path d="M 18.109375 8.203125 
L 18.109375 -20.796875 
L 9.078125 -20.796875 
L 9.078125 54.6875 
L 18.109375 54.6875 
L 18.109375 46.390625 
Q 20.953125 51.265625 25.265625 53.625 
Q 29.59375 56 35.59375 56 
Q 45.5625 56 51.78125 48.09375 
Q 58.015625 40.1875 58.015625 27.296875 
Q 58.015625 14.40625 51.78125 6.484375 
Q 45.5625 -1.421875 35.59375 -1.421875 
Q 29.59375 -1.421875 25.265625 0.953125 
Q 20.953125 3.328125 18.109375 8.203125 
z
M 48.6875 27.296875 
Q 48.6875 37.203125 44.609375 42.84375 
Q 40.53125 48.484375 33.40625 48.484375 
Q 26.265625 48.484375 22.1875 42.84375 
Q 18.109375 37.203125 18.109375 27.296875 
Q 18.109375 17.390625 22.1875 11.75 
Q 26.265625 6.109375 33.40625 6.109375 
Q 40.53125 6.109375 44.609375 11.75 
Q 48.6875 17.390625 48.6875 27.296875 
z
" id="DejaVuSans-112"/>
      <path d="M 52 44.1875 
Q 55.375 50.25 60.0625 53.125 
Q 64.75 56 71.09375 56 
Q 79.640625 56 84.28125 50.015625 
Q 88.921875 44.046875 88.921875 33.015625 
L 88.921875 0 
L 79.890625 0 
L 79.890625 32.71875 
Q 79.890625 40.578125 77.09375 44.375 
Q 74.3125 48.1875 68.609375 48.1875 
Q 61.625 48.1875 57.5625 43.546875 
Q 53.515625 38.921875 53.515625 30.90625 
L 53.515625 0 
L 44.484375 0 
L 44.484375 32.71875 
Q 44.484375 40.625 41.703125 44.40625 
Q 38.921875 48.1875 33.109375 48.1875 
Q 26.21875 48.1875 22.15625 43.53125 
Q 18.109375 38.875 18.109375 30.90625 
L 18.109375 0 
L 9.078125 0 
L 9.078125 54.6875 
L 18.109375 54.6875 
L 18.109375 46.1875 
Q 21.1875 51.21875 25.484375 53.609375 
Q 29.78125 56 35.6875 56 
Q 41.65625 56 45.828125 52.96875 
Q 50 49.953125 52 44.1875 
z
" id="DejaVuSans-109"/>
     </defs>
     <g transform="translate(107.2 34.218125)scale(0.12 -0.12)">
      <use xlink:href="#DejaVuSans-69"/>
      <use x="63.183594" xlink:href="#DejaVuSans-120"/>
      <use x="122.363281" xlink:href="#DejaVuSans-112"/>
      <use x="185.839844" xlink:href="#DejaVuSans-101"/>
      <use x="247.363281" xlink:href="#DejaVuSans-114"/>
      <use x="288.476562" xlink:href="#DejaVuSans-105"/>
      <use x="316.259766" xlink:href="#DejaVuSans-109"/>
      <use x="413.671875" xlink:href="#DejaVuSans-101"/>
      <use x="475.195312" xlink:href="#DejaVuSans-110"/>
      <use x="538.574219" xlink:href="#DejaVuSans-116"/>
     </g>
    </g>
    <g id="PathCollection_5">
     <g>
      <use style="fill:#ffb482;fill-opacity:0.6;stroke:#ffb482;stroke-opacity:0.6;" x="85.6" xlink:href="#m62c8b60496" y="48.681875"/>
     </g>
    </g>
    <g id="text_32">
     <!-- iAT601 -->
     <defs>
      <path d="M 34.1875 63.1875 
L 20.796875 26.90625 
L 47.609375 26.90625 
z
M 28.609375 72.90625 
L 39.796875 72.90625 
L 67.578125 0 
L 57.328125 0 
L 50.6875 18.703125 
L 17.828125 18.703125 
L 11.1875 0 
L 0.78125 0 
z
" id="DejaVuSans-65"/>
      <path d="M -0.296875 72.90625 
L 61.375 72.90625 
L 61.375 64.59375 
L 35.5 64.59375 
L 35.5 0 
L 25.59375 0 
L 25.59375 64.59375 
L -0.296875 64.59375 
z
" id="DejaVuSans-84"/>
     </defs>
     <g transform="translate(107.2 51.831875)scale(0.12 -0.12)">
      <use xlink:href="#DejaVuSans-105"/>
      <use x="27.783203" xlink:href="#DejaVuSans-65"/>
      <use x="96.082031" xlink:href="#DejaVuSans-84"/>
      <use x="157.166016" xlink:href="#DejaVuSans-54"/>
      <use x="220.789062" xlink:href="#DejaVuSans-48"/>
      <use x="284.412109" xlink:href="#DejaVuSans-49"/>
     </g>
    </g>
    <g id="PathCollection_6">
     <g>
      <use style="fill:#8de5a1;fill-opacity:0.6;stroke:#8de5a1;stroke-opacity:0.6;" x="85.6" xlink:href="#m00e289b34b" y="66.295625"/>
     </g>
    </g>
    <g id="text_33">
     <!-- iCBI655 -->
     <defs>
      <path d="M 64.40625 67.28125 
L 64.40625 56.890625 
Q 59.421875 61.53125 53.78125 63.8125 
Q 48.140625 66.109375 41.796875 66.109375 
Q 29.296875 66.109375 22.65625 58.46875 
Q 16.015625 50.828125 16.015625 36.375 
Q 16.015625 21.96875 22.65625 14.328125 
Q 29.296875 6.6875 41.796875 6.6875 
Q 48.140625 6.6875 53.78125 8.984375 
Q 59.421875 11.28125 64.40625 15.921875 
L 64.40625 5.609375 
Q 59.234375 2.09375 53.4375 0.328125 
Q 47.65625 -1.421875 41.21875 -1.421875 
Q 24.65625 -1.421875 15.125 8.703125 
Q 5.609375 18.84375 5.609375 36.375 
Q 5.609375 53.953125 15.125 64.078125 
Q 24.65625 74.21875 41.21875 74.21875 
Q 47.75 74.21875 53.53125 72.484375 
Q 59.328125 70.75 64.40625 67.28125 
z
" id="DejaVuSans-67"/>
      <path d="M 19.671875 34.8125 
L 19.671875 8.109375 
L 35.5 8.109375 
Q 43.453125 8.109375 47.28125 11.40625 
Q 51.125 14.703125 51.125 21.484375 
Q 51.125 28.328125 47.28125 31.5625 
Q 43.453125 34.8125 35.5 34.8125 
z
M 19.671875 64.796875 
L 19.671875 42.828125 
L 34.28125 42.828125 
Q 41.5 42.828125 45.03125 45.53125 
Q 48.578125 48.25 48.578125 53.8125 
Q 48.578125 59.328125 45.03125 62.0625 
Q 41.5 64.796875 34.28125 64.796875 
z
M 9.8125 72.90625 
L 35.015625 72.90625 
Q 46.296875 72.90625 52.390625 68.21875 
Q 58.5 63.53125 58.5 54.890625 
Q 58.5 48.1875 55.375 44.234375 
Q 52.25 40.28125 46.1875 39.3125 
Q 53.46875 37.75 57.5 32.78125 
Q 61.53125 27.828125 61.53125 20.40625 
Q 61.53125 10.640625 54.890625 5.3125 
Q 48.25 0 35.984375 0 
L 9.8125 0 
z
" id="DejaVuSans-66"/>
      <path d="M 9.8125 72.90625 
L 19.671875 72.90625 
L 19.671875 0 
L 9.8125 0 
z
" id="DejaVuSans-73"/>
     </defs>
     <g transform="translate(107.2 69.445625)scale(0.12 -0.12)">
      <use xlink:href="#DejaVuSans-105"/>
      <use x="27.783203" xlink:href="#DejaVuSans-67"/>
      <use x="97.607422" xlink:href="#DejaVuSans-66"/>
      <use x="166.210938" xlink:href="#DejaVuSans-73"/>
      <use x="195.703125" xlink:href="#DejaVuSans-54"/>
      <use x="259.326172" xlink:href="#DejaVuSans-53"/>
      <use x="322.949219" xlink:href="#DejaVuSans-53"/>
     </g>
    </g>
   </g>
  </g>
  <g id="axes_2">
   <g id="patch_8">
    <path d="M 62.8 314.586332 
L 345.7 314.586332 
L 345.7 192.270267 
L 62.8 192.270267 
z
" style="fill:#ffffff;"/>
   </g>
   <g id="matplotlib.axis_3">
    <g id="xtick_25">
     <g id="line2d_29">
      <g>
       <use style="stroke:#000000;stroke-width:0.8;" x="98.1625" xlink:href="#m07c0e5ef92" y="314.586332"/>
      </g>
     </g>
     <g id="text_34">
      <!-- iAT601-batch -->
      <defs>
       <path d="M 4.890625 31.390625 
L 31.203125 31.390625 
L 31.203125 23.390625 
L 4.890625 23.390625 
z
" id="DejaVuSans-45"/>
       <path d="M 48.6875 27.296875 
Q 48.6875 37.203125 44.609375 42.84375 
Q 40.53125 48.484375 33.40625 48.484375 
Q 26.265625 48.484375 22.1875 42.84375 
Q 18.109375 37.203125 18.109375 27.296875 
Q 18.109375 17.390625 22.1875 11.75 
Q 26.265625 6.109375 33.40625 6.109375 
Q 40.53125 6.109375 44.609375 11.75 
Q 48.6875 17.390625 48.6875 27.296875 
z
M 18.109375 46.390625 
Q 20.953125 51.265625 25.265625 53.625 
Q 29.59375 56 35.59375 56 
Q 45.5625 56 51.78125 48.09375 
Q 58.015625 40.1875 58.015625 27.296875 
Q 58.015625 14.40625 51.78125 6.484375 
Q 45.5625 -1.421875 35.59375 -1.421875 
Q 29.59375 -1.421875 25.265625 0.953125 
Q 20.953125 3.328125 18.109375 8.203125 
L 18.109375 0 
L 9.078125 0 
L 9.078125 75.984375 
L 18.109375 75.984375 
z
" id="DejaVuSans-98"/>
       <path d="M 48.78125 52.59375 
L 48.78125 44.1875 
Q 44.96875 46.296875 41.140625 47.34375 
Q 37.3125 48.390625 33.40625 48.390625 
Q 24.65625 48.390625 19.8125 42.84375 
Q 14.984375 37.3125 14.984375 27.296875 
Q 14.984375 17.28125 19.8125 11.734375 
Q 24.65625 6.203125 33.40625 6.203125 
Q 37.3125 6.203125 41.140625 7.25 
Q 44.96875 8.296875 48.78125 10.40625 
L 48.78125 2.09375 
Q 45.015625 0.34375 40.984375 -0.53125 
Q 36.96875 -1.421875 32.421875 -1.421875 
Q 20.0625 -1.421875 12.78125 6.34375 
Q 5.515625 14.109375 5.515625 27.296875 
Q 5.515625 40.671875 12.859375 48.328125 
Q 20.21875 56 33.015625 56 
Q 37.15625 56 41.109375 55.140625 
Q 45.0625 54.296875 48.78125 52.59375 
z
" id="DejaVuSans-99"/>
      </defs>
      <g transform="translate(28.185975 397.182234)rotate(-45)scale(0.144 -0.144)">
       <use xlink:href="#DejaVuSans-105"/>
       <use x="27.783203" xlink:href="#DejaVuSans-65"/>
       <use x="96.082031" xlink:href="#DejaVuSans-84"/>
       <use x="157.166016" xlink:href="#DejaVuSans-54"/>
       <use x="220.789062" xlink:href="#DejaVuSans-48"/>
       <use x="284.412109" xlink:href="#DejaVuSans-49"/>
       <use x="348.035156" xlink:href="#DejaVuSans-45"/>
       <use x="384.119141" xlink:href="#DejaVuSans-98"/>
       <use x="447.595703" xlink:href="#DejaVuSans-97"/>
       <use x="508.875" xlink:href="#DejaVuSans-116"/>
       <use x="548.083984" xlink:href="#DejaVuSans-99"/>
       <use x="603.064453" xlink:href="#DejaVuSans-104"/>
      </g>
     </g>
    </g>
    <g id="xtick_26">
     <g id="line2d_30">
      <g>
       <use style="stroke:#000000;stroke-width:0.8;" x="168.8875" xlink:href="#m07c0e5ef92" y="314.586332"/>
      </g>
     </g>
     <g id="text_35">
      <!-- iCBI655-batch -->
      <g transform="translate(94.984412 401.108798)rotate(-45)scale(0.144 -0.144)">
       <use xlink:href="#DejaVuSans-105"/>
       <use x="27.783203" xlink:href="#DejaVuSans-67"/>
       <use x="97.607422" xlink:href="#DejaVuSans-66"/>
       <use x="166.210938" xlink:href="#DejaVuSans-73"/>
       <use x="195.703125" xlink:href="#DejaVuSans-54"/>
       <use x="259.326172" xlink:href="#DejaVuSans-53"/>
       <use x="322.949219" xlink:href="#DejaVuSans-53"/>
       <use x="386.572266" xlink:href="#DejaVuSans-45"/>
       <use x="422.65625" xlink:href="#DejaVuSans-98"/>
       <use x="486.132812" xlink:href="#DejaVuSans-97"/>
       <use x="547.412109" xlink:href="#DejaVuSans-116"/>
       <use x="586.621094" xlink:href="#DejaVuSans-99"/>
       <use x="641.601562" xlink:href="#DejaVuSans-104"/>
      </g>
     </g>
    </g>
    <g id="xtick_27">
     <g id="line2d_31">
      <g>
       <use style="stroke:#000000;stroke-width:0.8;" x="239.6125" xlink:href="#m07c0e5ef92" y="314.586332"/>
      </g>
     </g>
     <g id="text_36">
      <!-- iAT601-chemost. -->
      <defs>
       <path d="M 30.609375 48.390625 
Q 23.390625 48.390625 19.1875 42.75 
Q 14.984375 37.109375 14.984375 27.296875 
Q 14.984375 17.484375 19.15625 11.84375 
Q 23.34375 6.203125 30.609375 6.203125 
Q 37.796875 6.203125 41.984375 11.859375 
Q 46.1875 17.53125 46.1875 27.296875 
Q 46.1875 37.015625 41.984375 42.703125 
Q 37.796875 48.390625 30.609375 48.390625 
z
M 30.609375 56 
Q 42.328125 56 49.015625 48.375 
Q 55.71875 40.765625 55.71875 27.296875 
Q 55.71875 13.875 49.015625 6.21875 
Q 42.328125 -1.421875 30.609375 -1.421875 
Q 18.84375 -1.421875 12.171875 6.21875 
Q 5.515625 13.875 5.515625 27.296875 
Q 5.515625 40.765625 12.171875 48.375 
Q 18.84375 56 30.609375 56 
z
" id="DejaVuSans-111"/>
      </defs>
      <g transform="translate(151.385726 415.432484)rotate(-45)scale(0.144 -0.144)">
       <use xlink:href="#DejaVuSans-105"/>
       <use x="27.783203" xlink:href="#DejaVuSans-65"/>
       <use x="96.082031" xlink:href="#DejaVuSans-84"/>
       <use x="157.166016" xlink:href="#DejaVuSans-54"/>
       <use x="220.789062" xlink:href="#DejaVuSans-48"/>
       <use x="284.412109" xlink:href="#DejaVuSans-49"/>
       <use x="348.035156" xlink:href="#DejaVuSans-45"/>
       <use x="384.119141" xlink:href="#DejaVuSans-99"/>
       <use x="439.099609" xlink:href="#DejaVuSans-104"/>
       <use x="502.478516" xlink:href="#DejaVuSans-101"/>
       <use x="564.001953" xlink:href="#DejaVuSans-109"/>
       <use x="661.414062" xlink:href="#DejaVuSans-111"/>
       <use x="722.595703" xlink:href="#DejaVuSans-115"/>
       <use x="774.695312" xlink:href="#DejaVuSans-116"/>
       <use x="813.904297" xlink:href="#DejaVuSans-46"/>
      </g>
     </g>
    </g>
    <g id="xtick_28">
     <g id="line2d_32">
      <g>
       <use style="stroke:#000000;stroke-width:0.8;" x="310.3375" xlink:href="#m07c0e5ef92" y="314.586332"/>
      </g>
     </g>
     <g id="text_37">
      <!-- iCBI655-chemost. -->
      <g transform="translate(218.184162 419.359047)rotate(-45)scale(0.144 -0.144)">
       <use xlink:href="#DejaVuSans-105"/>
       <use x="27.783203" xlink:href="#DejaVuSans-67"/>
       <use x="97.607422" xlink:href="#DejaVuSans-66"/>
       <use x="166.210938" xlink:href="#DejaVuSans-73"/>
       <use x="195.703125" xlink:href="#DejaVuSans-54"/>
       <use x="259.326172" xlink:href="#DejaVuSans-53"/>
       <use x="322.949219" xlink:href="#DejaVuSans-53"/>
       <use x="386.572266" xlink:href="#DejaVuSans-45"/>
       <use x="422.65625" xlink:href="#DejaVuSans-99"/>
       <use x="477.636719" xlink:href="#DejaVuSans-104"/>
       <use x="541.015625" xlink:href="#DejaVuSans-101"/>
       <use x="602.539062" xlink:href="#DejaVuSans-109"/>
       <use x="699.951172" xlink:href="#DejaVuSans-111"/>
       <use x="761.132812" xlink:href="#DejaVuSans-115"/>
       <use x="813.232422" xlink:href="#DejaVuSans-116"/>
       <use x="852.441406" xlink:href="#DejaVuSans-46"/>
      </g>
     </g>
    </g>
   </g>
   <g id="matplotlib.axis_4">
    <g id="ytick_5">
     <g id="line2d_33">
      <g>
       <use style="stroke:#000000;stroke-width:0.8;" x="62.8" xlink:href="#m5e03c4a745" y="309.097834"/>
      </g>
     </g>
     <g id="text_38">
      <!-- 0 -->
      <g transform="translate(46.638 314.568709)scale(0.144 -0.144)">
       <use xlink:href="#DejaVuSans-48"/>
      </g>
     </g>
    </g>
    <g id="ytick_6">
     <g id="line2d_34">
      <g>
       <use style="stroke:#000000;stroke-width:0.8;" x="62.8" xlink:href="#m5e03c4a745" y="274.270838"/>
      </g>
     </g>
     <g id="text_39">
      <!-- 2 -->
      <g transform="translate(46.638 279.741713)scale(0.144 -0.144)">
       <use xlink:href="#DejaVuSans-50"/>
      </g>
     </g>
    </g>
    <g id="ytick_7">
     <g id="line2d_35">
      <g>
       <use style="stroke:#000000;stroke-width:0.8;" x="62.8" xlink:href="#m5e03c4a745" y="239.443842"/>
      </g>
     </g>
     <g id="text_40">
      <!-- 4 -->
      <g transform="translate(46.638 244.914717)scale(0.144 -0.144)">
       <use xlink:href="#DejaVuSans-52"/>
      </g>
     </g>
    </g>
    <g id="ytick_8">
     <g id="line2d_36">
      <g>
       <use style="stroke:#000000;stroke-width:0.8;" x="62.8" xlink:href="#m5e03c4a745" y="204.616847"/>
      </g>
     </g>
     <g id="text_41">
      <!-- 6 -->
      <g transform="translate(46.638 210.087722)scale(0.144 -0.144)">
       <use xlink:href="#DejaVuSans-54"/>
      </g>
     </g>
    </g>
    <g id="text_42">
     <!-- error = $\frac{|\mu_{predicted} - \mu_{measured}|}{\mu_{measured}}$ -->
     <defs>
      <path d="M 10.59375 45.40625 
L 73.1875 45.40625 
L 73.1875 37.203125 
L 10.59375 37.203125 
z
M 10.59375 25.484375 
L 73.1875 25.484375 
L 73.1875 17.1875 
L 10.59375 17.1875 
z
" id="DejaVuSans-61"/>
      <path d="M 21 76.421875 
L 21 -23.578125 
L 12.703125 -23.578125 
L 12.703125 76.421875 
z
" id="DejaVuSans-124"/>
      <path d="M 49.609375 33.6875 
Q 49.609375 40.875 46.484375 44.671875 
Q 43.359375 48.484375 37.5 48.484375 
Q 33.5 48.484375 29.859375 46.4375 
Q 26.21875 44.390625 23.390625 40.484375 
Q 20.609375 36.625 18.9375 31.15625 
Q 17.28125 25.6875 17.28125 20.3125 
Q 17.28125 13.484375 20.40625 9.796875 
Q 23.53125 6.109375 29.296875 6.109375 
Q 33.546875 6.109375 37.1875 8.109375 
Q 40.828125 10.109375 43.40625 13.921875 
Q 46.1875 17.921875 47.890625 23.34375 
Q 49.609375 28.765625 49.609375 33.6875 
z
M 21.78125 46.390625 
Q 25.390625 51.125 30.296875 53.5625 
Q 35.203125 56 41.21875 56 
Q 49.609375 56 54.25 50.5 
Q 58.890625 45.015625 58.890625 35.109375 
Q 58.890625 27 56 19.65625 
Q 53.125 12.3125 47.703125 6.5 
Q 44.09375 2.640625 39.546875 0.609375 
Q 35.015625 -1.421875 29.984375 -1.421875 
Q 24.171875 -1.421875 20.21875 1 
Q 16.265625 3.421875 14.3125 8.203125 
L 8.6875 -20.796875 
L -0.296875 -20.796875 
L 14.40625 54.6875 
L 23.390625 54.6875 
z
" id="DejaVuSans-Oblique-112"/>
      <path d="M 44.578125 46.390625 
Q 43.21875 47.125 41.453125 47.515625 
Q 39.703125 47.90625 37.703125 47.90625 
Q 30.515625 47.90625 25.140625 42.453125 
Q 19.78125 37.015625 18.015625 27.875 
L 12.5 0 
L 3.515625 0 
L 14.203125 54.6875 
L 23.1875 54.6875 
L 21.484375 46.1875 
Q 25.046875 50.921875 30 53.453125 
Q 34.96875 56 40.578125 56 
Q 42.046875 56 43.453125 55.828125 
Q 44.875 55.671875 46.296875 55.28125 
z
" id="DejaVuSans-Oblique-114"/>
      <path d="M 48.09375 32.234375 
Q 48.25 33.015625 48.3125 33.84375 
Q 48.390625 34.671875 48.390625 35.5 
Q 48.390625 41.453125 44.890625 44.921875 
Q 41.40625 48.390625 35.40625 48.390625 
Q 28.71875 48.390625 23.578125 44.15625 
Q 18.453125 39.9375 15.828125 32.171875 
z
M 55.90625 25.203125 
L 14.109375 25.203125 
Q 13.8125 23.34375 13.71875 22.265625 
Q 13.625 21.1875 13.625 20.40625 
Q 13.625 13.625 17.796875 9.90625 
Q 21.96875 6.203125 29.59375 6.203125 
Q 35.453125 6.203125 40.671875 7.515625 
Q 45.90625 8.84375 50.390625 11.375 
L 48.6875 2.484375 
Q 43.84375 0.53125 38.6875 -0.4375 
Q 33.546875 -1.421875 28.21875 -1.421875 
Q 16.84375 -1.421875 10.71875 4.015625 
Q 4.59375 9.46875 4.59375 19.484375 
Q 4.59375 28.03125 7.640625 35.375 
Q 10.6875 42.71875 16.609375 48.484375 
Q 20.40625 52.09375 25.65625 54.046875 
Q 30.90625 56 36.8125 56 
Q 46.09375 56 51.578125 50.4375 
Q 57.078125 44.875 57.078125 35.5 
Q 57.078125 33.25 56.78125 30.6875 
Q 56.5 28.125 55.90625 25.203125 
z
" id="DejaVuSans-Oblique-101"/>
      <path d="M 41.796875 8.203125 
Q 38.1875 3.46875 33.25 1.015625 
Q 28.328125 -1.421875 22.3125 -1.421875 
Q 14.109375 -1.421875 9.34375 4.171875 
Q 4.59375 9.765625 4.59375 19.484375 
Q 4.59375 27.59375 7.46875 34.9375 
Q 10.359375 42.28125 15.828125 48.09375 
Q 19.4375 51.953125 23.96875 53.96875 
Q 28.515625 56 33.5 56 
Q 38.765625 56 42.796875 53.453125 
Q 46.828125 50.921875 49.03125 46.1875 
L 54.890625 75.984375 
L 63.921875 75.984375 
L 49.125 0 
L 40.09375 0 
z
M 13.921875 21.09375 
Q 13.921875 14.015625 17.109375 10.0625 
Q 20.3125 6.109375 25.984375 6.109375 
Q 30.171875 6.109375 33.765625 8.125 
Q 37.359375 10.15625 40.09375 14.109375 
Q 42.96875 18.21875 44.625 23.578125 
Q 46.296875 28.953125 46.296875 34.1875 
Q 46.296875 40.96875 43.09375 44.765625 
Q 39.890625 48.578125 34.28125 48.578125 
Q 30.03125 48.578125 26.359375 46.578125 
Q 22.703125 44.578125 20.125 40.828125 
Q 17.28125 36.765625 15.59375 31.390625 
Q 13.921875 26.03125 13.921875 21.09375 
z
" id="DejaVuSans-Oblique-100"/>
      <path d="M 18.3125 75.984375 
L 27.296875 75.984375 
L 25.09375 64.59375 
L 16.109375 64.59375 
z
M 14.203125 54.6875 
L 23.1875 54.6875 
L 12.5 0 
L 3.515625 0 
z
" id="DejaVuSans-Oblique-105"/>
      <path d="M 53.609375 52.59375 
L 51.8125 43.703125 
Q 48.578125 46.046875 44.9375 47.21875 
Q 41.3125 48.390625 37.40625 48.390625 
Q 33.109375 48.390625 29.21875 46.875 
Q 25.34375 45.359375 22.703125 42.578125 
Q 18.5 38.328125 16.203125 32.609375 
Q 13.921875 26.90625 13.921875 20.796875 
Q 13.921875 13.421875 17.609375 9.8125 
Q 21.296875 6.203125 28.8125 6.203125 
Q 32.515625 6.203125 36.6875 7.328125 
Q 40.875 8.453125 45.40625 10.6875 
L 43.703125 1.8125 
Q 39.796875 0.203125 35.671875 -0.609375 
Q 31.546875 -1.421875 27.203125 -1.421875 
Q 16.3125 -1.421875 10.453125 4.015625 
Q 4.59375 9.46875 4.59375 19.578125 
Q 4.59375 28.078125 7.640625 35.234375 
Q 10.6875 42.390625 16.703125 48.09375 
Q 20.796875 52 26.3125 54 
Q 31.84375 56 38.375 56 
Q 42.1875 56 45.9375 55.140625 
Q 49.703125 54.296875 53.609375 52.59375 
z
" id="DejaVuSans-Oblique-99"/>
      <path d="M 42.28125 54.6875 
L 40.921875 47.703125 
L 23 47.703125 
L 17.1875 18.015625 
Q 16.890625 16.359375 16.75 15.234375 
Q 16.609375 14.109375 16.609375 13.484375 
Q 16.609375 10.359375 18.484375 8.9375 
Q 20.359375 7.515625 24.515625 7.515625 
L 33.59375 7.515625 
L 32.078125 0 
L 23.484375 0 
Q 15.484375 0 11.546875 3.125 
Q 7.625 6.25 7.625 12.59375 
Q 7.625 13.71875 7.765625 15.0625 
Q 7.90625 16.40625 8.203125 18.015625 
L 14.015625 47.703125 
L 6.390625 47.703125 
L 7.8125 54.6875 
L 15.28125 54.6875 
L 18.3125 70.21875 
L 27.296875 70.21875 
L 24.3125 54.6875 
z
" id="DejaVuSans-Oblique-116"/>
      <path d="M 10.59375 35.5 
L 73.1875 35.5 
L 73.1875 27.203125 
L 10.59375 27.203125 
z
" id="DejaVuSans-8722"/>
      <path d="M 89.796875 33.015625 
L 83.40625 0 
L 74.421875 0 
L 80.71875 32.71875 
Q 81.109375 34.8125 81.296875 36.328125 
Q 81.5 37.84375 81.5 38.921875 
Q 81.5 43.3125 79.046875 45.75 
Q 76.609375 48.1875 72.21875 48.1875 
Q 65.671875 48.1875 60.546875 43.28125 
Q 55.421875 38.375 53.90625 30.515625 
L 47.90625 0 
L 38.921875 0 
L 45.3125 32.71875 
Q 45.703125 34.515625 45.890625 36.046875 
Q 46.09375 37.59375 46.09375 38.8125 
Q 46.09375 43.265625 43.65625 45.71875 
Q 41.21875 48.1875 36.921875 48.1875 
Q 30.28125 48.1875 25.140625 43.28125 
Q 20.015625 38.375 18.5 30.515625 
L 12.5 0 
L 3.515625 0 
L 14.203125 54.6875 
L 23.1875 54.6875 
L 21.484375 46.1875 
Q 25.140625 50.984375 30.046875 53.484375 
Q 34.96875 56 40.578125 56 
Q 46.53125 56 50.359375 52.875 
Q 54.203125 49.75 54.984375 44.1875 
Q 59.078125 49.953125 64.46875 52.96875 
Q 69.875 56 75.875 56 
Q 82.90625 56 86.734375 51.953125 
Q 90.578125 47.90625 90.578125 40.484375 
Q 90.578125 38.875 90.375 36.9375 
Q 90.1875 35.015625 89.796875 33.015625 
z
" id="DejaVuSans-Oblique-109"/>
      <path d="M 53.71875 31.203125 
L 47.609375 0 
L 38.625 0 
L 40.28125 8.296875 
Q 36.328125 3.421875 31.265625 1 
Q 26.21875 -1.421875 20.015625 -1.421875 
Q 13.03125 -1.421875 8.5625 2.84375 
Q 4.109375 7.125 4.109375 13.8125 
Q 4.109375 23.390625 11.75 28.953125 
Q 19.390625 34.515625 32.8125 34.515625 
L 45.3125 34.515625 
L 45.796875 36.921875 
Q 45.90625 37.3125 45.953125 37.765625 
Q 46 38.234375 46 39.203125 
Q 46 43.5625 42.453125 45.96875 
Q 38.921875 48.390625 32.515625 48.390625 
Q 28.125 48.390625 23.5 47.265625 
Q 18.890625 46.140625 14.015625 43.890625 
L 15.578125 52.203125 
Q 20.65625 54.109375 25.515625 55.046875 
Q 30.375 56 34.90625 56 
Q 44.578125 56 49.625 51.796875 
Q 54.6875 47.609375 54.6875 39.59375 
Q 54.6875 37.984375 54.4375 35.8125 
Q 54.203125 33.640625 53.71875 31.203125 
z
M 44 27.484375 
L 35.015625 27.484375 
Q 23.96875 27.484375 18.671875 24.53125 
Q 13.375 21.578125 13.375 15.375 
Q 13.375 11.078125 16.078125 8.640625 
Q 18.796875 6.203125 23.578125 6.203125 
Q 30.90625 6.203125 36.375 11.453125 
Q 41.84375 16.703125 43.609375 25.484375 
z
" id="DejaVuSans-Oblique-97"/>
      <path d="M 50 53.078125 
L 48.296875 44.578125 
Q 44.734375 46.53125 40.765625 47.5 
Q 36.8125 48.484375 32.625 48.484375 
Q 25.53125 48.484375 21.453125 46.0625 
Q 17.390625 43.65625 17.390625 39.5 
Q 17.390625 34.671875 26.859375 32.078125 
Q 27.59375 31.890625 27.9375 31.78125 
L 30.8125 30.90625 
Q 39.796875 28.421875 42.796875 25.6875 
Q 45.796875 22.953125 45.796875 18.21875 
Q 45.796875 9.515625 38.890625 4.046875 
Q 31.984375 -1.421875 20.796875 -1.421875 
Q 16.453125 -1.421875 11.671875 -0.578125 
Q 6.890625 0.25 1.125 2 
L 2.875 11.28125 
Q 7.8125 8.734375 12.59375 7.421875 
Q 17.390625 6.109375 21.78125 6.109375 
Q 28.375 6.109375 32.5 8.9375 
Q 36.625 11.765625 36.625 16.109375 
Q 36.625 20.796875 25.78125 23.6875 
L 24.859375 23.921875 
L 21.78125 24.703125 
Q 14.9375 26.515625 11.765625 29.46875 
Q 8.59375 32.421875 8.59375 37.015625 
Q 8.59375 45.75 15.15625 50.875 
Q 21.734375 56 33.015625 56 
Q 37.453125 56 41.671875 55.265625 
Q 45.90625 54.546875 50 53.078125 
z
" id="DejaVuSans-Oblique-115"/>
      <path d="M 6.6875 21.6875 
L 13.09375 54.6875 
L 22.125 54.6875 
L 15.71875 22.015625 
Q 15.234375 19.625 15.015625 17.921875 
Q 14.796875 16.21875 14.796875 15.09375 
Q 14.796875 10.9375 17.328125 8.65625 
Q 19.875 6.390625 24.515625 6.390625 
Q 31.734375 6.390625 37 11.265625 
Q 42.28125 16.15625 43.890625 24.421875 
L 49.90625 54.6875 
L 58.890625 54.6875 
L 48.296875 0 
L 39.3125 0 
L 41.109375 8.59375 
Q 37.3125 3.8125 32.0625 1.1875 
Q 26.8125 -1.421875 20.90625 -1.421875 
Q 13.71875 -1.421875 9.71875 2.515625 
Q 5.71875 6.453125 5.71875 13.484375 
Q 5.71875 14.9375 5.953125 17.140625 
Q 6.203125 19.34375 6.6875 21.6875 
z
" id="DejaVuSans-Oblique-117"/>
     </defs>
     <g transform="translate(36.734 333.4923)rotate(-90)scale(0.144 -0.144)">
      <use transform="translate(0 0.032969)" xlink:href="#DejaVuSans-101"/>
      <use transform="translate(61.523438 0.032969)" xlink:href="#DejaVuSans-114"/>
      <use transform="translate(102.636719 0.032969)" xlink:href="#DejaVuSans-114"/>
      <use transform="translate(143.75 0.032969)" xlink:href="#DejaVuSans-111"/>
      <use transform="translate(204.931641 0.032969)" xlink:href="#DejaVuSans-114"/>
      <use transform="translate(246.044922 0.032969)" xlink:href="#DejaVuSans-32"/>
      <use transform="translate(277.832031 0.032969)" xlink:href="#DejaVuSans-61"/>
      <use transform="translate(361.621094 0.032969)" xlink:href="#DejaVuSans-32"/>
      <use transform="translate(393.408203 65.504688)scale(0.7)" xlink:href="#DejaVuSans-124"/>
      <use transform="translate(416.992188 65.504688)scale(0.7)" xlink:href="#DejaVuSans-Oblique-956"/>
      <use transform="translate(461.52832 54.020313)scale(0.49)" xlink:href="#DejaVuSans-Oblique-112"/>
      <use transform="translate(492.631836 54.020313)scale(0.49)" xlink:href="#DejaVuSans-Oblique-114"/>
      <use transform="translate(512.777344 54.020313)scale(0.49)" xlink:href="#DejaVuSans-Oblique-101"/>
      <use transform="translate(542.923828 54.020313)scale(0.49)" xlink:href="#DejaVuSans-Oblique-100"/>
      <use transform="translate(574.027344 54.020313)scale(0.49)" xlink:href="#DejaVuSans-Oblique-105"/>
      <use transform="translate(587.641113 54.020313)scale(0.49)" xlink:href="#DejaVuSans-Oblique-99"/>
      <use transform="translate(614.581543 54.020313)scale(0.49)" xlink:href="#DejaVuSans-Oblique-116"/>
      <use transform="translate(633.793945 54.020313)scale(0.49)" xlink:href="#DejaVuSans-Oblique-101"/>
      <use transform="translate(663.94043 54.020313)scale(0.49)" xlink:href="#DejaVuSans-Oblique-100"/>
      <use transform="translate(710.595703 65.504688)scale(0.7)" xlink:href="#DejaVuSans-8722"/>
      <use transform="translate(782.885742 65.504688)scale(0.7)" xlink:href="#DejaVuSans-Oblique-956"/>
      <use transform="translate(827.421875 54.020313)scale(0.49)" xlink:href="#DejaVuSans-Oblique-109"/>
      <use transform="translate(875.153809 54.020313)scale(0.49)" xlink:href="#DejaVuSans-Oblique-101"/>
      <use transform="translate(905.300293 54.020313)scale(0.49)" xlink:href="#DejaVuSans-Oblique-97"/>
      <use transform="translate(935.327148 54.020313)scale(0.49)" xlink:href="#DejaVuSans-Oblique-115"/>
      <use transform="translate(960.855957 54.020313)scale(0.49)" xlink:href="#DejaVuSans-Oblique-117"/>
      <use transform="translate(991.911621 54.020313)scale(0.49)" xlink:href="#DejaVuSans-Oblique-114"/>
      <use transform="translate(1012.057129 54.020313)scale(0.49)" xlink:href="#DejaVuSans-Oblique-101"/>
      <use transform="translate(1042.203613 54.020313)scale(0.49)" xlink:href="#DejaVuSans-Oblique-100"/>
      <use transform="translate(1075.221191 65.504688)scale(0.7)" xlink:href="#DejaVuSans-124"/>
      <use transform="translate(600.408203 -25.701406)scale(0.7)" xlink:href="#DejaVuSans-Oblique-956"/>
      <use transform="translate(644.944336 -37.185781)scale(0.49)" xlink:href="#DejaVuSans-Oblique-109"/>
      <use transform="translate(692.67627 -37.185781)scale(0.49)" xlink:href="#DejaVuSans-Oblique-101"/>
      <use transform="translate(722.822754 -37.185781)scale(0.49)" xlink:href="#DejaVuSans-Oblique-97"/>
      <use transform="translate(752.849609 -37.185781)scale(0.49)" xlink:href="#DejaVuSans-Oblique-115"/>
      <use transform="translate(778.378418 -37.185781)scale(0.49)" xlink:href="#DejaVuSans-Oblique-117"/>
      <use transform="translate(809.434082 -37.185781)scale(0.49)" xlink:href="#DejaVuSans-Oblique-114"/>
      <use transform="translate(829.57959 -37.185781)scale(0.49)" xlink:href="#DejaVuSans-Oblique-101"/>
      <use transform="translate(859.726074 -37.185781)scale(0.49)" xlink:href="#DejaVuSans-Oblique-100"/>
      <path d="M 393.408203 18.829844 
L 393.408203 25.079844 
L 1098.805176 25.079844 
L 1098.805176 18.829844 
L 393.408203 18.829844 
z
"/>
     </g>
    </g>
   </g>
   <g id="line2d_37">
    <path clip-path="url(#p9963e34b01)" d="M 82.249375 307.162897 
L 114.075625 307.162897 
L 114.075625 302.414668 
L 82.249375 302.414668 
L 82.249375 307.162897 
" style="fill:none;stroke:#000000;stroke-linecap:square;"/>
   </g>
   <g id="line2d_38">
    <path clip-path="url(#p9963e34b01)" d="M 98.1625 307.162897 
L 98.1625 308.848644 
" style="fill:none;stroke:#000000;stroke-linecap:square;"/>
   </g>
   <g id="line2d_39">
    <path clip-path="url(#p9963e34b01)" d="M 98.1625 302.414668 
L 98.1625 301.331501 
" style="fill:none;stroke:#000000;stroke-linecap:square;"/>
   </g>
   <g id="line2d_40">
    <path clip-path="url(#p9963e34b01)" d="M 90.205937 308.848644 
L 106.119062 308.848644 
" style="fill:none;stroke:#000000;stroke-linecap:square;"/>
   </g>
   <g id="line2d_41">
    <path clip-path="url(#p9963e34b01)" d="M 90.205937 301.331501 
L 106.119062 301.331501 
" style="fill:none;stroke:#000000;stroke-linecap:square;"/>
   </g>
   <g id="line2d_42">
    <defs>
     <path d="M 0 3 
C 0.795609 3 1.55874 2.683901 2.12132 2.12132 
C 2.683901 1.55874 3 0.795609 3 0 
C 3 -0.795609 2.683901 -1.55874 2.12132 -2.12132 
C 1.55874 -2.683901 0.795609 -3 0 -3 
C -0.795609 -3 -1.55874 -2.683901 -2.12132 -2.12132 
C -2.683901 -1.55874 -3 -0.795609 -3 0 
C -3 0.795609 -2.683901 1.55874 -2.12132 2.12132 
C -1.55874 2.683901 -0.795609 3 0 3 
z
" id="me347423508" style="stroke:#000000;"/>
    </defs>
    <g clip-path="url(#p9963e34b01)">
     <use style="fill-opacity:0;stroke:#000000;" x="98.1625" xlink:href="#me347423508" y="288.967838"/>
    </g>
   </g>
   <g id="line2d_43">
    <path clip-path="url(#p9963e34b01)" d="M 152.974375 307.497768 
L 184.800625 307.497768 
L 184.800625 305.258128 
L 152.974375 305.258128 
L 152.974375 307.497768 
" style="fill:none;stroke:#000000;stroke-linecap:square;"/>
   </g>
   <g id="line2d_44">
    <path clip-path="url(#p9963e34b01)" d="M 168.8875 307.497768 
L 168.8875 308.704066 
" style="fill:none;stroke:#000000;stroke-linecap:square;"/>
   </g>
   <g id="line2d_45">
    <path clip-path="url(#p9963e34b01)" d="M 168.8875 305.258128 
L 168.8875 305.258128 
" style="fill:none;stroke:#000000;stroke-linecap:square;"/>
   </g>
   <g id="line2d_46">
    <path clip-path="url(#p9963e34b01)" d="M 160.930937 308.704066 
L 176.844062 308.704066 
" style="fill:none;stroke:#000000;stroke-linecap:square;"/>
   </g>
   <g id="line2d_47">
    <path clip-path="url(#p9963e34b01)" d="M 160.930937 305.258128 
L 176.844062 305.258128 
" style="fill:none;stroke:#000000;stroke-linecap:square;"/>
   </g>
   <g id="line2d_48">
    <g clip-path="url(#p9963e34b01)">
     <use style="fill-opacity:0;stroke:#000000;" x="168.8875" xlink:href="#me347423508" y="299.93444"/>
     <use style="fill-opacity:0;stroke:#000000;" x="168.8875" xlink:href="#me347423508" y="286.307587"/>
    </g>
   </g>
   <g id="line2d_49">
    <path clip-path="url(#p9963e34b01)" d="M 223.699375 273.973091 
L 255.525625 273.973091 
L 255.525625 232.437384 
L 223.699375 232.437384 
L 223.699375 273.973091 
" style="fill:none;stroke:#000000;stroke-linecap:square;"/>
   </g>
   <g id="line2d_50">
    <path clip-path="url(#p9963e34b01)" d="M 239.6125 273.973091 
L 239.6125 301.040683 
" style="fill:none;stroke:#000000;stroke-linecap:square;"/>
   </g>
   <g id="line2d_51">
    <path clip-path="url(#p9963e34b01)" d="M 239.6125 232.437384 
L 239.6125 197.830089 
" style="fill:none;stroke:#000000;stroke-linecap:square;"/>
   </g>
   <g id="line2d_52">
    <path clip-path="url(#p9963e34b01)" d="M 231.655937 301.040683 
L 247.569062 301.040683 
" style="fill:none;stroke:#000000;stroke-linecap:square;"/>
   </g>
   <g id="line2d_53">
    <path clip-path="url(#p9963e34b01)" d="M 231.655937 197.830089 
L 247.569062 197.830089 
" style="fill:none;stroke:#000000;stroke-linecap:square;"/>
   </g>
   <g id="line2d_54"/>
   <g id="line2d_55">
    <path clip-path="url(#p9963e34b01)" d="M 294.424375 308.611449 
L 326.250625 308.611449 
L 326.250625 306.609551 
L 294.424375 306.609551 
L 294.424375 308.611449 
" style="fill:none;stroke:#000000;stroke-linecap:square;"/>
   </g>
   <g id="line2d_56">
    <path clip-path="url(#p9963e34b01)" d="M 310.3375 308.611449 
L 310.3375 309.026511 
" style="fill:none;stroke:#000000;stroke-linecap:square;"/>
   </g>
   <g id="line2d_57">
    <path clip-path="url(#p9963e34b01)" d="M 310.3375 306.609551 
L 310.3375 304.366373 
" style="fill:none;stroke:#000000;stroke-linecap:square;"/>
   </g>
   <g id="line2d_58">
    <path clip-path="url(#p9963e34b01)" d="M 302.380938 309.026511 
L 318.294062 309.026511 
" style="fill:none;stroke:#000000;stroke-linecap:square;"/>
   </g>
   <g id="line2d_59">
    <path clip-path="url(#p9963e34b01)" d="M 302.380938 304.366373 
L 318.294062 304.366373 
" style="fill:none;stroke:#000000;stroke-linecap:square;"/>
   </g>
   <g id="line2d_60"/>
   <g id="line2d_61">
    <path clip-path="url(#p9963e34b01)" d="M 82.249375 305.511013 
L 114.075625 305.511013 
" style="fill:none;stroke:#ffb482;stroke-linecap:square;"/>
   </g>
   <g id="line2d_62">
    <path clip-path="url(#p9963e34b01)" d="M 152.974375 306.459647 
L 184.800625 306.459647 
" style="fill:none;stroke:#ffb482;stroke-linecap:square;"/>
   </g>
   <g id="line2d_63">
    <path clip-path="url(#p9963e34b01)" d="M 223.699375 242.434391 
L 255.525625 242.434391 
" style="fill:none;stroke:#ffb482;stroke-linecap:square;"/>
   </g>
   <g id="line2d_64">
    <path clip-path="url(#p9963e34b01)" d="M 294.424375 307.660663 
L 326.250625 307.660663 
" style="fill:none;stroke:#ffb482;stroke-linecap:square;"/>
   </g>
   <g id="patch_9">
    <path d="M 62.8 314.586332 
L 62.8 192.270267 
" style="fill:none;stroke:#000000;stroke-linecap:square;stroke-linejoin:miter;stroke-width:0.8;"/>
   </g>
   <g id="patch_10">
    <path d="M 345.7 314.586332 
L 345.7 192.270267 
" style="fill:none;stroke:#000000;stroke-linecap:square;stroke-linejoin:miter;stroke-width:0.8;"/>
   </g>
   <g id="patch_11">
    <path d="M 62.8 314.586332 
L 345.7 314.586332 
" style="fill:none;stroke:#000000;stroke-linecap:square;stroke-linejoin:miter;stroke-width:0.8;"/>
   </g>
   <g id="patch_12">
    <path d="M 62.8 192.270267 
L 345.7 192.270267 
" style="fill:none;stroke:#000000;stroke-linecap:square;stroke-linejoin:miter;stroke-width:0.8;"/>
   </g>
  </g>
 </g>
 <defs>
  <clipPath id="p63d0ec0c85">
   <rect height="122.316065" width="282.9" x="62.8" y="14.3"/>
  </clipPath>
  <clipPath id="p9963e34b01">
   <rect height="122.316065" width="282.9" x="62.8" y="192.270267"/>
  </clipPath>
 </defs>
</svg>
